<?xml version="1.0" standalone="no"?>
<!DOCTYPE svg PUBLIC "-//W3C//DTD SVG 20010904//EN"
 "http://www.w3.org/TR/2001/REC-SVG-20010904/DTD/svg10.dtd">
<svg version="1.0" xmlns="http://www.w3.org/2000/svg"
 width="300.000000pt" height="301.000000pt" viewBox="0 0 300.000000 301.000000"
 preserveAspectRatio="xMidYMid meet">
<metadata>
Created by potrace 1.10, written by Peter Selinger 2001-2011
</metadata>
<g transform="translate(0.000000,301.000000) scale(0.050000,-0.050000)"
fill="#000000" stroke="none">
<path d="M609 5986 c7 -19 7 -28 -1 -21 -8 8 -34 -7 -59 -34 -25 -27 -52 -42
-60 -35 -9 8 -9 4 -2 -9 7 -13 32 -18 55 -12 36 9 40 4 29 -32 -13 -40 2 -53
52 -46 7 1 8 -17 2 -39 -7 -29 1 -43 32 -51 23 -7 38 -19 32 -28 -5 -9 0 -22
11 -29 11 -7 15 -21 9 -31 -6 -11 -2 -19 10 -19 11 0 21 -18 21 -40 0 -22 9
-40 20 -40 11 0 20 -13 20 -30 0 -16 -16 -29 -35 -28 -21 1 -25 5 -10 11 28
12 14 47 -18 47 -13 0 -16 -20 -9 -50 8 -30 4 -50 -8 -50 -15 0 -15 -12 0 -40
14 -26 14 -40 1 -40 -11 0 -15 -13 -8 -30 6 -16 2 -30 -10 -30 -11 0 -16 22
-12 49 5 27 0 54 -11 61 -12 7 -14 -2 -6 -22 8 -22 5 -30 -9 -21 -13 8 -19 -9
-17 -48 3 -46 -13 -80 -62 -132 -53 -56 -63 -77 -44 -99 20 -25 -20 -44 -49
-23 -4 3 -21 -7 -38 -21 -24 -20 -35 -20 -46 -2 -11 17 -6 19 13 8 15 -9 21
-9 12 1 -22 24 -77 29 -62 6 7 -11 -4 -18 -25 -16 -82 8 -119 0 -87 -21 18
-12 20 -20 6 -20 -13 0 -29 9 -36 20 -7 11 -21 20 -32 20 -11 0 -14 -10 -7
-21 9 -15 -10 -17 -59 -8 -78 14 -112 -29 -112 -143 l0 -49 304 5 303 6 92
172 c50 94 134 239 186 322 126 201 143 136 -154 601 -69 107 -154 163 -122
81z"/>
<path d="M898 5875 c252 -381 250 -371 127 -582 -52 -90 -112 -194 -132 -233
-21 -38 -79 -133 -130 -210 l-93 -140 -335 -5 c-280 -5 -335 -11 -335 -35 0
-25 52 -30 327 -30 385 0 335 29 553 -330 269 -444 269 -446 205 -546 -19 -30
-39 -58 -45 -64 -5 -5 -20 -28 -32 -50 -75 -138 -131 -236 -176 -308 -29 -44
-52 -87 -52 -94 0 -7 -28 -47 -62 -90 l-61 -78 -329 0 c-278 0 -328 -5 -328
-30 0 -25 51 -30 338 -30 l337 0 51 -66 c41 -54 133 -200 272 -434 10 -16 31
-60 47 -96 l29 -67 100 137 c55 75 125 174 156 221 68 104 90 113 31 12 -23
-39 -38 -76 -33 -81 5 -6 27 26 50 70 22 43 35 84 29 90 -6 6 23 71 64 145 42
74 109 234 149 355 60 179 78 214 94 185 42 -74 -100 -421 -356 -869 -105
-183 -72 -168 82 39 199 269 272 440 305 719 4 32 17 48 35 44 24 -6 25 -2 5
19 -14 14 -26 61 -28 106 l-2 81 -13 -70 -12 -69 -44 55 c-161 206 -164 901
-4 1371 180 532 459 810 934 931 819 208 1439 -305 1642 -1360 41 -210 70
-319 137 -504 l31 -85 53 125 c67 158 201 389 268 461 l51 55 426 0 c502 -1
443 26 627 -282 107 -179 149 -234 149 -198 0 28 -41 123 -92 210 -51 88 -110
194 -132 235 l-40 75 51 98 c28 54 88 154 132 223 51 79 81 148 81 187 -1 52
-25 20 -155 -202 -98 -166 -170 -268 -195 -275 -55 -15 -819 -14 -859 1 -26
10 -251 347 -251 376 0 14 -145 257 -184 310 -51 68 -47 89 54 255 49 82 90
153 90 159 0 5 16 34 36 64 20 30 65 97 100 149 l63 95 -234 -3 c-129 -1 -215
-6 -190 -11 25 -5 40 -17 34 -27 -6 -10 3 -13 20 -7 21 9 31 0 31 -26 0 -21
10 -48 22 -60 16 -16 15 -22 -5 -21 -76 4 -100 -7 -93 -40 5 -21 22 -32 45
-28 35 6 35 4 2 -29 -29 -29 -38 -30 -55 -6 -16 22 -17 21 -9 -7 7 -19 3 -35
-8 -35 -10 0 -19 -10 -19 -21 0 -12 9 -16 20 -9 11 7 20 3 20 -9 0 -11 -10
-21 -22 -21 -12 0 -18 -12 -12 -27 6 -15 2 -39 -8 -55 -15 -24 -17 -24 -18 1
0 22 -8 19 -27 -10 -33 -47 -35 -114 -5 -134 13 -8 6 -15 -18 -15 -34 -1 -35
-4 -10 -22 20 -14 21 -19 4 -14 -15 4 -26 14 -25 22 5 29 -67 132 -84 121 -10
-6 -1 -23 19 -38 21 -16 26 -28 11 -28 -13 -1 -40 24 -59 54 -19 30 -43 61
-52 67 -10 7 6 19 35 26 30 8 47 22 39 35 -9 14 -18 13 -29 -5 -20 -32 -94 2
-186 86 -33 30 -69 49 -80 42 -11 -7 -15 1 -8 19 7 18 -2 44 -20 59 -24 19
-29 19 -18 1 9 -14 6 -25 -6 -25 -11 0 -21 10 -21 21 0 12 -8 16 -18 10 -9 -6
-23 10 -30 34 -10 38 -15 40 -32 15 -16 -25 -19 -24 -20 8 0 21 -6 33 -13 26
-7 -7 -31 -2 -55 11 -23 13 -49 22 -57 19 -8 -2 -15 4 -15 15 0 10 20 22 45
27 25 5 -229 10 -565 11 -397 2 -600 -4 -580 -17 17 -10 47 -14 68 -7 32 10
34 7 11 -17 -30 -32 -79 -39 -79 -11 0 9 -9 12 -20 5 -12 -7 -15 -23 -7 -35 9
-14 -2 -17 -30 -10 -28 7 -43 2 -43 -15 0 -14 -31 -31 -69 -39 -38 -7 -75 -21
-81 -32 -7 -10 3 -13 24 -6 22 7 17 -2 -14 -25 -27 -21 -57 -36 -65 -33 -8 3
-15 -8 -15 -25 0 -16 -12 -30 -27 -30 -14 0 -38 -22 -53 -49 -14 -27 -33 -46
-41 -40 -8 5 -29 -14 -47 -41 -18 -28 -46 -50 -62 -50 -17 0 -24 -12 -17 -30
6 -17 -2 -35 -20 -41 -17 -7 -26 -25 -20 -41 6 -15 1 -28 -12 -28 -13 0 -18
-9 -11 -20 7 -11 1 -20 -12 -20 -14 0 -19 -6 -12 -12 7 -7 -1 -26 -17 -42 -16
-16 -24 -38 -18 -48 6 -10 -9 -27 -35 -37 -25 -10 -34 -19 -19 -20 23 -1 23
-7 3 -31 -14 -16 -18 -30 -9 -30 9 0 -1 -14 -22 -31 -22 -18 -27 -26 -12 -18
18 9 15 -7 -9 -54 -20 -37 -34 -79 -31 -94 3 -16 -4 -21 -17 -13 -16 10 -19
-11 -13 -68 6 -47 2 -77 -9 -71 -10 6 -18 -5 -18 -25 -1 -31 -4 -32 -21 -6
-15 22 -17 14 -7 -28 9 -39 7 -54 -8 -45 -12 8 -27 4 -34 -7 -7 -12 -1 -19 13
-15 14 3 27 -14 28 -38 3 -32 -5 -40 -29 -32 -29 11 -29 9 -2 -25 27 -34 27
-36 -8 -23 -29 11 -33 8 -17 -12 27 -33 18 -146 -11 -140 -12 2 -17 -9 -11
-25 6 -16 18 -26 26 -21 8 5 14 -4 14 -21 0 -16 -11 -25 -25 -20 -20 8 -22 -2
-7 -40 10 -28 19 -75 18 -104 l0 -54 -29 50 c-16 28 -29 39 -29 25 -1 -14 17
-43 38 -64 22 -22 31 -45 20 -51 -10 -7 -19 -21 -19 -32 0 -11 8 -16 17 -10 9
6 18 -18 19 -54 2 -62 1 -63 -32 -24 -19 22 -32 37 -30 33 5 -9 -47 -63 -59
-63 -19 0 -6 60 13 62 12 1 0 9 -28 18 -48 15 -48 16 -5 18 25 1 45 11 45 21
0 11 -13 15 -28 9 -41 -16 -60 28 -29 67 16 19 17 27 4 19 -14 -9 -28 0 -34
21 -5 19 -7 1 -4 -41 8 -102 -21 -69 -54 62 -15 58 -34 98 -42 90 -8 -8 -10
-1 -3 16 6 17 -11 64 -39 104 -27 41 -46 75 -40 77 5 1 20 3 32 5 34 3 43 46
15 63 -14 9 -19 7 -12 -5 18 -29 -73 -66 -108 -44 -29 18 -3 27 57 19 30 -3
34 51 5 69 -11 7 -15 0 -9 -16 6 -16 -2 -27 -20 -27 -17 0 -32 7 -33 16 -6 39
-9 48 -24 72 -11 16 -5 25 15 25 18 0 31 17 31 40 0 24 -13 40 -32 40 -25 0
-28 -6 -11 -27 17 -20 15 -26 -7 -26 -34 0 -40 35 -12 64 11 10 29 51 40 89
l22 70 -10 -66 c-8 -58 -6 -63 19 -38 18 18 27 59 23 107 -5 64 1 79 31 82 85
9 91 13 82 48 -5 20 -17 32 -26 27 -21 -13 -12 44 10 64 10 9 11 5 4 -8 -8
-13 -5 -29 7 -36 11 -7 20 2 20 20 0 21 9 27 25 17 17 -10 16 -4 -2 19 -20 24
-21 34 -4 34 13 0 17 10 9 23 -10 16 -1 20 27 12 30 -7 39 -3 31 17 -5 15 -20
22 -31 15 -13 -8 -15 -3 -6 12 9 13 35 20 58 14 39 -10 39 -8 -7 27 -27 22
-43 40 -35 42 8 2 22 4 30 6 48 9 62 40 55 122 -4 56 1 90 15 90 12 0 16 6 9
13 -7 7 -27 1 -44 -13 -26 -21 -29 -21 -19 6 7 17 1 51 -11 75 -20 36 -19 41
3 30 15 -8 10 0 -12 18 -21 17 -46 31 -55 31 -9 0 -16 22 -16 48 0 27 -11 53
-25 59 -20 8 -20 10 0 11 14 1 25 12 25 24 0 12 -13 17 -29 11 -20 -8 -25 -1
-17 21 8 19 5 27 -7 20 -11 -7 -20 0 -20 16 0 16 7 24 16 18 10 -6 17 4 17 22
0 19 -9 27 -23 18 -13 -8 -18 -5 -11 6 7 11 36 18 64 15 27 -3 50 3 50 13 0
10 -90 18 -199 18 l-199 0 96 -145z m444 -1953 c-22 -14 -17 -20 20 -25 33 -5
46 -18 42 -42 -3 -19 6 -35 20 -35 19 -1 18 -6 -3 -19 -26 -16 -25 -21 4 -32
19 -7 30 -21 24 -31 -7 -10 -20 -13 -30 -7 -11 6 -19 2 -19 -10 0 -11 18 -21
40 -21 25 0 40 -13 40 -36 0 -20 11 -48 25 -62 20 -22 20 -29 -2 -37 -23 -8
-23 -13 0 -27 20 -13 20 -17 2 -18 -14 0 -25 -10 -25 -21 0 -12 8 -17 17 -11
30 18 18 -57 -15 -96 -26 -31 -26 -36 -2 -22 26 15 26 13 3 -15 -14 -18 -20
-44 -11 -58 10 -17 4 -20 -22 -10 -31 12 -32 10 -9 -19 23 -27 23 -36 -2 -55
-17 -13 -29 -45 -29 -73 1 -27 -3 -54 -9 -60 -25 -23 -61 -102 -61 -132 0 -28
-5 -29 -31 -7 -28 23 -30 20 -19 -23 9 -36 -1 -64 -36 -102 -26 -28 -54 -66
-60 -83 -8 -21 -25 -28 -47 -19 -21 8 -29 5 -20 -9 18 -29 -41 -19 -71 11 -19
19 -19 24 0 24 13 0 24 10 24 21 0 12 -9 16 -20 9 -19 -12 -28 25 -22 92 2 17
-19 48 -47 69 -28 21 -51 49 -51 62 0 13 -11 29 -25 35 -14 6 -7 9 15 5 22 -3
38 -17 35 -31 -4 -14 2 -20 12 -14 23 14 12 111 -16 139 -25 25 -28 60 -4 45
9 -6 30 14 45 44 15 30 37 61 48 69 11 8 12 15 3 15 -10 0 -7 14 7 30 22 26
20 29 -9 17 -31 -11 -33 -8 -12 31 20 37 29 40 54 19 25 -20 30 -20 26 4 -9
63 2 99 30 99 20 0 25 12 17 33 -9 23 -5 29 10 19 16 -9 19 -3 12 17 -8 21 -1
31 22 31 29 0 30 5 10 30 -21 25 -19 30 10 30 27 0 30 6 12 27 -24 30 -10 93
21 93 11 0 14 -9 7 -20 -7 -11 -3 -20 9 -20 11 0 21 18 21 40 0 22 -8 40 -18
40 -10 0 -16 16 -15 35 3 37 49 83 83 84 11 0 7 -8 -8 -17z"/>
<path d="M4817 5965 c-139 -166 -364 -588 -337 -632 66 -102 238 -393 300
-505 l68 -121 390 3 c312 3 393 9 406 32 9 15 61 107 116 205 55 97 100 181
100 188 0 7 12 26 27 43 121 143 105 253 -84 565 -138 226 -198 282 -244 226
-16 -20 -17 -29 -2 -29 12 0 17 -13 10 -30 -14 -36 -60 -40 -74 -5 -5 14 -11
4 -11 -21 -1 -26 -11 -41 -22 -34 -30 19 -107 31 -91 14 8 -8 20 -14 28 -15 7
0 32 -11 55 -24 24 -13 50 -17 59 -9 8 8 9 -4 1 -26 -11 -31 -9 -34 9 -17 28
28 6 74 -25 54 -14 -8 -16 -4 -8 10 8 13 25 17 38 9 13 -9 32 -16 43 -16 10 0
25 -25 33 -55 15 -57 1 -70 -36 -33 -15 15 -26 15 -34 1 -7 -12 5 -31 27 -43
23 -12 41 -35 41 -52 0 -17 8 -26 17 -20 10 6 34 -7 53 -28 40 -44 15 -55 -30
-15 -16 14 -11 3 10 -25 22 -27 57 -66 80 -86 40 -37 40 -37 -4 -15 -56 27
-59 27 -59 -7 0 -16 12 -24 26 -18 15 6 27 0 27 -12 0 -12 -9 -22 -20 -22 -12
0 -10 -16 5 -40 13 -22 32 -40 41 -40 9 0 11 9 4 20 -7 11 -3 36 8 55 16 29
19 26 14 -20 -7 -67 -21 -84 -55 -63 -14 8 -48 17 -76 20 l-51 4 55 -24 c52
-23 53 -26 20 -59 -33 -33 -33 -35 5 -22 26 8 31 6 16 -5 -14 -10 -28 -37 -32
-61 -9 -65 -31 -77 -61 -36 -21 29 -30 31 -43 11 -9 -15 -8 -21 3 -14 10 6 30
-6 43 -27 13 -22 18 -40 9 -41 -8 -1 -37 -4 -63 -7 -59 -6 -106 -66 -91 -115
7 -20 4 -37 -5 -38 -9 0 -32 -4 -52 -8 -30 -6 -32 -1 -12 22 13 16 17 35 10
43 -8 8 -20 5 -28 -6 -18 -26 -145 -27 -129 -2 7 12 -3 14 -23 6 -20 -7 -39
-13 -43 -13 -4 0 -3 -16 4 -35 8 -27 6 -29 -9 -7 -11 15 -30 20 -44 12 -19
-11 -19 -5 -1 29 22 40 20 41 -17 18 -21 -14 -34 -34 -27 -46 7 -12 -1 -10
-18 4 -17 13 -37 19 -44 11 -7 -7 -13 -3 -13 9 0 12 -27 28 -60 35 -33 7 -56
21 -50 30 6 10 1 23 -11 30 -15 10 -14 21 1 40 15 19 16 30 1 40 -12 7 -16 21
-10 32 7 10 5 18 -5 16 -66 -11 -103 5 -96 43 4 22 0 35 -10 29 -9 -6 -23 -2
-30 10 -7 11 6 20 29 20 22 0 41 -13 41 -29 0 -39 34 -57 52 -28 9 14 6 18 -9
9 -14 -9 -23 -1 -23 18 0 18 8 28 17 22 9 -6 16 1 16 15 0 16 -22 25 -56 23
-43 -3 -57 5 -57 33 0 34 22 47 66 39 10 -2 11 6 4 18 -7 11 -21 15 -31 9 -11
-6 -19 -1 -19 11 0 12 -10 16 -23 8 -13 -8 -18 -3 -12 14 5 15 20 26 33 23 12
-3 20 6 17 20 -3 16 18 24 60 23 64 -2 73 15 13 24 -83 13 -115 57 -41 58 12
1 21 16 17 34 -3 18 6 40 19 48 13 8 18 6 12 -4 -6 -10 0 -41 15 -68 24 -45
25 -42 16 43 -10 88 39 177 97 177 31 0 -7 -56 -44 -66 -22 -6 -39 -26 -39
-46 0 -33 2 -33 31 3 18 22 27 29 21 16 -7 -13 1 -28 16 -33 19 -8 24 0 18 25
-5 19 5 49 23 67 38 39 7 65 -69 58 l-50 -4 50 25 c28 14 52 37 55 51 4 15 -3
21 -15 14 -11 -7 -20 -2 -20 11 0 17 -10 16 -34 -4 -23 -18 -29 -19 -19 -2 40
66 -39 110 -90 50z"/>
<path d="M5780 6007 c0 -8 14 -30 32 -49 17 -19 66 -101 109 -181 l78 -147 0
195 1 195 -110 0 c-60 0 -110 -6 -110 -13z"/>
<path d="M1201 5801 c-12 -21 -15 -52 -9 -70 21 -53 40 -34 40 39 0 81 -3 84
-31 31z"/>
<path d="M2518 5742 c-32 -33 -58 -49 -58 -36 0 15 -7 15 -24 -2 -13 -13 -44
-24 -69 -24 -81 0 -68 -35 18 -46 86 -12 135 9 135 57 0 14 24 45 53 68 29 22
41 41 28 41 -13 0 -50 -26 -83 -58z"/>
<path d="M2780 5789 c390 -70 614 -201 821 -481 278 -375 379 -831 379 -1705
0 -567 -43 -795 -234 -1249 -84 -200 -88 -218 -58 -251 46 -51 40 -76 -8 -33
-48 43 -45 46 -90 -76 -26 -68 -41 -88 -54 -70 -10 16 -12 3 -4 -32 9 -36 6
-53 -6 -46 -23 14 -22 15 -38 -206 -9 -125 -4 -193 18 -256 24 -68 24 -81 3
-63 -79 65 -121 338 -84 549 12 68 11 73 -8 30 -62 -142 -30 -581 41 -565 12
3 22 -8 22 -25 0 -16 9 -30 20 -30 11 0 20 -18 20 -40 0 -47 -35 -51 -92 -11
-40 28 -42 24 -67 -135 -32 -215 -60 -593 -46 -631 7 -18 3 -24 -9 -17 -25 16
-56 -193 -34 -229 9 -14 6 -18 -9 -9 -45 28 -23 -69 26 -119 l49 -49 -324 -1
c-729 -2 -900 0 -909 9 -19 20 19 52 62 52 25 0 57 11 72 25 22 20 24 20 11
-3 -11 -19 -9 -23 7 -14 16 10 20 47 11 113 -9 68 -6 99 9 99 38 0 29 214 -9
236 -30 17 -30 19 0 30 18 7 33 2 35 -12 2 -13 9 21 15 76 9 78 2 126 -36 220
-37 93 -51 174 -60 360 l-12 240 -25 -100 c-30 -118 -28 -101 -96 -740 -29
-275 -56 -520 -61 -545 l-9 -45 -1009 0 c-660 0 -1010 -7 -1010 -20 0 -13
1013 -20 3000 -20 1987 0 3000 7 3000 20 0 13 -269 20 -768 20 l-767 0 -12 45
c-23 84 -15 109 20 65 31 -39 32 -39 20 9 -6 27 7 283 29 570 l41 521 88 130
c112 163 112 167 -19 241 l-108 60 64 185 c57 167 68 185 118 190 30 4 54 15
54 25 0 10 14 13 30 6 37 -14 41 54 6 89 -19 19 -11 38 38 87 l62 62 32 -49
c34 -52 111 -368 112 -458 0 -42 -15 -58 -75 -81 l-75 -30 10 -243 10 -243 99
-100 c55 -56 111 -101 124 -101 39 0 54 -41 50 -139 -4 -88 125 -795 149 -819
6 -7 5 23 -3 66 -10 55 -8 74 8 64 15 -10 22 23 20 107 -1 67 -8 121 -17 121
-9 0 -9 32 0 72 9 39 11 65 4 58 -25 -24 -57 197 -36 240 32 62 69 -172 74
-460 3 -132 8 -208 12 -170 4 39 13 84 20 100 23 60 29 184 7 171 -13 -9 -21
14 -21 63 0 213 -141 736 -240 886 -30 46 -24 5 9 -57 89 -173 169 -489 130
-514 -36 -22 -47 8 -17 44 15 19 18 28 5 21 -16 -9 -20 -1 -13 26 6 24 1 40
-14 40 -14 0 -19 13 -12 31 7 19 3 26 -9 18 -38 -23 -99 53 -99 124 0 45 -18
88 -55 129 -89 100 -100 480 -11 391 8 -8 3 -23 -12 -32 -38 -23 -18 -263 27
-333 49 -74 51 -60 28 163 -11 109 -22 240 -25 290 -3 50 -11 101 -18 113 -8
12 -27 88 -42 169 -16 81 -35 165 -44 187 -23 63 5 28 139 -173 214 -320 661
-936 548 -754 -31 50 -31 52 2 44 38 -10 52 -29 167 -231 85 -150 107 -259 25
-121 -82 136 -71 99 28 -100 94 -187 138 -237 65 -73 -26 55 -33 95 -21 107
24 24 24 355 1 456 -18 77 -8 93 34 51 14 -14 24 -16 24 -3 0 11 -43 51 -95
88 -52 37 -112 89 -132 115 -21 25 -50 42 -65 36 -15 -6 -33 0 -40 12 -9 15
-5 17 14 6 16 -10 21 -9 12 2 -9 9 -32 18 -50 18 -19 0 -32 10 -30 23 3 12
-15 39 -40 60 l-44 37 38 -45 c104 -123 -121 37 -318 225 -127 121 -110 114
70 -31 65 -52 12 9 -130 151 -132 131 -244 239 -250 240 -117 14 -559 690
-719 1100 -126 325 -187 574 -162 665 23 86 6 169 -55 273 -21 35 -50 127 -64
203 -128 685 -574 1183 -1090 1219 -66 4 -97 4 -70 -1z m1255 -1696 l-25 -83
-13 110 c-10 75 -6 114 9 124 40 24 56 -62 29 -151z m52 -623 c-8 -22 -2 -27
20 -18 25 9 35 -6 45 -70 7 -45 27 -93 44 -107 26 -21 29 -20 16 5 -8 17 -1
13 17 -9 17 -21 31 -48 31 -60 0 -11 -9 -7 -20 9 -22 34 -26 19 -8 -28 7 -18
19 -28 27 -23 8 5 39 -51 70 -125 30 -74 94 -204 142 -289 47 -85 84 -155 80
-155 -19 0 -331 324 -331 344 0 13 14 6 31 -15 18 -22 28 -30 23 -19 -80 176
-108 246 -156 388 -32 92 -52 175 -46 185 17 28 28 19 15 -13z m-40 -238 c-6
-21 -3 -32 8 -25 11 7 44 -47 75 -118 30 -72 59 -127 63 -122 5 4 -14 60 -42
123 -28 63 -51 125 -50 137 0 13 27 -39 60 -114 77 -180 58 -215 -60 -110 -77
69 -86 85 -65 117 13 21 15 43 6 49 -10 6 -17 42 -16 81 1 42 8 60 18 45 8
-14 10 -42 3 -63z m40 -249 c18 -20 26 -44 18 -53 -8 -9 -4 -10 10 -2 16 9 61
-21 120 -80 52 -52 75 -79 50 -58 -25 20 -51 30 -58 23 -8 -7 -28 0 -46 16
-18 17 -55 33 -82 38 -27 4 -50 17 -51 30 -2 13 -5 25 -8 28 -13 13 -13 95 0
95 7 0 29 -16 47 -37z m248 -260 c21 -12 86 -98 144 -193 58 -95 110 -168 115
-163 10 10 -29 85 -106 200 -28 43 -42 71 -30 64 27 -17 242 -344 242 -368 0
-10 18 -41 40 -69 66 -83 -48 -82 -420 4 -49 12 -117 21 -150 21 -65 0 -178
-78 -135 -94 14 -4 20 -18 13 -29 -8 -13 -19 -10 -30 7 -12 20 -29 14 -73 -28
-32 -30 -70 -55 -86 -54 -16 0 15 40 69 89 55 48 109 83 120 76 12 -7 15 -5 7
4 -37 41 65 73 170 52 214 -41 339 -43 145 -2 -265 56 -266 56 -420 -80 -145
-128 -170 -140 -170 -85 -1 30 -4 31 -22 5 -26 -37 -24 -27 54 245 35 123 62
185 71 168 9 -15 7 -57 -3 -94 -36 -126 -6 -79 61 93 105 272 206 331 394 231z
m520 -372 c20 -18 12 -33 -36 -69 -34 -25 -65 -42 -67 -39 -25 32 -192 301
-192 309 0 10 247 -158 295 -201z m-827 -334 c-6 -10 -30 -13 -52 -6 -30 10
-37 6 -25 -12 10 -17 7 -20 -9 -10 -19 11 -16 24 10 53 35 39 102 17 76 -25z
m540 -112 c-37 -85 -68 -166 -68 -180 -1 -87 -120 29 -134 130 -12 93 -46 96
-46 4 0 -73 7 -73 -155 10 -147 75 -220 123 -163 105 18 -6 68 11 110 37 70
43 102 48 301 48 l223 1 -68 -155z m-633 55 c58 -27 105 -57 105 -65 0 -22 -6
-20 -113 33 -53 26 -113 53 -132 59 -19 7 -35 21 -35 32 0 22 17 16 175 -59z
m-15 -56 c435 -221 700 -370 700 -394 0 -24 -257 -393 -529 -760 -134 -181
-350 -498 -408 -600 -69 -121 -3 -33 244 321 203 293 255 357 252 314 0 -8
-70 -114 -155 -234 -175 -250 -351 -531 -275 -441 l51 60 0 -59 c0 -53 8 -46
93 80 118 176 312 431 354 467 75 62 104 -100 55 -312 -50 -218 -52 -248 -14
-234 17 6 33 -4 39 -26 5 -20 5 10 -1 66 -6 63 -2 108 11 116 12 7 16 26 10
43 -6 16 -3 29 8 29 11 0 29 -47 42 -105 12 -58 28 -125 35 -150 l13 -45 -522
0 -521 0 8 95 c5 52 13 230 19 395 10 270 43 628 60 646 4 3 40 -8 81 -25 41
-17 94 -30 117 -30 42 2 42 2 3 19 -35 15 -36 17 -4 19 52 2 134 61 134 96 0
27 -5 27 -37 -2 -48 -44 -120 -41 -193 7 -33 22 -53 40 -44 40 8 0 7 17 -4 37
-14 25 -11 70 9 145 37 141 36 151 -11 108 -22 -20 -40 -27 -40 -16 0 26 70
89 84 75 6 -6 17 14 25 45 73 302 98 319 311 210z m1847 -368 c63 -100 -137
-200 -202 -101 -28 42 -27 45 2 33 22 -8 51 9 88 50 57 66 80 69 112 18z
m-1361 -463 c-157 -216 -202 -270 -214 -259 -10 11 110 194 217 328 76 97 73
36 -3 -69z m44 -163 c0 -69 -6 -123 -12 -118 -7 4 -13 -15 -13 -42 0 -31 8
-44 23 -36 18 11 4 -12 -45 -74 -4 -5 -1 76 8 180 8 105 15 201 15 215 0 14 6
20 12 13 7 -6 12 -68 12 -138z m-71 -134 c-15 -113 -30 -188 -34 -166 -4 22
-31 60 -60 84 -44 36 -48 48 -27 74 14 17 20 39 14 49 -7 10 14 47 46 81 32
34 54 62 49 62 -5 0 -3 10 4 21 30 49 32 -11 8 -205z"/>
<path d="M4467 2330 c-20 -53 9 -90 72 -90 45 0 61 9 61 36 0 74 -108 118
-133 54z"/>
<path d="M4600 2350 c0 -5 18 -39 40 -75 l40 -65 -65 -12 -65 -13 65 -2 c36
-2 65 -12 65 -23 0 -11 8 -20 19 -20 28 0 9 73 -40 151 -39 63 -59 84 -59 59z"/>
<path d="M4408 1511 c-23 -60 1 -101 60 -101 72 0 111 53 73 98 -32 40 -119
42 -133 3z"/>
<path d="M3750 1020 c-28 -31 -30 -41 -8 -42 15 -2 1 -9 -32 -16 -33 -7 -50
-19 -39 -26 12 -8 45 -2 74 13 38 20 57 21 75 4 18 -17 22 -14 17 15 -4 21 6
42 23 46 27 8 27 7 0 -12 -26 -18 -25 -21 6 -22 24 0 31 -9 21 -25 -11 -18 -6
-18 18 1 21 17 56 22 103 13 98 -18 93 18 -8 59 -111 44 -206 41 -250 -8z"/>
<path d="M2650 5641 c-128 -52 -112 -91 36 -92 294 -1 532 -205 708 -608 86
-198 83 -226 -11 -108 -90 114 -362 374 -377 360 -5 -5 53 -71 129 -146 145
-144 263 -305 354 -484 l54 -107 -87 51 c-128 76 -283 218 -353 325 -35 52
-63 81 -63 64 0 -81 305 -416 443 -488 51 -26 55 -26 44 7 -11 29 -8 30 14 10
58 -53 -11 -71 -108 -28 -286 126 -495 337 -604 610 -29 73 -61 133 -70 133
-18 0 -5 -53 21 -90 49 -68 124 -366 150 -590 20 -185 -81 11 -142 275 l-27
115 8 -110 c9 -113 84 -370 140 -477 38 -75 38 -76 2 -76 -16 0 -25 6 -21 13
5 8 -13 35 -41 61 -27 25 -49 39 -49 29 0 -9 -18 0 -40 20 -22 20 -40 45 -40
56 0 11 19 3 43 -18 24 -21 11 7 -30 64 -84 118 -137 232 -215 458 -60 173
-78 165 -26 -11 35 -117 129 -314 193 -405 22 -31 34 -61 28 -67 -56 -57 -246
412 -283 700 l-29 223 9 -190 c13 -295 106 -557 276 -777 84 -110 248 -249
273 -234 8 5 54 -31 103 -81 l88 -90 -89 32 c-207 73 -340 185 -466 393 -41
68 -75 118 -75 110 0 -31 110 -229 193 -348 106 -152 83 -165 -37 -20 -359
433 -448 874 -282 1400 13 41 -44 48 -119 14 -90 -41 -253 -345 -287 -536 -19
-103 1 -74 52 75 49 148 127 268 231 360 93 82 94 79 47 -88 -31 -109 -38
-178 -30 -310 55 -938 34 -825 149 -796 85 21 86 21 149 -55 135 -164 247
-270 295 -279 48 -8 48 -8 -11 47 -62 58 -84 103 -51 103 10 0 25 -10 32 -22
14 -22 173 -98 267 -127 32 -11 43 -8 33 7 -8 13 1 22 19 22 23 0 13 17 -31
54 -325 274 -192 552 203 425 223 -72 259 -94 158 -94 -44 0 -80 8 -80 17 0 8
-25 3 -55 -13 -30 -16 -64 -29 -75 -29 -36 0 -163 -96 -164 -123 -1 -15 -8
-45 -17 -67 -19 -47 38 -11 87 55 15 19 39 35 55 35 38 0 37 -20 -2 -48 -19
-14 -26 -37 -18 -58 16 -41 167 -48 206 -9 13 13 39 25 57 25 18 0 36 14 41
30 6 23 4 24 -10 4 -10 -14 -33 -20 -52 -12 -26 10 -29 19 -11 40 12 15 17 41
11 58 -8 20 1 30 28 30 27 0 39 -14 39 -45 1 -36 4 -39 20 -15 52 81 1 -227
-62 -375 -20 -47 -59 -108 -87 -135 -61 -62 -29 -65 56 -6 l63 43 -48 -53
c-27 -30 -39 -54 -28 -54 12 0 51 34 87 74 l66 75 -14 -127 c-7 -71 -13 -144
-13 -164 0 -41 -176 -238 -323 -360 -116 -98 -221 -92 -175 9 16 36 16 60 -2
93 -47 88 -60 160 -29 160 16 0 29 7 29 16 0 9 36 32 80 52 44 19 80 43 80 52
0 10 -50 -5 -112 -33 -80 -37 -131 -48 -180 -41 -37 7 -68 3 -68 -7 0 -11 11
-19 25 -20 14 0 -18 -23 -70 -50 -168 -88 -105 -80 90 12 64 30 58 34 101 -80
38 -99 35 -110 -24 -91 -28 8 -42 30 -42 61 0 59 -2 59 -85 9 -77 -47 -132
-51 -147 -11 -8 20 -29 26 -67 18 -68 -13 -183 79 -243 196 -33 66 -23 114 12
57 7 -11 32 -20 55 -20 31 0 17 13 -46 45 -118 60 -332 369 -224 325 81 -33
116 -37 90 -9 -14 15 -25 34 -25 42 0 24 119 80 141 67 30 -19 22 -50 -12 -50
-19 0 -29 -14 -25 -33 19 -101 236 -70 236 34 0 45 7 53 40 45 60 -16 48 6
-29 53 -72 45 -332 55 -324 13 2 -10 -17 -29 -42 -42 -25 -13 -40 -29 -33 -35
6 -7 -8 -22 -32 -35 -24 -13 -48 -18 -54 -13 -17 17 13 116 32 104 9 -6 36 36
59 92 33 77 50 98 75 89 25 -10 29 -4 18 23 -75 176 -118 408 -98 522 8 42 6
66 -4 56 -10 -9 -18 -139 -18 -290 0 -270 -76 -556 -118 -443 -71 191 -63 519
20 820 10 36 7 44 -8 30 -28 -26 -81 -232 -103 -395 -14 -112 -16 -100 -19
125 -3 194 -8 241 -25 212 -30 -52 -8 -483 33 -652 49 -200 179 -451 294 -566
92 -92 95 -98 43 -85 -207 51 -433 320 -486 576 -58 287 -61 296 -50 152 11
-150 62 -313 145 -464 31 -57 66 -121 78 -143 12 -22 46 -153 75 -290 70 -332
111 -468 133 -446 11 11 3 63 -20 131 -34 97 -79 300 -108 481 -8 52 -6 54 34
27 30 -20 43 -52 47 -115 7 -128 72 -475 81 -431 4 21 -2 75 -14 120 -13 52
-15 143 -6 243 l15 160 17 -260 c9 -143 18 -288 20 -323 2 -60 32 -75 32 -17
0 16 18 38 40 50 55 29 52 20 -39 -124 -146 -232 -135 -222 -201 -183 -60 36
-160 1 -160 -57 0 -13 22 -2 50 24 27 26 53 43 56 38 3 -4 17 -34 31 -65 40
-93 279 -427 387 -539 103 -107 63 -46 -82 126 -67 79 -54 112 66 174 53 28
57 27 45 -4 -7 -18 -13 -42 -13 -54 0 -11 -13 -15 -29 -9 -20 8 -17 -8 12 -58
51 -86 62 -86 129 2 30 39 66 66 80 61 17 -7 22 1 14 22 -8 20 -5 28 8 20 12
-8 31 -2 43 13 17 19 16 27 -2 27 -14 1 -43 8 -65 16 -32 11 -34 9 -10 -7 25
-18 26 -25 2 -47 -23 -21 -25 -21 -12 2 12 22 4 26 -37 18 -29 -6 -53 -3 -53
6 0 19 81 98 100 98 7 0 25 22 40 50 l26 49 64 -39 c82 -51 121 -16 149 132
23 121 2 146 -75 91 -49 -35 -77 -40 -153 -30 -113 15 -109 47 10 86 89 29 89
29 29 40 -73 14 -82 55 -50 213 22 104 27 111 72 99 27 -6 66 -3 87 9 23 12
43 13 50 2 6 -10 0 -23 -14 -29 -14 -5 -2 -11 25 -12 95 -3 113 -29 74 -110
-37 -78 -45 -119 -14 -71 15 24 19 19 20 -23 0 -28 -15 -64 -33 -79 -29 -25
-31 -22 -20 22 13 49 13 50 -10 5 -19 -38 -18 -50 10 -70 53 -40 53 -224 0
-277 -41 -41 -41 -44 -7 -78 20 -20 45 -52 56 -73 28 -49 60 -17 71 73 13 98
33 140 65 140 36 0 36 -6 -14 -146 -30 -83 -36 -123 -20 -133 15 -9 8 -28 -20
-58 -23 -25 -36 -59 -30 -75 7 -17 1 -50 -12 -74 -14 -24 -22 -56 -19 -71 3
-14 -11 -50 -30 -80 -43 -63 -150 -384 -138 -413 4 -11 9 -5 9 14 1 18 10 39
20 45 10 6 4 -33 -13 -88 -18 -54 -41 -94 -51 -87 -12 7 -15 -18 -7 -66 8 -55
7 -66 -6 -38 -26 58 -26 -2 1 -98 16 -58 26 -71 40 -50 9 15 18 19 18 8 0 -11
18 9 40 45 22 36 49 65 61 65 12 0 15 11 6 25 -12 20 -8 20 16 0 17 -13 34
-21 39 -17 4 4 24 -9 44 -28 35 -34 31 -38 -103 -89 -77 -29 -150 -66 -163
-80 -35 -43 -10 -274 33 -305 32 -24 31 -26 -9 -26 -26 0 -44 -12 -44 -30 0
-16 12 -30 26 -30 66 0 353 -159 342 -189 -7 -17 -19 -31 -28 -31 -25 0 -84
-100 -89 -153 -3 -27 -11 -54 -18 -60 -6 -7 1 -42 16 -78 15 -36 24 -71 19
-77 -4 -7 -2 -8 5 -2 7 5 24 -5 36 -23 38 -51 97 20 87 106 -4 37 -2 67 6 67
27 0 41 178 17 222 -20 38 -19 42 9 32 24 -10 32 0 33 42 4 176 52 603 77 669
11 29 4 70 -20 124 -24 53 -36 123 -35 201 2 109 4 113 16 40 11 -68 14 -54
24 90 6 94 18 188 26 210 12 34 11 35 -7 7 -109 -167 -196 -633 -140 -743 21
-40 20 -41 -10 -13 -116 110 -73 436 106 811 55 115 93 205 84 199 -9 -6 3 59
27 143 39 133 41 160 18 205 -54 103 -35 307 31 347 86 51 94 41 22 -26 -55
-51 -63 -70 -52 -123 6 -34 12 -99 12 -144 0 -187 111 193 132 454 6 68 19
195 29 282 11 88 19 213 19 278 0 86 14 147 50 221 82 168 147 627 94 660 -9
5 -17 -64 -19 -154 -2 -176 -50 -349 -125 -455 -24 -32 -36 -69 -28 -82 8 -13
5 -18 -7 -10 -11 7 -32 -1 -45 -17 -46 -55 -57 -31 -21 45 45 94 81 260 81
376 0 58 9 89 25 89 19 1 18 5 -2 17 -14 10 -34 82 -44 165 -59 471 -377 985
-709 1146 -129 63 -171 73 -220 53z m375 -1080 c25 -22 63 -53 85 -70 37 -27
37 -30 4 -30 -20 -1 -60 -14 -90 -29 l-54 -28 0 98 c0 113 -3 109 55 59z
m-575 -209 c60 -88 61 -82 -27 -99 -67 -13 -68 -12 -55 50 6 34 12 80 12 103
0 48 2 46 70 -54z m957 -267 c-46 -33 -153 -33 -142 0 5 14 26 26 47 27 79 4
87 9 76 43 -9 29 -6 28 21 -5 30 -37 30 -41 -2 -65z m-867 -241 c-43 -17 -72
-20 -85 -7 -29 29 0 61 45 49 24 -7 40 -1 40 14 0 19 8 18 33 -2 29 -24 25
-30 -33 -54z m-236 -447 l-20 -87 -2 109 c-1 78 4 103 20 87 15 -15 15 -48 2
-109z m69 -85 c-6 -67 -24 -162 -40 -212 l-29 -90 -2 114 c-1 63 9 162 22 220
13 58 22 120 19 136 -3 20 4 17 19 -8 15 -24 19 -82 11 -160z m110 -85 c3 -73
4 -73 11 -13 8 59 12 62 56 42 40 -18 44 -27 24 -60 -29 -47 -174 -202 -174
-186 0 6 -16 3 -36 -8 -36 -19 -36 -15 -1 124 20 79 36 174 37 212 l0 67 40
-50 c22 -28 41 -86 43 -128z m1084 -12 c-16 -88 -37 -106 -187 -161 -115 -42
-135 -57 -169 -131 -48 -100 -58 -102 -92 -18 -15 36 -38 72 -53 81 -43 26
-31 58 13 35 63 -34 87 -26 214 77 67 53 154 109 194 124 40 14 73 33 73 42 0
9 4 16 10 16 5 0 4 -29 -3 -65z m-1027 -166 c0 -10 -85 -115 -194 -240 -56
-64 -22 -9 56 91 39 50 77 106 84 125 12 32 54 50 54 24z m31 -316 c-31 -196
-145 -342 -204 -262 -15 20 -19 45 -9 57 9 12 23 49 31 82 18 74 147 235 175
218 12 -8 15 -46 7 -95z m776 -317 c-40 -65 -98 -116 -132 -116 -54 0 -34 42
44 95 73 49 112 58 88 21z m-235 -1469 c1 -45 9 -92 16 -104 9 -14 1 -23 -18
-23 -18 0 -27 -9 -20 -20 18 -29 -33 -16 -67 17 -34 31 -66 183 -39 183 10 0
14 7 9 16 -6 8 18 15 53 14 59 -1 63 -6 66 -83z"/>
<path d="M5959 4795 c-15 -36 -47 -98 -73 -139 l-46 -74 80 -146 79 -146 1
285 c0 308 -2 318 -41 220z"/>
<path d="M285 4524 l-286 -5 5 -97 c4 -65 14 -94 30 -88 13 5 21 20 18 33 -3
12 -2 16 3 8 5 -8 22 -15 38 -15 16 0 24 -8 18 -19 -6 -10 -1 -25 12 -33 14
-9 18 -6 9 9 -8 13 -7 24 2 25 90 13 126 13 118 1 -5 -7 28 -10 73 -6 67 6 79
2 69 -23 -6 -18 1 -36 19 -42 49 -19 67 -14 67 18 0 25 6 24 37 -5 20 -19 34
-41 30 -48 -4 -8 1 -17 11 -20 11 -4 22 -20 26 -37 9 -42 71 -85 101 -70 14 7
8 -1 -14 -19 -36 -29 -30 -40 19 -33 11 2 -2 -16 -30 -39 -27 -23 -39 -37 -25
-30 15 8 25 -1 26 -23 1 -29 5 -27 20 9 24 62 31 57 28 -23 -2 -54 5 -67 32
-62 25 5 32 -3 24 -32 -7 -29 -17 -33 -35 -18 -19 15 -28 10 -36 -20 -5 -22
-2 -40 7 -40 10 0 12 -15 5 -33 -10 -27 -16 -28 -34 -5 -12 15 -40 30 -62 33
-40 6 -40 6 0 -18 86 -52 111 -140 26 -95 -24 13 -36 14 -28 2 6 -11 4 -41 -7
-67 -17 -42 -19 -43 -21 -7 -2 36 -5 35 -22 -8 -13 -33 -11 -57 6 -80 14 -17
17 -25 7 -17 -10 8 -39 1 -64 -15 -44 -29 -47 -28 -47 8 0 22 -7 44 -16 49 -8
6 -15 -14 -15 -43 1 -30 -9 -54 -22 -54 -13 0 -29 -6 -36 -13 -7 -7 14 -10 48
-7 33 3 55 -3 49 -13 -12 -20 -98 -13 -120 9 -8 7 -26 4 -41 -8 -15 -13 -40
-17 -56 -11 -16 6 -35 2 -42 -8 -6 -11 -21 -14 -31 -8 -11 7 -31 4 -44 -6 -40
-32 -111 -42 -122 -18 -6 13 -8 -17 -6 -67 l4 -90 299 0 300 0 62 120 c34 66
122 219 195 340 121 202 130 223 104 260 -16 22 -104 168 -195 324 -91 157
-174 287 -185 290 -11 3 -148 4 -305 0z"/>
<path d="M4123 4460 c-11 -205 329 -1252 381 -1176 13 18 15 14 7 -14 -25 -90
345 -654 621 -948 192 -204 862 -842 783 -745 -30 36 -55 74 -55 85 0 10 -11
16 -25 13 -15 -3 -25 21 -27 65 -5 160 -264 563 -591 918 l-132 145 -122 8
c-97 6 -126 1 -140 -25 -16 -28 -21 -27 -42 12 -35 66 4 102 111 102 49 0 88
7 88 16 0 35 -51 64 -111 64 -35 0 -77 16 -94 35 -64 72 -322 557 -326 615 -6
68 -49 197 -62 183 -5 -4 2 -50 15 -101 41 -164 5 -121 -78 92 -70 178 -162
495 -190 656 l-9 50 -2 -50z"/>
<path d="M4792 4334 c-112 -225 -303 -502 -334 -483 -49 31 182 -402 342 -641
l94 -140 369 6 369 6 66 124 c36 68 113 207 170 309 137 241 135 286 -27 555
-39 66 -82 138 -96 160 -13 22 -43 78 -68 125 l-44 85 -394 -1 -395 0 -52
-105z m339 -92 c-4 -8 11 -15 35 -16 24 -1 33 2 19 8 -32 12 -12 46 27 46 17
0 25 -9 18 -20 -7 -12 10 -15 44 -8 43 8 67 -1 104 -40 46 -49 82 -53 82 -9 0
12 -15 16 -33 9 -28 -11 -29 -8 -6 19 24 29 29 26 54 -20 15 -30 37 -46 49
-39 14 9 16 5 6 -12 -12 -19 -8 -23 15 -15 19 7 36 0 43 -18 9 -23 2 -26 -30
-16 -40 12 -40 11 5 -34 25 -25 62 -44 80 -41 18 3 40 -5 48 -18 10 -16 6 -19
-13 -10 -15 8 -10 0 12 -17 22 -18 41 -43 42 -57 5 -53 34 -114 54 -114 12 0
4 -14 -17 -32 -33 -27 -34 -30 -4 -20 22 7 35 0 35 -19 0 -16 -11 -27 -25 -24
-14 3 -22 -7 -19 -22 3 -16 -6 -24 -21 -18 -16 6 -26 -4 -26 -26 0 -20 7 -32
15 -26 29 17 17 -47 -13 -72 -16 -13 -24 -35 -19 -48 5 -14 -9 -26 -32 -27
-36 -3 -37 0 -10 27 16 16 30 40 30 53 -1 13 -18 2 -39 -26 -21 -27 -36 -58
-34 -69 1 -10 -8 -20 -20 -20 -13 -1 -31 -9 -40 -19 -10 -11 -7 -13 6 -5 12 7
34 -1 47 -17 19 -23 19 -30 1 -30 -13 0 -17 -10 -9 -23 8 -13 5 -18 -5 -11
-11 7 -35 -6 -53 -27 -19 -21 -48 -39 -65 -39 -20 0 -26 -9 -16 -25 9 -16 1
-14 -21 4 -25 20 -39 22 -49 6 -11 -17 -27 -17 -64 2 -41 21 -53 20 -74 -6
-21 -27 -27 -28 -44 -1 -12 18 -21 21 -21 6 0 -17 -15 -16 -54 4 -42 22 -60
23 -84 4 -20 -16 -25 -17 -16 -1 15 25 -39 54 -68 36 -10 -6 -18 17 -18 52 0
54 -6 62 -40 53 -22 -6 -35 -2 -29 8 6 10 0 18 -15 19 -14 0 -3 13 24 29 50
29 50 29 -15 17 -56 -10 -64 -7 -53 22 7 18 26 29 41 23 15 -6 27 -3 27 7 0
33 -50 35 -76 3 -15 -18 -22 -21 -15 -8 6 13 2 29 -9 36 -11 7 -16 20 -11 29
6 9 -7 39 -29 66 -35 44 -36 54 -10 75 17 14 30 35 30 47 0 13 -9 10 -20 -7
-14 -22 -19 -11 -20 45 0 68 5 75 52 75 l52 0 -45 37 c-41 33 -42 36 -7 37 21
0 45 -10 53 -22 9 -14 15 -9 15 13 0 19 -16 36 -35 37 -33 3 -33 3 0 12 22 6
35 29 36 62 1 52 2 53 20 9 10 -25 22 -45 28 -45 5 0 4 15 -3 33 -9 23 -5 29
10 19 16 -9 19 -3 10 20 -10 27 -5 32 22 22 21 -9 29 -6 21 8 -7 11 6 26 29
32 23 6 42 21 42 33 0 13 9 10 19 -6 10 -16 14 -36 9 -45 -6 -9 0 -16 12 -16
26 0 6 83 -26 103 -24 15 45 33 81 21 14 -4 21 -14 16 -22z"/>
<path d="M5260 4206 c1 -30 4 -31 20 -6 13 20 19 22 20 5 0 -14 14 -25 32 -25
47 0 22 49 -29 56 -31 5 -43 -4 -43 -30z"/>
<path d="M3125 4275 c-87 -44 -112 -100 -53 -123 44 -17 63 -14 32 5 -39 25
-11 71 72 119 95 55 60 54 -51 -1z"/>
<path d="M1629 4088 c-23 -220 37 -618 73 -487 8 27 15 83 16 125 1 44 10 71
21 64 11 -6 6 27 -11 74 -17 47 -36 147 -42 221 -15 172 -39 173 -57 3z"/>
<path d="M2462 4093 c20 -18 178 -27 178 -11 0 10 -42 18 -93 18 -52 0 -90 -3
-85 -7z"/>
<path d="M3862 3720 c-39 -303 -175 -793 -302 -1091 -27 -63 -31 -89 -14 -96
17 -7 16 -10 -2 -11 -15 -1 -20 -12 -12 -25 8 -13 -2 -35 -23 -50 -20 -15 -30
-27 -22 -27 8 0 4 -19 -8 -42 -12 -23 -17 -47 -11 -53 18 -18 222 427 278 605
67 216 108 433 135 717 26 282 14 330 -19 73z"/>
<path d="M1830 3735 c5 -30 16 -79 23 -108 9 -37 6 -49 -10 -39 -29 18 -29 1
0 -45 18 -29 15 -59 -10 -133 -18 -53 -29 -100 -25 -105 4 -4 21 31 37 79 l30
86 14 -113 c20 -150 -249 -926 -345 -996 -64 -47 -323 -527 -274 -508 33 12
33 10 1 -38 -38 -58 -91 -86 -92 -49 0 13 -10 6 -22 -16 -11 -22 -54 -71 -95
-110 -41 -38 -58 -57 -38 -42 95 74 40 -6 -91 -134 -81 -79 -154 -137 -161
-129 -8 8 -9 -1 -2 -19 9 -22 -9 -49 -57 -85 -66 -50 -85 -83 -130 -226 -32
-99 -10 -78 58 58 44 87 138 200 326 395 231 238 373 402 348 402 -5 0 31 40
78 90 47 49 102 122 122 161 l37 71 117 -216 c64 -119 137 -243 162 -276 l46
-60 -133 -114 c-74 -63 -197 -179 -274 -258 l-140 -144 98 53 c53 29 101 53
106 53 5 0 -35 -52 -89 -115 -54 -63 -128 -157 -165 -209 -100 -144 -342 -295
-493 -310 -127 -12 -167 -41 -168 -125 -1 -105 -39 13 -77 242 -21 125 -39
196 -40 157 -1 -41 -43 -154 -100 -270 -114 -230 -243 -595 -151 -425 17 30
40 55 53 55 12 0 18 5 12 11 -7 6 14 65 46 130 32 66 60 126 62 134 7 26 46
61 59 53 7 -4 -30 -91 -82 -193 -52 -102 -100 -212 -107 -245 -10 -49 -5 -44
28 25 43 93 118 121 118 44 0 -23 9 -36 20 -29 11 7 21 -4 22 -24 2 -46 7 -29
50 161 34 152 36 155 62 105 15 -29 37 -52 49 -52 14 0 12 13 -6 35 -24 31
-24 32 6 9 30 -24 31 -33 5 -95 -34 -82 -38 -177 -6 -158 12 8 30 2 40 -13 12
-20 18 -10 18 32 1 114 19 147 80 146 56 -2 56 -3 49 -114 -8 -103 -7 -107 13
-42 11 39 20 90 19 115 0 25 6 45 14 45 8 0 35 6 59 12 41 11 44 4 51 -105 l7
-117 4 121 4 121 161 52 161 53 -13 -136 c-9 -86 -6 -150 8 -174 17 -29 22 3
23 143 l2 180 99 106 c107 116 108 115 78 -76 -31 -198 -32 -204 -67 -298 -18
-48 -32 -96 -32 -107 0 -34 103 129 130 206 54 152 133 286 152 257 11 -18 17
-20 18 -4 0 13 -10 30 -21 37 -28 17 -122 -70 -105 -97 7 -11 2 -14 -11 -6
-16 10 -23 -6 -23 -50 0 -36 -5 -60 -11 -54 -23 23 39 482 71 521 33 41 93
-172 109 -386 3 -39 16 -90 28 -114 18 -33 16 -71 -7 -169 -39 -167 -35 -192
11 -56 38 115 53 100 19 -19 -10 -38 -16 -72 -11 -77 5 -4 19 31 32 79 14 50
29 75 35 57 6 -16 22 -41 37 -56 15 -15 27 -41 27 -59 0 -17 5 -27 11 -20 7 6
-28 131 -77 278 -107 321 -125 397 -96 397 12 0 22 -13 22 -29 0 -37 158 -512
183 -551 23 -35 33 -67 -95 330 l-93 290 91 105 c204 237 242 284 209 258 -24
-19 -35 -21 -35 -5 0 17 -11 18 -37 3 -21 -11 -43 -15 -50 -10 -7 5 -9 3 -3
-4 5 -7 -15 -37 -45 -66 -30 -29 -58 -79 -62 -111 -8 -68 -53 -142 -70 -115
-30 48 -36 179 -10 207 15 15 80 90 144 167 79 92 133 140 167 143 59 7 110
45 94 72 -7 11 -26 7 -45 -10 -70 -60 -89 -59 -46 2 25 35 63 64 83 64 54 0
69 37 32 77 -47 53 120 219 186 184 60 -32 53 -62 -32 -133 -77 -65 -102 -252
-39 -293 17 -11 16 -14 -2 -15 -35 0 -31 -168 6 -270 15 -44 29 -95 29 -113 0
-17 13 -43 29 -56 18 -15 27 -56 24 -120 -5 -106 0 -108 117 -37 37 22 95 35
150 34 50 -2 74 -7 55 -12 -19 -5 -35 -17 -35 -27 0 -11 -16 -19 -36 -19 -22
0 -37 -16 -39 -45 -2 -24 -13 -48 -24 -51 -12 -4 -21 -29 -21 -54 0 -74 -30
-74 -31 0 -3 101 -108 172 -109 73 -1 -22 -6 -25 -15 -10 -15 23 -21 -58 -28
-353 -2 -110 -7 -134 -18 -90 -13 57 -14 57 -17 9 -1 -28 -13 -63 -27 -78 -20
-22 -19 -24 5 -9 29 16 42 20 112 35 18 3 41 21 51 40 25 43 75 42 91 -2 13
-34 44 -64 68 -65 24 0 65 165 66 269 1 59 9 103 17 98 8 -5 16 34 18 87 3
125 9 175 24 215 8 22 -2 38 -32 50 l-45 18 47 2 c46 1 47 3 33 146 -18 181 3
157 -219 245 -181 72 -188 76 -149 108 25 21 42 63 47 122 5 50 10 95 12 100
2 6 2 30 0 55 -2 25 5 45 15 45 11 0 30 27 44 59 13 33 31 58 38 55 8 -2 37
21 65 51 28 30 55 50 61 45 11 -12 18 35 18 130 0 73 68 -74 106 -229 l15 -59
-43 49 c-24 27 -37 38 -30 24 7 -14 2 -25 -11 -25 -13 0 -18 -14 -11 -32 9
-23 4 -29 -17 -21 -22 8 -30 -2 -30 -33 0 -82 -8 -112 -24 -102 -9 6 -17 3
-18 -6 -14 -214 -5 -301 37 -346 30 -32 44 -38 44 -19 1 25 4 24 22 -1 15 -22
18 -3 10 70 -8 74 -6 90 9 60 15 -31 17 -20 9 44 -5 46 -1 89 9 95 11 7 14 27
7 45 -9 23 -5 28 13 17 19 -12 22 -5 11 29 -8 26 -7 40 4 34 11 -7 15 16 11
52 -6 46 -2 56 12 36 15 -22 29 3 59 100 l38 128 -77 81 c-63 66 -70 80 -38
80 21 0 34 -6 30 -13 -5 -8 5 -19 21 -25 17 -7 30 -28 31 -47 1 -24 10 -16 30
24 25 52 27 53 18 10 -9 -43 -8 -45 11 -15 12 19 17 44 10 55 -6 10 2 40 20
67 17 26 26 61 19 78 -6 17 -3 37 9 44 11 7 15 27 8 45 -9 22 -5 28 11 18 29
-18 29 -7 0 57 -13 28 -32 51 -41 51 -10 0 -14 -8 -8 -17 6 -10 -25 -11 -68
-3 -64 12 -85 7 -113 -23 -24 -27 -26 -37 -7 -37 19 0 17 -10 -7 -37 -37 -40
-44 -72 -13 -53 12 7 19 1 15 -13 -3 -14 4 -26 15 -26 67 -4 93 -102 28 -102
-19 0 -31 6 -27 13 5 8 -5 19 -22 26 -18 6 -27 20 -21 29 6 10 -8 35 -32 55
-24 21 -36 26 -27 12 10 -17 5 -25 -12 -21 -22 4 -103 -28 -133 -54 -4 -3 13
-43 36 -90 l44 -85 -120 -120 -120 -120 -70 75 c-75 82 -77 120 -11 214 34 48
41 120 15 146 -6 6 -46 -26 -88 -69 -99 -101 -87 -105 -216 65 -183 242 -198
297 -105 374 42 35 39 81 -4 82 -31 0 -30 5 7 35 35 30 38 44 21 85 -12 28
-20 170 -18 329 3 270 -31 573 -76 675 -18 41 -19 41 -9 -10z m20 -1035 c-17
-28 16 -25 51 5 16 14 5 -2 -24 -35 -39 -45 -48 -70 -36 -100 31 -77 11 -89
-92 -50 -37 15 -48 28 -35 45 10 14 17 45 15 69 -2 25 4 40 14 34 9 -6 37 4
61 21 52 36 63 39 46 11z m-108 -200 c41 0 13 -65 -60 -140 l-78 -80 -12 50
c-19 76 52 200 103 181 15 -6 37 -11 47 -11z m149 -210 c129 -191 308 -393
334 -377 12 7 15 4 8 -8 -7 -11 5 -43 26 -70 l39 -49 -94 -95 -94 -94 -145
153 c-80 85 -192 225 -249 312 -104 160 -157 203 -78 64 l43 -76 -50 56 c-28
31 -51 70 -51 86 0 27 199 256 211 243 3 -3 47 -68 100 -145z m-113 -365 c36
-47 58 -85 49 -85 -19 1 -127 147 -127 172 0 8 3 11 6 6 4 -4 36 -46 72 -93z
m152 -180 c48 -57 51 -67 18 -49 -44 23 -121 125 -93 123 8 -1 42 -34 75 -74z
m156 -239 c-2 -6 -110 -55 -240 -108 -130 -54 -219 -84 -197 -68 21 17 45 30
52 30 95 0 231 265 174 338 -14 18 29 -16 95 -74 66 -58 118 -111 116 -118z
m-69 -101 c-16 -19 -83 -98 -149 -175 -65 -77 -204 -245 -307 -374 -194 -242
-210 -255 -451 -345 -126 -48 -204 -91 -163 -91 96 0 425 177 514 277 77 86
99 102 99 70 0 -155 -344 -375 -684 -437 -83 -16 -137 4 -93 33 18 12 7 15
-33 7 -33 -5 -49 -5 -35 2 14 6 25 24 25 39 0 16 12 23 30 16 17 -6 35 2 42
20 6 17 44 42 85 54 40 13 101 41 135 61 34 21 68 32 75 24 7 -7 13 4 13 24 0
20 6 31 13 24 7 -8 26 2 42 21 17 22 22 24 13 5 -8 -16 11 -7 42 20 103 91
130 120 130 139 0 10 11 30 25 45 14 14 43 53 63 86 21 33 50 67 65 76 15 9
27 32 27 51 0 19 11 47 25 62 20 22 19 24 -5 11 -23 -12 -25 -10 -7 10 13 13
19 37 14 51 -7 17 31 46 106 80 387 179 402 184 344 114z m-1566 -1056 c-28
-41 -51 -84 -51 -95 0 -11 -5 -16 -11 -9 -7 6 13 59 43 118 30 59 58 97 62 84
4 -12 -15 -56 -43 -98z"/>
<path d="M2059 1829 c-36 -43 -1 -99 63 -99 40 0 48 10 48 60 0 70 -66 94
-111 39z"/>
<path d="M2863 3659 c4 -25 19 -50 34 -55 18 -6 24 6 20 37 -4 25 -19 50 -34
55 -18 6 -24 -6 -20 -37z"/>
<path d="M3649 3531 c-7 -95 -9 -178 -3 -183 5 -6 17 67 25 161 7 95 9 178 3
183 -5 6 -17 -67 -25 -161z"/>
<path d="M5927 3365 c-35 -74 -101 -191 -147 -260 l-83 -125 -359 0 c-197 0
-358 -7 -358 -16 0 -48 58 -57 348 -49 396 11 406 4 605 -395 l65 -130 1 555
c0 305 -1 555 -4 555 -3 0 -34 -61 -68 -135z"/>
<path d="M2003 3297 c-3 -135 60 -466 106 -554 34 -67 59 -86 37 -30 -9 22 -5
29 10 19 13 -8 6 27 -16 78 -53 123 -101 311 -119 470 l-16 130 -2 -113z"/>
<path d="M2789 3098 c56 -35 211 -79 211 -59 0 9 -39 26 -87 38 -49 12 -105
28 -125 34 -36 11 -35 10 1 -13z"/>
<path d="M2780 2992 c0 -4 32 -27 70 -49 39 -23 70 -33 70 -23 0 11 -27 33
-59 49 -60 32 -81 37 -81 23z"/>
<path d="M9 2902 c-14 -13 -11 -134 4 -148 7 -7 31 1 54 17 23 16 56 28 72 28
21 -1 18 -7 -9 -18 -28 -12 -3 -17 78 -17 65 -1 127 -12 140 -26 17 -18 15
-20 -6 -8 -18 11 -23 9 -14 -6 7 -12 28 -17 46 -10 21 8 28 5 19 -9 -18 -29 7
-43 83 -49 34 -2 57 -12 51 -20 -5 -9 -20 -10 -33 -2 -13 7 -11 -2 4 -21 25
-31 31 -31 63 -2 27 24 39 26 50 7 9 -14 7 -19 -4 -12 -10 6 -31 -7 -45 -30
-22 -36 -22 -40 4 -30 39 15 65 -47 30 -69 -21 -13 -21 -16 0 -17 15 0 21 -8
15 -19 -6 -10 -3 -24 8 -30 10 -7 15 6 11 28 -5 26 3 41 21 41 16 0 23 -12 16
-30 -6 -16 -2 -30 9 -30 11 0 25 11 31 25 6 15 10 12 11 -9 1 -18 -7 -39 -18
-46 -12 -7 -15 -21 -9 -32 6 -10 20 -14 30 -7 10 6 13 -3 7 -20 -7 -17 -24
-31 -39 -31 -15 0 -32 -8 -38 -18 -6 -10 5 -14 25 -9 25 7 35 -2 35 -32 0 -26
-6 -34 -19 -21 -24 24 -53 26 -49 5 16 -70 -89 -226 -140 -209 -13 4 -23 -2
-23 -14 0 -12 10 -22 22 -22 15 0 14 -10 -3 -32 -15 -17 -45 -28 -68 -23 -34
6 -42 -2 -42 -43 1 -35 -11 -53 -39 -58 -22 -5 -49 -17 -60 -29 -14 -14 -12
-16 5 -7 14 8 25 5 25 -7 0 -29 -55 -26 -67 4 -5 14 -11 15 -11 4 -1 -12 -30
-19 -63 -17 -46 3 -59 -3 -51 -24 6 -15 3 -28 -6 -28 -10 0 -23 14 -29 30 -22
56 -93 -9 -93 -85 l0 -65 165 -3 c91 -2 176 -3 190 -2 37 1 31 -24 -16 -66
-46 -42 -62 -45 -324 -68 -8 0 -15 -116 -15 -256 l1 -255 68 140 c38 77 130
220 205 317 75 97 147 196 160 220 13 24 53 76 90 115 36 39 53 52 36 30 -45
-62 265 220 465 422 154 156 320 407 289 438 -12 13 -221 -282 -224 -317 -3
-41 -129 -178 -151 -164 -9 5 -89 -70 -180 -166 -91 -96 -161 -165 -157 -153
18 51 326 366 346 354 12 -7 15 -5 7 4 -8 9 0 33 18 53 30 34 29 41 -22 107
-30 39 -120 181 -200 316 l-145 244 -294 1 c-162 0 -298 -4 -303 -9z"/>
<path d="M1629 2745 c-78 -146 -297 -400 -695 -804 -713 -724 -1001 -1107
-912 -1214 50 -60 114 -22 100 59 -2 10 6 11 18 4 11 -7 15 -22 9 -32 -7 -11
-4 -31 7 -44 20 -25 3 -98 -22 -95 -38 4 -42 -1 -14 -21 24 -17 21 -19 -16
-11 -30 6 -43 2 -38 -14 5 -12 21 -21 36 -18 18 4 15 -4 -7 -22 -48 -37 -44
-102 8 -137 43 -28 43 -30 10 -126 -60 -175 -33 -144 35 40 81 221 160 379
280 558 51 76 92 153 92 172 0 76 47 161 112 201 37 23 68 51 68 62 0 11 10
13 23 5 14 -8 18 -5 10 8 -8 11 23 51 68 88 90 72 393 516 559 816 58 105 121
213 141 241 49 69 184 340 175 350 -4 4 -25 -26 -47 -66z m-292 -469 c-37 -47
-143 -161 -236 -253 -93 -93 -172 -179 -174 -191 -3 -12 -38 -107 -77 -212
-40 -104 -76 -203 -81 -218 -6 -15 -15 -23 -22 -16 -14 14 43 188 109 334 27
61 51 119 52 130 2 18 242 282 308 338 14 12 58 56 98 97 96 99 105 95 23 -9z
m-588 -687 c-42 -60 -90 -109 -107 -109 -18 0 -54 -6 -82 -12 -38 -8 -16 22
100 132 167 158 202 154 89 -11z m-473 -701 c-24 -25 -40 -27 -69 -11 -31 19
-32 22 -4 22 18 1 38 16 46 34 9 26 18 28 36 10 18 -18 16 -31 -9 -55z"/>
<path d="M5146 2776 c13 -18 101 -117 196 -220 193 -209 360 -428 459 -605
l67 -119 28 69 c98 237 88 302 -84 579 -51 83 -110 188 -133 234 l-40 84 -259
6 c-239 6 -256 3 -234 -28z"/>
<path d="M3645 2305 c-67 -168 -112 -324 -100 -337 5 -5 25 46 45 112 20 66
44 120 54 120 10 0 16 11 14 25 -2 14 2 43 11 65 8 22 24 65 36 96 11 30 16
60 11 65 -6 5 -38 -60 -71 -146z"/>
<path d="M5980 1864 c0 -9 -18 -36 -40 -59 -34 -36 -36 -52 -17 -99 12 -31 33
-96 48 -146 25 -89 25 -87 27 115 1 113 -2 205 -8 205 -5 0 -10 -7 -10 -16z"/>
<path d="M5100 1761 c0 -10 9 -24 19 -30 11 -7 48 -73 84 -147 36 -74 77 -141
92 -150 14 -9 21 -24 16 -33 -6 -9 3 -22 20 -29 19 -7 26 -22 17 -37 -8 -14
-7 -18 2 -10 9 8 28 -1 42 -20 32 -42 36 -72 8 -55 -33 20 -23 -3 14 -33 29
-23 31 -23 17 1 -11 18 -10 24 4 15 12 -7 19 -38 15 -68 -6 -61 152 -356 177
-331 9 8 9 -1 2 -20 -7 -19 -5 -34 6 -34 10 0 19 -11 21 -25 1 -14 19 -79 41
-145 22 -66 45 -145 52 -175 7 -34 25 -55 46 -56 32 0 32 -2 -1 -28 -32 -24
-34 -41 -18 -144 11 -64 20 -92 22 -62 1 30 10 55 21 55 10 0 30 32 44 70 20
55 54 94 58 65 0 -3 18 -54 39 -115 l40 -110 -6 140 c-7 156 -197 610 -232
553 -13 -21 -19 -20 -29 6 -7 19 -4 28 7 21 26 -16 25 3 -1 52 -12 21 -29 34
-39 28 -9 -6 -24 0 -32 13 -9 14 -6 18 9 9 38 -24 27 7 -49 132 -125 205 -308
439 -332 424 -14 -9 -17 -5 -8 9 9 14 -26 79 -80 153 -98 134 -108 144 -108
111z"/>
<path d="M5380 1129 c11 -29 16 -60 10 -69 -6 -10 -2 -23 9 -30 13 -7 8 -31
-12 -61 -25 -39 -26 -47 -4 -39 19 7 28 -3 28 -30 0 -22 -9 -40 -20 -40 -12 0
-9 -8 6 -18 14 -9 26 -23 26 -32 0 -9 -12 -23 -26 -32 -21 -14 -20 -17 5 -18
37 0 65 -139 63 -310 -1 -55 7 -111 18 -124 11 -13 15 -34 8 -45 -8 -12 -3
-21 9 -21 12 0 18 -7 12 -17 -6 -9 18 -47 52 -84 l62 -68 -10 118 c-7 83 -21
125 -47 144 -33 24 -33 27 -3 27 41 0 41 -5 3 180 -51 247 -92 380 -115 367
-12 -8 -14 -3 -6 10 16 26 -40 216 -69 234 -11 6 -10 -12 1 -42z"/>
<path d="M2803 648 c-15 -17 -23 -57 -19 -88 5 -34 1 -53 -10 -46 -12 7 -16
-28 -10 -93 6 -61 3 -93 -7 -78 -10 16 -15 -19 -12 -88 3 -63 -2 -115 -10
-115 -8 0 -14 -16 -13 -35 0 -19 5 -25 10 -13 5 12 30 18 54 14 48 -10 115
104 121 203 2 31 13 43 33 37 21 -7 19 0 -6 20 -23 19 -29 35 -15 43 12 8 17
33 11 57 -5 24 -14 70 -19 101 -16 100 -61 134 -108 81z"/>
<path d="M4833 515 c-19 -63 -70 -184 -114 -269 -88 -171 -92 -182 -49 -146
25 21 30 18 32 -13 3 -64 113 196 148 349 41 179 28 236 -17 79z"/>
</g>
</svg>
