<?xml version="1.0" standalone="no"?>
<!DOCTYPE svg PUBLIC "-//W3C//DTD SVG 20010904//EN"
 "http://www.w3.org/TR/2001/REC-SVG-20010904/DTD/svg10.dtd">
<svg version="1.0" xmlns="http://www.w3.org/2000/svg"
 width="300.000000pt" height="293.000000pt" viewBox="0 0 300.000000 293.000000"
 preserveAspectRatio="xMidYMid meet">
<metadata>
Created by potrace 1.10, written by Peter Selinger 2001-2011
</metadata>
<g transform="translate(0.000000,293.000000) scale(0.050000,-0.050000)"
fill="#000000" stroke="none">
<path d="M660 5830 c-38 -15 -57 -28 -42 -28 19 -2 15 -14 -15 -39 -24 -21
-43 -53 -43 -72 0 -18 -7 -29 -15 -24 -20 12 -19 -90 1 -122 9 -14 11 -34 4
-45 -16 -25 7 -100 29 -100 10 0 13 20 9 45 l-9 45 19 -44 c18 -40 14 -67 -34
-206 -6 -17 -16 0 -22 40 -9 50 -23 71 -52 75 -40 5 -40 5 0 -15 33 -17 29
-19 -26 -13 -48 4 -63 -1 -56 -20 19 -48 -73 -94 -106 -52 -24 30 -26 30 -16
2 7 -20 -1 -38 -17 -45 -16 -6 -29 -21 -29 -34 0 -16 9 -15 31 3 26 22 33 19
42 -16 6 -23 32 -47 57 -53 25 -7 62 -18 80 -25 32 -12 32 -9 2 49 -38 75 -41
126 -7 113 37 -14 163 -281 146 -308 -11 -17 -22 -17 -43 0 -23 20 -28 15 -28
-26 0 -42 -32 -75 -72 -75 -17 0 -7 52 22 107 49 94 40 107 -78 110 -60 2
-160 22 -223 43 -157 54 -156 55 -87 -75 96 -180 220 -365 245 -365 29 0 97
-117 82 -141 -6 -10 3 -45 21 -78 26 -51 26 -61 3 -61 -35 0 -99 93 -87 126 4
13 -20 57 -54 97 -131 153 -152 181 -152 198 0 9 -31 69 -70 133 l-70 116 0
-120 c1 -136 18 -177 67 -159 18 8 33 4 33 -7 0 -11 -11 -24 -24 -29 -13 -4
12 -43 60 -91 80 -80 104 -124 68 -124 -27 0 -79 46 -143 128 l-61 78 0 -69
c0 -38 11 -81 25 -96 20 -21 20 -24 0 -13 -15 9 -25 3 -25 -14 0 -19 22 -29
65 -29 105 0 135 -21 135 -97 0 -75 -13 -85 -50 -35 -28 38 -78 18 -62 -25 6
-16 -2 -28 -19 -28 -16 0 -29 11 -28 25 1 39 51 96 70 80 10 -8 6 1 -9 20 -15
19 -42 34 -59 34 -28 -2 -27 -4 3 -16 33 -13 33 -17 -5 -58 -48 -51 -54 -125
-11 -125 17 0 30 -17 30 -39 0 -21 9 -44 20 -51 11 -7 34 -44 49 -81 16 -38
38 -69 50 -69 33 0 25 -100 -9 -113 -39 -15 -90 27 -84 70 4 34 -7 43 -51 43
-17 0 -28 -40 -32 -120 l-5 -120 69 0 c43 0 73 11 80 30 15 39 53 39 53 -1 0
-16 -20 -38 -43 -46 -34 -13 -38 -20 -17 -33 17 -11 31 -8 36 7 4 13 14 19 21
15 8 -5 16 15 19 44 6 74 36 97 63 46 12 -23 15 -42 5 -42 -10 0 -28 -22 -40
-50 -13 -27 -37 -50 -55 -50 -17 0 -26 -9 -19 -20 7 -12 21 -15 31 -9 11 6 19
2 19 -8 0 -11 11 -33 25 -48 115 -126 143 -164 95 -125 -73 59 -180 115 -182
96 -2 -9 -1 -24 0 -33 2 -10 -10 -13 -26 -7 -30 12 -31 -18 -1 -93 10 -25 6
-34 -13 -30 -68 14 -152 -86 -93 -110 20 -8 20 -10 0 -11 -41 -3 -29 -50 20
-80 85 -52 235 -170 235 -186 0 -36 -57 -11 -165 74 -120 95 -137 91 -83 -16
52 -103 90 -136 136 -121 36 11 38 8 16 -18 -56 -68 -8 -95 91 -51 50 22 155
46 233 53 l142 13 -74 46 c-155 96 -206 384 -86 484 26 21 27 16 8 -38 -23
-66 -10 -192 22 -212 12 -7 15 12 8 47 -7 32 -4 74 7 93 13 24 18 10 18 -57 0
-151 126 -265 336 -304 l76 -14 -42 42 c-24 24 -43 52 -43 63 0 12 -23 30 -52
41 -41 15 -47 26 -30 46 17 21 3 46 -60 110 -88 90 -97 153 -28 191 56 31 71
56 58 97 -6 21 0 35 16 35 36 0 96 104 96 166 0 68 26 74 303 74 132 0 237 7
233 15 -4 8 -19 38 -33 67 -24 47 -19 68 66 236 51 101 87 192 80 203 -6 10
-2 19 10 19 11 0 52 63 91 140 l71 140 114 0 115 0 60 114 c108 207 340 425
454 427 39 1 36 6 -25 39 -146 77 -151 152 -20 284 42 42 69 76 60 76 -9 0
-22 -9 -29 -20 -7 -11 -33 -20 -59 -20 -26 0 -52 -14 -59 -31 -6 -17 -20 -26
-30 -20 -11 6 -25 3 -32 -9 -7 -11 -30 -20 -51 -20 -22 0 -39 -9 -39 -20 0
-11 -13 -20 -28 -20 -18 0 -25 14 -19 37 7 27 -3 41 -36 50 -83 22 -99 15 -56
-28 57 -57 47 -150 -16 -147 -25 0 -45 -6 -45 -15 0 -10 14 -17 30 -17 17 0
30 -9 30 -20 0 -11 -9 -20 -20 -20 -26 0 -26 -74 0 -90 11 -7 14 -36 7 -66 -8
-29 -14 -93 -15 -143 -2 -77 -8 -91 -42 -91 -52 0 -66 84 -19 118 29 22 31 38
13 123 -12 54 -17 105 -11 114 5 9 12 78 15 154 l4 138 -54 -38 c-30 -22 -64
-39 -76 -39 -30 0 -28 -17 7 -51 35 -36 -13 -149 -63 -149 -17 0 -52 -22 -78
-50 -25 -27 -55 -50 -65 -50 -11 0 -15 -18 -9 -40 6 -22 1 -40 -12 -40 -12 0
-22 20 -23 45 0 25 -13 68 -29 95 -34 60 -37 80 -10 80 11 0 20 -13 20 -29 0
-16 8 -33 17 -39 10 -6 11 25 3 69 -8 43 -11 80 -7 82 4 1 17 3 30 5 28 3 45
92 17 92 -11 0 -38 18 -61 41 -60 60 -199 19 -199 -59 0 -47 -95 -86 -144 -60
-42 22 -44 22 -19 -9 16 -18 40 -33 55 -33 16 0 28 -13 28 -30 0 -16 -6 -30
-13 -30 -19 0 -127 124 -127 145 0 9 -7 13 -16 7 -9 -5 -27 9 -41 31 -20 31
-20 38 -1 26 15 -10 19 -7 10 8 -8 13 -27 23 -42 23 -16 0 -38 18 -50 40 -21
40 -15 40 774 40 2606 -1 3529 5 3512 22 -10 10 -77 23 -147 28 -71 5 -156 14
-189 19 -33 6 -118 18 -190 26 -71 8 -127 24 -123 35 3 10 -5 23 -18 27 -14 5
-19 -1 -11 -14 9 -14 3 -18 -17 -11 -17 7 -31 20 -31 30 0 24 -74 23 -89 -1
-7 -10 -27 -17 -46 -16 -19 1 -56 -5 -83 -14 -32 -10 -43 -8 -33 7 7 12 0 22
-16 22 -16 0 -33 -8 -36 -18 -4 -10 -54 -8 -117 5 -122 25 -2278 33 -2399 9
-44 -9 -80 -5 -99 10 -20 17 -25 17 -16 1 8 -13 0 -28 -17 -35 -17 -6 -26 -4
-20 6 6 10 -10 23 -34 29 -74 20 -95 15 -93 -22 1 -21 5 -25 11 -10 12 29 67
34 67 6 0 -66 -558 -72 -620 -6 -48 52 -149 58 -260 15z m162 -155 c16 -14 65
-101 109 -195 43 -93 90 -179 103 -190 23 -19 31 -163 27 -555 l-1 -155 -67 0
c-107 0 -118 44 -110 427 5 230 0 335 -15 341 -12 5 -52 66 -87 135 -36 70
-78 141 -93 159 -50 57 71 87 134 33z m714 -140 c8 -40 -49 -70 -78 -41 -28
28 1 89 39 82 18 -4 36 -22 39 -41z m-123 -256 c33 -143 33 -212 0 -225 -49
-19 -84 52 -89 182 -8 201 46 227 89 43z m410 -38 c26 -45 27 -56 6 -48 -19 7
-25 -2 -20 -30 5 -22 -5 -51 -20 -64 -38 -31 -41 21 -4 59 20 21 17 24 -15 18
-25 -4 -38 -21 -34 -41 3 -22 -4 -31 -21 -24 -30 12 -45 129 -16 129 10 0 24
-9 31 -20 24 -39 51 -19 38 30 -17 68 15 63 55 -9z m-173 -291 c0 -26 -16 -42
-45 -46 -45 -7 -65 49 -31 83 27 27 76 2 76 -37z m-130 -91 c0 -46 -13 -95
-30 -112 -33 -33 -43 52 -17 148 19 73 47 52 47 -36z m-1224 -20 c1 -65 -24
-79 -44 -24 -6 19 -17 44 -22 56 -6 11 6 22 27 23 28 2 37 -11 39 -55z m454
18 c12 -11 -8 -17 -50 -14 -84 5 -104 14 -89 38 13 21 108 4 139 -24z m-270
-88 c11 -28 28 -46 38 -40 10 6 14 -7 8 -29 -17 -65 -59 -43 -48 25 1 8 -7 15
-18 15 -11 0 -20 18 -20 40 0 55 17 50 40 -11z m240 -270 c0 -146 8 -239 20
-239 11 0 20 -9 20 -20 0 -11 -18 -20 -40 -20 -30 0 -40 14 -41 55 0 30 -6
138 -12 239 -12 190 -2 258 33 236 12 -7 20 -112 20 -251z m580 66 c0 -17 -12
-25 -28 -19 -15 6 -36 2 -47 -9 -13 -13 -24 -9 -31 11 -8 20 -3 26 17 19 20
-8 29 3 29 33 0 38 5 41 30 20 17 -14 30 -38 30 -55z m-945 -180 c66 -76 85
-119 40 -92 -18 11 -18 6 1 -18 15 -18 41 -27 58 -21 24 10 28 3 16 -34 -12
-37 -8 -44 17 -34 18 7 31 6 29 -2 -8 -27 46 -104 73 -104 15 0 27 -20 27 -45
0 -25 6 -65 14 -90 24 -74 -44 -83 -101 -13 -26 32 -48 69 -48 83 -1 14 -10
25 -22 25 -11 0 -18 24 -15 54 8 74 -88 131 -104 62 -10 -41 -12 -41 -47 -7
-19 20 -31 48 -25 63 6 16 -1 22 -19 15 -18 -7 -36 7 -48 36 -10 26 -19 39
-20 29 0 -10 -19 3 -41 28 -52 59 -37 77 18 22 23 -23 51 -42 62 -42 11 0 20
-13 20 -30 0 -16 11 -28 25 -25 14 3 23 -6 20 -20 -3 -14 4 -25 15 -25 38 0
29 136 -12 182 -30 33 -38 78 -13 78 8 0 44 -33 80 -75z m821 -30 c5 -45 -1
-55 -35 -55 -47 0 -72 43 -53 91 19 51 81 25 88 -36z m-656 -35 c25 -21 53
-34 63 -28 9 6 17 1 17 -9 0 -71 -106 -44 -129 32 -17 55 -10 56 49 5z m316
-204 c35 -35 29 -96 -11 -108 -19 -6 -52 -20 -72 -31 -43 -23 -64 -10 -41 26
9 15 17 43 19 63 4 62 65 90 105 50z m-501 -181 c-5 -14 6 -38 23 -55 18 -16
33 -41 34 -55 1 -14 3 -38 5 -55 2 -17 23 -30 47 -30 34 0 39 -5 20 -24 -27
-27 -124 50 -124 97 0 15 -9 27 -20 27 -11 0 -20 22 -20 48 0 27 -11 53 -25
59 -14 5 -4 11 22 11 29 1 43 -7 38 -23z m384 -161 c17 -28 24 -58 16 -66 -19
-19 -72 28 -107 95 -39 77 47 49 91 -29z m-114 -103 c-18 -28 -45 86 -30 126
10 24 17 13 28 -37 7 -38 8 -78 2 -89z m-135 -71 c0 -59 -82 -84 -102 -31 -20
51 8 94 57 87 33 -4 45 -19 45 -56z m-275 -71 c7 -54 -18 -64 -53 -21 -18 21
-16 30 9 40 18 7 26 22 17 37 -8 14 -7 18 3 9 9 -8 20 -38 24 -65z m133 -102
c7 -18 3 -24 -10 -15 -13 7 -29 3 -36 -9 -26 -41 -187 -38 -193 5 -5 28 0 31
16 15 27 -27 62 -31 46 -5 -14 23 10 31 98 35 44 3 72 -7 79 -26z"/>
<path d="M5961 5515 c-1 -190 -2 -363 -1 -385 0 -22 0 -161 -1 -310 -1 -148
-2 -288 -1 -310 0 -22 0 -134 0 -250 0 -115 0 -219 1 -230 1 -11 5 -58 9 -105
8 -87 -52 -129 -80 -56 -6 16 -24 24 -40 18 -20 -8 -25 -2 -16 22 7 18 18 28
24 22 13 -13 60 52 57 79 -4 26 -57 26 -85 1 -13 -12 -19 -32 -13 -46 5 -14
-1 -25 -13 -25 -12 0 -22 10 -22 21 0 12 -9 16 -20 9 -12 -7 -16 -20 -10 -30
16 -26 -12 -80 -42 -80 -15 0 -28 13 -28 29 0 18 12 25 30 18 22 -8 27 -2 18
21 -7 17 -23 32 -35 33 -13 0 -7 9 12 21 21 12 30 30 21 44 -28 44 -22 69 14
60 19 -5 42 0 49 12 8 13 -1 22 -20 22 -21 0 -29 11 -22 30 29 74 -34 29 -136
-98 -81 -101 -115 -102 -63 -3 16 30 25 81 21 112 -4 37 4 60 25 68 24 9 28 2
19 -34 -11 -43 -10 -44 18 -6 34 46 9 69 -59 56 -31 -6 -51 3 -60 26 -11 30
-8 31 18 9 26 -22 36 -22 56 0 19 20 19 23 -1 12 -14 -8 -25 -5 -25 5 0 11
-11 24 -25 29 -14 4 -9 6 10 3 19 -3 35 0 35 6 0 14 -66 64 -86 64 -9 1 -11
-8 -4 -19 7 -12 -9 -10 -39 3 -28 13 -46 28 -41 34 18 18 131 20 120 2 -6 -9
1 -23 15 -31 14 -8 19 -7 11 1 -21 23 20 91 53 91 16 0 42 14 60 31 17 18 31
24 31 15 0 -9 8 -4 18 12 14 21 21 18 32 -17 13 -42 -50 -134 -75 -110 -4 5
-8 -4 -8 -20 0 -16 9 -24 20 -17 12 8 15 -1 7 -21 -7 -18 -3 -33 9 -33 12 0
17 18 11 40 -6 22 -3 40 6 40 10 0 20 -13 24 -28 3 -15 30 12 61 61 30 49 46
84 35 77 -11 -7 -20 1 -20 18 0 16 11 37 25 46 45 29 81 84 51 78 -94 -18
-213 -65 -253 -100 -44 -40 -48 -40 -72 -7 -14 19 -30 35 -36 35 -6 0 -9 -16
-6 -35 6 -37 -23 -85 -51 -85 -10 0 -18 14 -18 30 0 17 8 30 18 30 10 0 23 23
30 50 13 50 62 63 207 51 33 -3 42 4 33 27 -9 23 0 28 42 20 56 -10 150 65
150 118 -1 16 -6 15 -18 -3 -12 -19 -21 -21 -31 -5 -16 26 -91 30 -91 4 0 -30
-76 -39 -112 -13 -66 48 -20 135 67 127 60 -5 75 1 82 33 4 22 21 60 38 86 45
68 56 228 16 212 -17 -6 -31 -23 -31 -37 0 -39 -74 -122 -93 -104 -8 9 -5 33
9 55 31 50 30 60 -4 47 -15 -6 -35 0 -43 14 -11 18 1 21 48 12 47 -10 63 -6
63 16 0 15 16 37 35 48 56 33 0 25 -122 -17 -62 -21 -113 -35 -113 -29 0 5
-18 0 -41 -12 -22 -12 -35 -31 -28 -41 6 -10 2 -19 -10 -19 -11 0 -21 9 -21
20 0 12 -22 17 -48 12 -30 -5 -53 2 -59 18 -8 19 6 27 47 26 32 -1 70 7 84 19
14 11 44 26 66 32 24 7 19 9 -15 5 -30 -4 -55 1 -55 10 0 21 80 65 81 44 0 -9
13 0 28 20 17 23 32 29 40 15 17 -27 51 -27 51 0 0 12 -11 15 -25 7 -14 -8
-10 2 7 24 18 21 29 49 24 63 -5 14 6 25 24 25 24 0 31 -11 22 -35 -11 -33
-11 -33 15 0 15 19 31 32 35 30 5 -3 2 3 -6 14 -9 10 -3 33 12 50 15 17 33 54
39 81 7 28 7 39 1 25 -6 -14 -20 -25 -31 -25 -11 0 -14 9 -7 20 7 11 3 20 -9
20 -11 0 -21 9 -21 21 0 116 -173 179 -244 89 -21 -28 -48 -45 -58 -39 -10 6
-24 -3 -31 -21 -7 -18 -24 -28 -39 -22 -15 6 -32 2 -37 -7 -6 -10 -1 -21 12
-25 38 -13 4 -75 -52 -96 -28 -10 -51 -29 -51 -41 0 -12 -9 -16 -21 -8 -11 7
-33 2 -49 -11 -16 -13 -39 -17 -53 -8 -16 10 -20 4 -11 -19 19 -50 -17 -40
-42 12 -23 49 -24 44 -32 -123 -3 -69 -62 -101 -106 -56 -29 29 -31 41 -11 74
33 51 32 80 -2 80 -18 0 -24 16 -18 48 5 26 -1 53 -13 61 -14 8 -17 0 -10 -23
11 -34 10 -34 -18 -1 -15 19 -38 35 -50 35 -12 0 -32 16 -44 35 -19 29 -21 26
-11 -19 16 -77 -19 -156 -70 -156 -38 0 -41 8 -29 80 15 87 3 98 -53 47 -35
-31 -37 -31 -37 2 0 24 -10 31 -31 23 -17 -6 -26 -4 -20 6 6 10 -2 23 -18 29
-19 7 -31 -5 -35 -33 -8 -55 -61 -58 -75 -3 -10 36 -14 37 -41 10 -42 -43 -38
-108 8 -127 38 -15 38 -16 0 -44 -36 -26 -35 -27 10 -16 37 10 45 6 34 -16 -8
-15 -2 -12 14 7 16 19 53 35 82 35 30 0 50 7 45 16 -15 23 22 76 40 57 9 -8 3
-24 -14 -34 -21 -14 -22 -18 -3 -19 15 0 21 -9 14 -20 -7 -11 1 -14 19 -8 37
15 41 -14 6 -50 -20 -22 -16 -24 25 -14 28 6 39 6 25 0 -14 -6 -19 -21 -12
-33 8 -12 4 -15 -10 -7 -14 9 -18 3 -11 -17 7 -17 20 -26 30 -20 10 6 18 -3
18 -21 0 -18 9 -27 20 -20 11 7 14 -1 8 -19 -7 -17 -22 -25 -33 -18 -13 8 -15
4 -6 -11 10 -17 22 -18 40 -3 25 21 51 9 51 -24 0 -9 -9 -12 -20 -5 -11 7 -14
-1 -8 -19 7 -17 22 -26 35 -19 13 6 7 -2 -13 -18 -20 -17 -27 -33 -16 -37 25
-8 5 -97 -22 -97 -10 0 -13 9 -6 20 7 11 -1 14 -19 8 -17 -7 -31 -2 -31 10 0
12 8 22 17 22 9 0 16 13 16 28 0 16 -12 24 -26 18 -15 -6 -22 -18 -16 -28 7
-10 -4 -24 -24 -32 -20 -8 -38 -3 -43 11 -34 102 -185 190 -179 104 2 -21 9
-35 15 -31 7 4 25 -1 41 -11 23 -15 21 -18 -12 -19 -30 0 -42 -15 -45 -58 -3
-46 3 -57 31 -53 19 3 41 -3 48 -14 8 -13 26 -12 50 2 33 19 33 22 3 22 -24 1
-31 12 -23 36 8 27 6 29 -9 7 -12 -16 -34 -22 -54 -15 -30 12 -29 17 12 51 48
39 117 9 88 -38 -7 -12 -6 -20 4 -18 52 9 78 -7 82 -53 2 -30 -5 -46 -16 -39
-11 7 -20 -4 -21 -24 -1 -67 -116 -173 -155 -143 -19 14 -12 1 14 -29 41 -45
43 -54 15 -54 -18 0 -33 -9 -33 -20 0 -54 -40 -11 -43 45 -2 44 -5 51 -11 22
-5 -24 -23 -49 -42 -56 -18 -7 -27 -7 -19 0 7 8 -1 28 -19 45 -21 21 -24 35
-9 40 39 13 26 62 -15 54 -39 -7 -39 57 0 81 10 6 18 22 17 35 0 13 -9 8 -21
-11 -11 -20 -29 -30 -40 -24 -10 7 -17 1 -13 -12 3 -13 -15 -26 -40 -28 -25
-2 -45 3 -45 12 0 10 14 17 30 17 17 0 30 8 30 17 0 10 -25 14 -55 10 -30 -4
-42 -1 -25 6 67 30 116 164 51 140 -12 -5 -18 -20 -15 -34 5 -20 0 -20 -22 -3
-15 13 -33 18 -40 11 -7 -7 -9 7 -5 30 5 23 -4 55 -20 71 -16 16 -29 39 -29
52 0 12 -9 17 -20 10 -11 -7 -34 -4 -52 6 -22 12 -26 23 -11 32 11 7 16 26 10
43 -7 19 2 30 26 31 20 0 26 6 13 11 -13 5 -19 23 -13 39 7 17 21 23 35 14 13
-9 6 0 -16 20 -33 31 -35 40 -11 55 24 14 22 22 -11 48 -22 16 -33 30 -24 30
9 1 -9 23 -40 49 -77 67 -86 53 -86 -129 0 -128 -6 -159 -30 -159 -24 0 -30
32 -30 169 0 143 -5 168 -30 158 -16 -6 -30 -29 -30 -50 0 -22 -9 -34 -20 -27
-12 7 -15 23 -7 34 8 14 4 16 -10 8 -13 -8 -19 -22 -14 -31 6 -9 -5 -29 -23
-44 -23 -18 -29 -19 -19 -2 40 65 -67 16 -127 -59 -37 -45 -57 -76 -44 -68 13
8 24 5 24 -8 0 -12 -24 -18 -55 -14 -43 6 -55 18 -54 58 0 27 -10 49 -22 49
-12 0 -18 -20 -13 -46 11 -60 -47 -65 -66 -7 -14 45 -42 52 -57 15 -8 -20 -10
-20 -11 0 -1 14 -15 25 -32 25 -16 0 -29 7 -28 15 7 40 -5 52 -23 25 -17 -26
-24 -25 -49 9 -26 34 -30 34 -30 5 0 -40 -9 -42 -64 -12 -30 16 -37 16 -27 0
24 -39 -25 -24 -76 24 -80 73 -130 65 -137 -22 l-7 -74 -38 75 c-36 70 -40 73
-75 42 -34 -31 -36 -31 -37 5 -2 36 -3 36 -19 -2 -16 -37 -17 -36 -20 10 -2
28 -8 39 -13 25 -15 -36 -47 -31 -47 7 0 21 -11 28 -31 20 -18 -6 -26 -3 -19
8 7 11 27 20 45 20 17 0 26 5 20 12 -25 24 -97 -17 -125 -72 -49 -95 -38 -184
30 -250 33 -32 60 -48 60 -36 0 45 180 91 317 82 132 -10 167 -22 653 -228
167 -71 194 -77 380 -78 199 -1 203 -2 193 -70 -5 -31 -79 -24 -98 10 -13 24
-30 26 -86 10 -138 -40 -265 -25 -361 41 l-88 61 70 -63 c123 -110 267 -212
388 -275 l118 -61 34 42 c43 53 100 34 100 -34 0 -43 20 -60 125 -108 129 -59
189 -112 239 -209 l28 -56 39 71 c22 42 53 71 75 71 33 0 33 3 7 30 -40 40
-19 108 40 122 84 22 142 -69 83 -128 -19 -19 -14 -24 20 -24 24 0 44 7 44 15
0 8 45 91 100 185 66 112 96 182 88 208 -9 27 -5 35 15 27 25 -9 94 90 331
480 27 46 66 61 66 26 0 -20 -368 -625 -493 -811 -87 -129 -86 -130 44 -130
79 0 113 -8 122 -30 6 -16 19 -25 29 -19 10 6 18 -2 18 -19 0 -17 41 -110 91
-206 75 -143 88 -182 72 -218 -19 -41 -11 -49 90 -98 60 -30 147 -89 192 -132
66 -64 104 -82 199 -97 149 -24 155 -29 152 -112 -3 -75 -9 -78 -81 -51 -131
50 -195 45 -195 -13 0 -30 -13 -79 -28 -108 l-27 -52 102 -14 c57 -7 122 -18
145 -23 29 -8 41 -1 41 21 0 17 -7 31 -16 31 -9 0 -17 18 -17 40 0 86 56 40
63 -51 7 -89 6 -92 -43 -80 -120 27 -400 37 -400 14 0 -13 -14 -23 -31 -23
-17 0 -26 9 -19 20 8 13 -44 19 -144 18 l-156 -2 127 -28 c368 -80 683 -224
683 -310 0 -48 -10 -48 -87 4 -60 41 -60 39 9 -25 46 -43 73 -87 75 -122 3
-60 -19 -71 -55 -27 -13 15 -50 39 -82 52 -33 14 -54 34 -47 45 7 12 4 15 -8
8 -12 -7 -83 9 -158 35 -76 27 -177 59 -227 72 -49 12 -107 27 -128 34 -35 10
-35 6 7 -62 43 -70 45 -107 9 -200 -9 -23 0 -32 31 -32 24 0 38 -9 31 -20 -7
-11 -3 -20 9 -20 11 0 21 -9 21 -20 0 -11 -13 -20 -29 -20 -19 0 -25 -12 -17
-33 10 -27 3 -31 -39 -20 -37 9 -54 4 -63 -20 -33 -85 -26 -1 8 114 22 71 40
130 40 132 0 1 -34 -10 -75 -24 -41 -15 -127 -28 -191 -28 -110 -1 -114 -3
-94 -42 13 -24 17 -77 9 -130 -16 -105 -3 -109 91 -29 39 33 77 60 85 60 8 0
15 25 15 55 1 43 5 48 20 25 19 -30 31 -7 22 45 -1 8 12 15 28 15 61 0 0 -222
-71 -261 -55 -29 -206 -23 -250 10 -22 17 -56 30 -78 30 -124 2 -250 167 -254
332 -1 66 -6 99 -11 74 -5 -25 -14 -45 -20 -45 -15 0 -191 142 -210 169 -8 12
-19 6 -27 -14 -12 -32 35 -84 183 -200 35 -27 44 -47 30 -61 -14 -14 -13 -33
2 -62 13 -23 21 -44 19 -47 -1 -3 -2 -12 -1 -20 1 -8 9 8 18 35 15 46 16 44
18 -21 2 -70 46 -131 168 -231 l50 -42 12 57 c6 31 24 57 40 57 24 0 24 -15 2
-105 -15 -58 -31 -123 -35 -145 -9 -40 -9 -40 -25 0 -51 121 -115 155 -137 73
-4 -18 -10 -6 -11 27 -2 33 -20 83 -42 110 -22 28 -39 73 -40 100 0 36 -40 85
-142 178 -121 109 -139 134 -129 177 13 49 13 49 -41 -8 -29 -31 -42 -41 -28
-22 21 30 20 42 -9 74 -42 46 -25 138 19 101 14 -12 22 -41 18 -66 -8 -41 -8
-42 10 -4 29 60 26 183 -6 259 -16 37 -24 73 -17 79 6 6 -4 17 -22 24 -18 7
-33 22 -33 34 0 12 -29 52 -64 88 -35 36 -54 66 -43 66 11 0 36 -17 54 -37 19
-21 54 -35 79 -33 24 3 29 1 10 -4 -29 -7 -28 -17 15 -80 52 -76 89 -185 89
-266 0 -29 7 -40 15 -27 11 16 50 3 130 -44 l115 -68 0 48 c0 27 9 54 20 61
11 7 20 -9 20 -36 0 -169 397 -331 627 -255 97 32 95 79 -8 212 -67 87 -169
173 -130 111 6 -10 -7 -14 -29 -8 -40 11 -40 9 4 -79 26 -49 53 -86 61 -81 37
21 10 -57 -36 -103 -72 -72 -88 -64 -93 44 -9 234 -14 279 -36 335 -85 218
-111 750 -37 750 24 0 39 4 34 10 -27 26 -213 -16 -205 -48 5 -17 -3 -8 -17
21 -14 29 -43 74 -65 100 -22 25 -26 36 -10 24 17 -12 72 -27 124 -34 l94 -12
6 85 c5 75 12 85 62 90 85 10 119 -29 111 -128 l-7 -83 90 -21 c50 -12 105
-27 122 -34 73 -28 54 56 -54 251 l-112 199 -101 0 c-67 0 -114 -11 -138 -33
-34 -31 -37 -31 -37 0 0 24 -18 33 -66 33 -89 0 -173 -132 -136 -213 13 -30
14 -45 2 -37 -11 7 -20 1 -20 -12 0 -14 -22 -4 -50 22 -39 37 -45 52 -26 74
12 16 14 27 4 25 -54 -11 -64 4 -53 82 16 118 -70 199 -262 247 -34 8 -52 6
-45 -5 33 -54 -52 -122 -101 -81 -34 29 -34 48 1 83 25 25 17 29 -52 32 -82 3
-121 26 -292 173 l-93 80 66 -85 c37 -47 79 -85 94 -85 14 0 33 -11 41 -23 10
-17 3 -20 -24 -10 -33 12 -34 10 -6 -12 18 -14 33 -34 35 -45 2 -11 10 -20 19
-20 9 0 65 -40 124 -90 60 -49 100 -77 91 -62 -9 16 19 -8 62 -51 44 -44 131
-110 194 -145 63 -36 154 -108 203 -159 l88 -93 -53 -7 c-39 -5 -45 -11 -23
-24 28 -19 25 -19 -139 -29 -31 -2 -67 -10 -80 -18 -13 -8 -23 -6 -23 5 0 26
54 44 90 30 16 -6 30 -2 30 8 0 21 -93 45 -174 45 -26 0 -44 7 -38 16 5 9 -48
45 -120 80 -78 39 -136 82 -147 109 -9 25 -31 86 -49 135 -38 110 -153 305
-234 400 -55 65 -54 61 12 -46 51 -81 68 -129 60 -160 -10 -34 -8 -37 8 -15
15 23 26 8 46 -67 15 -59 44 -109 71 -127 47 -31 66 -100 20 -72 -14 9 -8 -10
12 -41 25 -38 32 -73 23 -109 l-13 -53 -39 47 c-21 26 -38 69 -38 95 0 26 -9
48 -20 48 -11 0 -21 34 -22 75 -4 133 -34 191 -36 70 -1 -62 -20 -143 -44
-195 -53 -112 -92 -142 -48 -37 41 97 60 321 33 387 -16 40 -18 29 -9 -53 7
-68 0 -135 -20 -195 -17 -51 -26 -92 -19 -92 7 0 -5 -14 -26 -31 -22 -18 -25
-25 -9 -17 17 8 4 -14 -29 -49 -76 -81 -99 -80 -64 4 79 187 84 490 11 593
-18 24 -19 22 -8 -10 47 -135 16 -523 -32 -400 -14 37 -15 37 -17 3 0 -20 -20
-63 -42 -95 -23 -32 -33 -58 -22 -58 12 0 26 9 33 20 7 12 21 15 32 9 10 -7
17 -5 13 5 -3 9 4 16 15 16 30 0 12 -54 -35 -105 -23 -25 -34 -45 -23 -46 10
0 1 -13 -21 -30 -44 -33 -17 -38 58 -9 28 10 51 14 51 9 0 -43 -76 -171 -173
-291 l-115 -142 -137 13 c-177 18 -495 127 -495 171 0 8 35 21 79 27 43 7 85
23 93 36 10 16 -2 19 -41 9 -41 -10 -76 0 -143 42 -97 62 -116 96 -37 66 63
-24 115 -24 59 0 -33 14 -28 18 30 21 65 3 66 5 16 16 -118 28 -289 183 -202
183 19 0 63 28 99 63 50 48 87 65 164 72 79 8 97 16 88 40 -9 24 -37 28 -153
18 -173 -15 -199 9 -232 219 -12 75 -24 139 -27 142 -3 3 -5 -85 -4 -194 1
-110 -5 -200 -14 -200 -49 0 -77 250 -51 450 l13 100 -26 -100 c-23 -84 -27
-90 -29 -39 -4 113 57 269 139 358 85 92 94 111 52 111 -42 0 -107 -82 -166
-210 -142 -308 -26 -821 219 -971 102 -62 35 -45 -79 20 -106 62 -164 136
-230 297 -26 63 -35 74 -27 34 35 -179 172 -368 353 -489 l123 -82 -98 9 c-54
4 -111 9 -128 10 -27 2 -27 5 0 22 19 12 21 19 5 20 -13 0 -69 46 -125 101
-126 128 -132 111 -7 -22 51 -54 84 -99 74 -99 -32 0 -160 145 -204 230 -23
44 -42 68 -42 54 -3 -88 200 -359 269 -359 65 0 91 -23 168 -150 l63 -105 -65
71 c-36 40 -75 87 -86 106 -11 19 -45 39 -76 44 -155 28 126 -206 407 -340
272 -128 399 -234 399 -330 0 -18 -16 -7 -40 29 -40 61 -172 170 -206 170 -11
0 -63 27 -117 60 -124 76 -146 77 -45 2 322 -238 483 -553 366 -714 -35 -49
-32 -48 17 7 52 58 167 96 135 45 -7 -11 2 -20 20 -20 38 0 90 -46 90 -80 0
-12 10 -16 23 -8 13 8 18 5 11 -5 -7 -11 18 -70 55 -132 37 -61 64 -115 59
-120 -4 -5 6 -8 22 -8 17 0 30 7 30 16 0 10 -10 17 -21 17 -12 0 -16 9 -9 20
7 12 3 50 -9 86 -31 95 -45 259 -21 244 11 -7 20 -3 20 9 0 26 104 5 123 -25
7 -11 29 -14 48 -6 29 11 30 8 10 -16 -28 -34 -7 -82 58 -137 51 -43 63 -44
48 -5 -6 17 -23 30 -38 30 -38 0 -59 81 -26 102 33 21 137 16 137 -6 0 -16
-32 -24 -67 -18 -10 2 -12 -11 -5 -29 6 -18 12 -36 12 -41 0 -5 25 -19 55 -31
l55 -23 -50 -15 c-48 -14 -48 -15 -5 -17 25 -1 62 -19 84 -41 27 -27 42 -31
49 -15 6 13 9 6 7 -16 -5 -37 -315 -169 -315 -134 0 25 -48 -37 -52 -67 -3
-21 5 -28 24 -21 15 6 28 1 28 -10 0 -11 9 -15 20 -8 11 7 20 2 20 -10 0 -13
10 -16 25 -6 42 27 116 22 93 -6 -23 -29 14 -28 60 1 22 13 26 9 15 -17 -7
-20 -13 -39 -13 -44 0 -4 -14 -8 -32 -8 -20 0 -28 -11 -21 -29 6 -17 1 -36
-11 -43 -13 -8 -17 -5 -9 8 8 11 5 26 -5 33 -22 13 -18 -27 6 -66 13 -21 6
-25 -30 -15 -27 6 -12 -5 32 -27 70 -33 74 -38 30 -40 -48 -1 -50 -7 -55 -146
-2 -80 -13 -181 -24 -225 -143 -593 -142 -573 -39 -756 79 -139 81 -147 61
-239 -12 -52 -17 -110 -11 -130 10 -30 8 -31 -12 -5 -19 24 -21 19 -11 -27 8
-34 5 -52 -7 -44 -26 16 -46 -54 -29 -99 9 -24 6 -32 -9 -23 -13 9 -29 -11
-41 -51 -10 -37 -25 -82 -33 -101 -13 -31 -1 -35 98 -35 94 0 112 6 112 36 0
20 23 116 52 214 89 309 100 545 23 497 -14 -9 -17 -1 -9 20 17 43 -4 96 -31
80 -13 -8 -15 -4 -6 11 15 24 -26 151 -43 134 -5 -5 1 -27 13 -50 12 -23 18
-42 12 -42 -15 0 -71 114 -71 144 1 19 6 17 20 -4 13 -20 15 4 7 74 -11 91 61
484 84 461 17 -17 43 -173 27 -164 -10 6 -17 -14 -17 -45 2 -49 4 -51 19 -16
14 33 17 34 19 6 0 -19 -12 -41 -29 -51 -25 -14 -17 -51 52 -246 44 -126 92
-267 107 -314 15 -46 60 -131 101 -188 41 -57 76 -114 78 -128 2 -14 16 -39
30 -57 15 -18 20 -32 11 -32 -9 0 5 -22 30 -49 26 -28 56 -44 67 -37 12 7 16
0 9 -19 -8 -21 2 -35 30 -42 35 -9 38 -16 15 -42 -22 -27 -21 -30 7 -19 28 10
31 2 20 -53 -9 -45 -6 -61 8 -52 12 8 28 5 35 -7 13 -21 130 -29 130 -9 0 7
-24 43 -52 80 -57 75 -55 80 20 46 28 -13 45 -32 38 -43 -7 -11 -2 -14 10 -6
18 11 62 -5 123 -44 6 -3 -3 -15 -20 -25 -20 -13 -2 -18 61 -18 l90 1 -170 87
c-167 85 -169 87 -163 156 6 77 -42 145 -91 126 -15 -6 -23 -2 -16 9 7 11 0
20 -15 20 -65 0 -354 573 -359 711 -1 37 -9 64 -16 59 -23 -14 -81 227 -68
280 7 28 19 45 28 40 9 -6 12 7 6 28 -5 20 0 43 11 50 13 8 26 -42 35 -133 18
-170 44 -124 44 75 -1 95 -4 107 -16 60 -14 -56 -15 -56 -18 -10 -1 28 -8 73
-15 100 -11 46 -5 43 70 -29 97 -93 129 -175 122 -317 -9 -176 -2 -211 46
-236 35 -18 40 -18 22 2 -16 16 -17 44 -5 87 10 34 18 111 18 170 0 58 7 103
15 99 164 -79 165 -79 164 -175 -1 -66 -6 -80 -18 -51 -12 30 -19 13 -30 -70
-19 -148 -30 -183 -54 -168 -11 7 -8 -6 6 -29 25 -40 25 -40 52 -2 41 59 119
241 132 309 l11 60 -28 -60 c-15 -33 -29 -73 -29 -88 -1 -16 -6 -23 -13 -17
-17 18 14 196 33 184 29 -18 116 13 128 46 10 25 7 26 -19 5 -42 -35 -37 0 10
60 22 28 39 66 40 86 0 23 9 31 23 22 16 -10 20 -4 11 18 -8 21 -3 32 12 29
13 -3 23 11 21 30 -1 19 5 30 14 24 25 -15 91 122 127 265 44 167 41 172 -29
51 -86 -151 -92 -129 -9 35 38 76 70 148 70 160 0 39 -36 20 -47 -26 -15 -58
-93 -68 -107 -13 -6 21 -23 39 -37 39 -15 0 -33 10 -40 22 -9 15 26 20 116 15
124 -7 132 -4 162 48 17 30 23 55 13 55 -10 0 -6 25 9 55 15 30 38 78 50 105
12 28 18 34 12 14 -6 -21 -2 -31 9 -24 11 7 15 33 8 59 -55 220 485 -325 621
-627 46 -101 58 -102 86 -7 l23 75 -10 -90 c-13 -118 -13 -145 -6 -450 8 -342
-83 -514 -309 -589 -71 -23 -72 -26 -68 -117 7 -140 -51 -132 -65 8 -11 106
13 157 65 137 14 -5 57 22 96 62 l69 71 -85 -13 c-100 -17 -205 20 -205 70 0
50 -22 64 -57 36 -17 -14 -6 11 24 55 l54 80 -62 13 c-81 17 -99 37 -32 37
183 0 186 411 5 790 -61 128 -188 313 -194 283 -2 -7 -4 -20 -6 -28 -1 -8 -8
-24 -15 -35 -8 -11 -18 -56 -25 -100 -6 -45 -5 -60 3 -35 l15 46 80 -54 c147
-99 146 -128 -4 -128 -59 0 -71 -25 -43 -92 12 -31 24 -71 26 -87 2 -17 37
-87 77 -156 71 -121 73 -129 44 -184 -37 -71 -38 -90 -4 -67 14 9 11 3 -8 -14
-67 -63 -201 -443 -183 -522 16 -66 21 -374 8 -444 -18 -91 8 -124 111 -144
14 -3 98 -42 188 -87 90 -44 171 -77 179 -72 8 6 20 -3 25 -18 15 -38 184
-120 220 -106 15 6 36 50 45 97 l17 87 7 -95 c4 -52 16 -95 26 -95 12 0 19
1103 19 2930 0 1756 -7 2930 -18 2930 -11 0 -20 -152 -21 -345z m-194 169 c19
-30 -69 -141 -128 -161 -73 -26 -80 13 -19 112 38 62 122 90 147 49z m-2074
-235 c15 -39 -3 -57 -42 -42 -17 7 -25 25 -19 42 16 40 46 40 61 0z m1264 -64
c26 -51 6 -85 -49 -85 -58 0 -83 48 -48 90 33 40 75 38 97 -5z m-20 -223 c21
-13 22 -21 3 -32 -19 -11 -18 -19 3 -32 15 -10 17 -18 5 -18 -13 0 -38 -43
-57 -95 -47 -130 -75 -185 -94 -185 -9 0 -7 23 3 51 11 29 19 62 18 75 0 13
-10 -1 -22 -32 -17 -48 -24 -52 -52 -30 -26 22 -29 21 -15 -2 12 -20 10 -24
-7 -13 -15 9 -23 5 -21 -12 7 -51 -1 -79 -19 -68 -41 25 23 155 68 138 17 -6
30 -1 30 11 0 12 -11 23 -25 23 -14 1 -5 10 20 20 25 10 56 43 70 73 13 31 37
69 51 84 22 23 22 31 0 45 -14 9 -17 16 -6 16 11 0 32 -7 47 -17z m803 -142
c0 -36 -209 -337 -235 -339 -45 -2 -27 53 45 139 39 46 70 101 70 123 0 22 9
34 19 28 10 -7 29 6 41 28 22 43 60 56 60 21z m-420 -313 c0 -121 -100 -192
-202 -144 l-50 24 43 46 c24 26 63 47 86 47 24 0 43 12 43 26 0 34 42 75 63
62 9 -6 17 -33 17 -61z m140 -27 c0 -21 -11 -44 -25 -52 -14 -8 -18 -7 -10 2
8 9 5 28 -7 42 -24 29 -5 75 23 57 11 -6 19 -28 19 -49z m-2973 -329 c35 -27
35 -29 -6 -50 -23 -13 -38 -30 -32 -39 6 -9 -9 -34 -32 -54 -41 -38 -41 -38
-31 32 20 138 38 158 101 111z m1275 -333 c23 -81 43 -168 45 -192 2 -25 48
-90 102 -145 55 -56 92 -101 84 -101 -9 0 3 -26 25 -57 132 -185 117 -547 -28
-712 -73 -83 -220 -176 -182 -115 5 9 -22 16 -60 16 -38 0 -84 15 -102 34 -32
31 -30 33 25 18 124 -33 180 1 109 66 -21 19 -34 43 -28 53 6 9 1 17 -11 17
-11 0 -25 1 -29 2 -5 0 -57 48 -116 105 -60 56 -155 144 -212 194 -103 89
-104 92 -104 205 l0 114 115 -1 c63 -1 151 -8 195 -17 l80 -16 -60 -16 c-174
-46 -214 -162 -94 -272 l74 -68 -68 74 c-66 72 -67 75 -34 126 56 85 235 162
307 132 56 -23 87 -95 32 -73 -15 5 -27 0 -27 -13 0 -12 -6 -17 -13 -10 -7 7
-29 3 -50 -8 -45 -24 -28 -66 20 -49 22 8 18 0 -10 -24 -61 -50 -107 -152
-105 -229 l2 -66 16 66 c8 36 43 110 76 163 46 74 54 103 37 121 -18 20 -13
20 24 0 26 -13 43 -16 37 -6 -6 10 6 19 27 21 53 4 49 -9 -19 -67 -65 -54
-162 -233 -162 -297 1 -30 5 -34 18 -14 9 14 22 26 29 26 243 -9 258 320 34
747 -52 99 -101 203 -110 230 l-17 50 -8 -53 c-5 -34 17 -105 64 -197 40 -79
63 -138 51 -131 -11 7 -21 4 -21 -7 0 -11 9 -25 20 -32 11 -7 30 -32 43 -56
22 -41 21 -42 -15 -15 -102 77 -156 139 -201 231 l-50 100 101 -110 c55 -60
101 -102 101 -91 1 10 -18 38 -40 62 -23 25 -63 97 -90 162 l-47 117 44 34
c42 32 45 32 66 -8 13 -23 27 -34 32 -24 5 10 7 6 3 -8 -7 -29 90 -193 106
-178 6 6 -3 32 -20 57 -39 61 -90 239 -78 273 14 40 21 24 67 -138z m324 -54
c145 -151 171 -166 234 -134 104 51 156 53 199 7 52 -56 38 -69 -39 -37 -66
27 -154 -17 -261 -131 -48 -51 -101 -70 -61 -22 18 22 0 45 -88 113 -127 98
-310 292 -309 327 0 12 28 -11 62 -53 65 -79 277 -239 347 -260 40 -13 40 -13
0 12 -22 13 -97 79 -166 147 -70 68 -121 108 -114 90 9 -25 7 -27 -11 -10 -17
17 -14 36 13 77 32 49 38 51 60 21 13 -18 73 -84 134 -147z m531 -19 c11 -19
20 -44 21 -55 1 -11 16 -36 33 -57 57 -67 18 -80 -52 -18 -60 55 -65 64 -33
76 34 13 34 16 2 51 -19 21 -24 38 -12 38 13 0 31 -16 41 -35z m-669 -165 c44
-49 128 -128 187 -174 l107 -84 64 39 c146 89 196 53 242 -168 17 -86 50 -182
72 -213 49 -69 59 -227 11 -179 -16 16 -32 58 -34 93 -3 35 -11 59 -19 55 -7
-5 -77 28 -155 73 -148 86 -209 138 -163 138 14 0 1 19 -29 43 -48 37 -51 46
-23 61 45 26 21 56 -45 56 -66 0 -185 116 -291 284 -71 112 -104 212 -39 115
19 -27 70 -89 115 -139z m-402 -115 c67 -95 70 -105 33 -105 -40 0 -71 51
-109 180 -18 59 -19 60 76 -75z m1114 77 c27 -8 53 -29 56 -48 5 -25 -2 -30
-27 -21 -29 11 -31 7 -10 -35 22 -44 20 -44 -27 7 -28 31 -78 61 -112 68 -33
7 -66 20 -72 30 -12 20 119 19 192 -1z m-1667 -170 c24 -1 39 -8 35 -16 -19
-30 74 -36 130 -7 33 17 65 31 71 31 19 0 12 -77 -9 -90 -11 -7 -20 -50 -20
-96 -1 -163 -31 -163 -120 -1 -40 74 -58 87 -168 117 -118 32 -172 71 -172
122 0 17 31 12 105 -16 58 -23 124 -42 148 -44z m1649 43 c42 -78 50 -209 10
-177 -18 15 -31 37 -29 50 5 30 -46 132 -66 132 -9 0 -17 9 -17 20 0 38 79 20
102 -25z m89 -270 c9 -19 17 -39 19 -45 2 -5 14 -36 27 -68 19 -44 19 -62 1
-73 -16 -10 -11 -22 15 -38 22 -14 25 -20 7 -16 -37 10 -81 97 -86 170 -2 30
-17 66 -34 79 -26 22 -26 25 3 25 18 1 40 -15 48 -34z m-1304 -275 c-6 -16
-23 -30 -37 -30 -39 0 -51 -54 -19 -81 30 -25 41 -139 14 -139 -9 0 -49 28
-90 61 -79 65 -100 126 -40 116 19 -3 59 19 89 49 59 59 101 71 83 24z m2121
-231 c363 -243 469 -447 415 -799 l-13 -90 -28 66 c-17 41 -38 62 -55 56 -15
-6 -27 -3 -27 6 0 10 13 23 30 29 17 7 24 25 18 42 -16 41 1 39 43 -3 32 -32
34 -32 23 5 -6 21 -25 90 -42 151 -17 62 -45 124 -62 138 -16 13 -25 32 -19
41 5 9 -1 23 -14 31 -16 10 -18 5 -7 -14 9 -15 -3 -11 -26 10 -31 27 -38 45
-24 62 14 17 11 32 -10 50 -16 14 -30 19 -30 12 0 -7 -20 -3 -45 10 -43 22
-43 21 5 -31 28 -30 47 -56 44 -58 -4 -1 0 -19 7 -39 25 -64 -23 -134 -91
-134 -123 0 -112 156 12 182 56 11 -235 178 -310 178 -12 0 -22 18 -22 39 0
46 77 21 227 -74 61 -38 75 -42 53 -15 -27 34 -27 36 5 24 45 -17 44 -8 -6 37
-36 32 -39 33 -28 3 16 -41 -8 -43 -60 -3 -35 26 -29 39 15 31 10 -2 11 6 4
18 -7 11 -23 15 -34 7 -13 -7 -16 -4 -9 8 7 12 -18 41 -57 65 -38 24 -70 47
-70 52 0 24 51 -2 188 -93z m-1419 19 c-9 -29 -2 -38 29 -38 43 0 91 -65 66
-89 -8 -8 -5 -13 6 -10 11 2 27 2 35 -1 8 -3 23 -6 33 -7 33 -5 182 -134 182
-158 0 -13 -40 16 -90 65 -105 103 -112 92 -33 -48 31 -56 53 -115 47 -130 -6
-18 -1 -22 16 -12 18 11 21 8 11 -8 -11 -19 -24 -18 -57 4 -48 31 -76 89 -32
64 16 -9 2 12 -31 47 -32 35 -61 63 -65 63 -3 0 -4 -97 -2 -215 l3 -215 12
158 c10 145 14 155 41 122 17 -20 66 -53 110 -73 l80 -36 -105 -1 c-58 0 -105
-9 -105 -20 0 -11 29 -20 65 -20 36 0 77 -8 93 -18 43 -28 6 -64 -52 -49 -36
9 -48 6 -38 -10 9 -14 3 -18 -14 -12 -16 6 -35 -4 -42 -23 -18 -47 -8 -51 66
-26 88 31 95 14 24 -57 -33 -33 -64 -81 -69 -107 -56 -300 -56 -277 -1 -349
52 -68 185 -179 198 -165 4 4 -19 25 -51 47 -127 85 -165 265 -89 419 39 78
48 87 40 40 -37 -203 -36 -220 26 -341 68 -134 115 -184 244 -257 103 -59 76
-70 -36 -16 -220 107 -472 331 -449 399 5 14 14 22 22 17 7 -4 14 70 15 165
l1 173 -38 -220 c-21 -121 -57 -291 -80 -377 l-42 -158 -25 98 c-58 223 -58
395 -1 426 238 127 220 484 -37 725 -78 73 -100 169 -29 125 9 -5 22 -1 29 11
7 11 41 19 76 18 36 -2 48 -7 28 -12 -21 -5 -34 -24 -30 -43 9 -45 68 -43 60
2 -3 19 3 35 14 35 11 0 23 -38 28 -85 l8 -85 -2 90 c-2 82 -7 92 -64 110 -56
18 -60 25 -43 75 10 30 27 50 38 43 10 -6 13 -29 6 -50z m561 -318 c20 -22 32
-44 27 -50 -13 -13 -97 48 -97 71 0 31 31 22 70 -21z m-83 -850 c17 -44 31
-70 32 -58 0 12 27 17 64 12 41 -6 58 -2 50 12 -7 11 -5 24 5 27 27 10 162
216 162 248 0 15 10 33 21 40 12 7 17 25 12 39 -6 14 6 30 27 36 40 10 39 -4
-13 -121 -16 -36 -23 -76 -15 -88 8 -13 6 -18 -5 -11 -11 6 -46 -48 -78 -121
-112 -252 -114 -255 -177 -251 -97 7 -150 73 -181 226 l-15 70 52 -69 c64 -85
68 -66 6 34 -104 168 -112 220 -76 504 12 94 23 184 25 200 1 17 18 -122 38
-309 19 -187 49 -376 66 -420z m-27 653 c0 -48 39 -83 92 -83 24 0 49 -14 55
-30 7 -17 35 -39 62 -50 74 -28 66 -98 -29 -258 -44 -74 -80 -145 -80 -158 0
-43 -35 -25 -48 25 -12 48 -92 565 -92 597 0 9 9 11 20 4 11 -7 20 -28 20 -47z
m564 11 c-28 -106 -324 -130 -324 -26 0 63 -2 62 175 62 143 0 158 -3 149 -36z
m-845 -1594 c37 -71 106 -195 155 -276 49 -80 86 -161 82 -179 -7 -37 -122
147 -242 386 -83 166 -214 552 -213 627 1 29 35 -56 76 -188 42 -132 106 -298
142 -370z m1061 228 c0 -15 -16 -28 -37 -28 -50 0 -65 20 -37 50 29 30 74 17
74 -22z m600 -247 c0 -203 -39 -269 -71 -121 -5 22 -13 58 -18 80 -5 22 -1 40
8 40 27 0 41 86 18 113 -25 30 -6 67 34 67 23 0 29 -36 29 -179z m-252 27 c17
-44 16 -48 -15 -48 -15 0 -37 -20 -49 -45 -16 -34 -22 -37 -23 -11 0 18 8 39
19 46 11 7 20 30 20 51 0 47 31 52 48 7z m-272 -112 c4 -52 -3 -74 -28 -84
-43 -17 -43 -17 -33 84 11 103 52 103 61 0z m424 -26 c0 -34 -92 -77 -122 -59
-31 20 3 51 49 45 26 -4 41 4 38 19 -3 14 4 25 15 25 11 0 20 -14 20 -30z
m-151 -110 c12 0 8 10 -9 22 -26 18 -26 20 -1 13 27 -7 31 -28 23 -123 -1 -19
-17 -24 -45 -17 -30 8 -39 4 -29 -12 8 -13 5 -23 -7 -23 -11 0 -21 4 -21 8 0
5 -6 25 -13 44 -10 26 -6 32 16 23 38 -14 92 17 69 39 -10 9 -21 6 -25 -5 -4
-12 -35 -19 -69 -17 -55 4 -58 1 -32 -29 63 -71 60 -118 -6 -115 -59 2 -64 6
-68 57 -1 14 -20 36 -42 49 -40 24 -40 25 2 25 48 1 161 54 180 84 8 14 20 13
34 -1 12 -12 31 -22 43 -22z m251 -101 c0 -92 -212 -359 -260 -329 -31 19 -17
48 113 242 115 171 147 190 147 87z m-1326 -111 c13 -35 -34 -76 -59 -51 -20
20 2 83 28 83 10 0 24 -14 31 -32z m-734 -162 c0 -18 -126 -127 -135 -117 -10
9 101 128 120 130 8 0 15 -5 15 -13z"/>
<path d="M3962 3251 c-2 -112 -73 -278 -109 -258 -13 7 -16 6 -8 -3 8 -9 -1
-29 -20 -45 -22 -17 -24 -23 -5 -13 17 8 46 27 65 44 30 26 36 26 47 -3 18
-47 -4 -91 -55 -110 -29 -11 -36 -21 -20 -31 12 -8 23 -23 23 -34 0 -11 -7
-16 -16 -11 -8 6 -15 -7 -15 -28 0 -52 -1 -52 63 56 56 94 92 381 63 496 -6
21 -11 -5 -13 -60z"/>
<path d="M4022 3178 c-1 -73 -7 -163 -14 -200 -8 -51 -6 -60 9 -38 31 44 46
220 25 300 -16 63 -18 57 -20 -62z"/>
<path d="M4361 3508 c27 -32 25 -33 -18 -10 -25 14 -51 21 -56 16 -17 -17 172
-97 208 -88 24 7 20 10 -15 12 -33 2 -42 8 -25 19 17 11 2 26 -49 51 -69 33
-72 33 -45 0z"/>
<path d="M2700 5290 c-49 -28 -48 -29 42 -29 246 -2 467 -177 627 -496 63
-124 66 -154 12 -121 -25 16 -31 30 -18 38 15 9 12 19 -8 31 -16 9 -54 56 -84
104 -65 105 -203 257 -259 287 -23 12 5 -23 62 -79 106 -102 234 -284 215
-303 -6 -6 -47 30 -91 79 -44 49 -71 70 -60 47 11 -23 34 -53 51 -67 34 -28
41 -61 14 -61 -30 0 -181 160 -252 266 -37 57 -98 131 -133 164 l-65 60 71
-90 c141 -179 204 -340 133 -340 -24 0 -38 6 -31 12 12 13 -78 208 -97 208 -5
0 9 -36 31 -80 22 -44 33 -80 23 -80 -37 0 -186 124 -243 203 -33 46 -60 73
-60 60 0 -37 143 -185 240 -248 58 -38 72 -54 40 -45 -96 28 -228 140 -277
236 -55 107 -80 114 -37 10 45 -107 150 -213 272 -277 71 -36 137 -91 179
-148 37 -50 77 -91 88 -91 13 0 13 9 -1 25 -38 46 -52 175 -20 175 48 0 57
-24 21 -54 -32 -26 -31 -27 12 -15 64 18 193 -43 221 -104 19 -43 18 -49 -13
-44 -43 8 -185 -73 -185 -104 0 -15 13 -17 35 -7 82 38 302 24 313 -20 5 -23
7 22 4 101 -17 405 -532 937 -772 797z m729 -774 c39 -33 39 -35 3 -35 -45 -1
-91 54 -91 109 0 40 0 40 23 0 13 -22 42 -55 65 -74z"/>
<path d="M84 5220 c-5 -62 29 -83 49 -30 6 16 21 24 34 17 13 -7 3 6 -21 30
-56 55 -57 55 -62 -17z"/>
<path d="M2491 4928 c6 -110 0 -224 -15 -290 l-25 -108 -12 90 c-10 66 -14 74
-16 30 -7 -150 38 -262 67 -170 30 94 158 121 234 50 30 -27 63 -50 73 -50 11
0 23 -10 27 -22 6 -18 136 -42 136 -24 0 3 -40 24 -88 47 -87 41 -177 119
-138 119 12 0 32 -14 46 -30 85 -103 317 -133 398 -52 47 47 32 53 -50 21 -66
-25 -174 13 -297 104 -71 53 -68 49 18 -31 55 -51 93 -92 85 -92 -41 0 -211
148 -252 220 -25 45 -51 78 -56 72 -6 -6 13 -51 42 -101 30 -50 46 -91 36 -91
-54 0 -175 226 -203 380 -18 99 -19 92 -10 -72z m129 -308 c0 -12 -88 -60
-109 -60 -4 0 2 32 14 70 20 65 95 57 95 -10z"/>
<path d="M4480 4931 c0 -16 9 -34 20 -41 12 -7 15 -23 9 -36 -7 -13 2 -7 20
15 43 53 39 91 -9 91 -22 0 -40 -13 -40 -29z"/>
<path d="M1836 4626 c-48 -8 -74 -45 -204 -300 l-150 -292 47 -93 c34 -67 42
-102 28 -127 -10 -19 -15 -34 -10 -34 29 0 132 210 144 293 16 111 98 364 127
393 10 10 -6 -56 -37 -149 -84 -249 -96 -338 -28 -207 46 87 92 251 116 410 4
28 14 66 21 85 8 19 11 34 7 32 -4 -2 -32 -7 -61 -11z"/>
<path d="M2020 4625 c-1 -8 -9 -49 -18 -90 -11 -44 -10 -70 0 -64 10 6 18 -56
18 -139 0 -82 9 -155 20 -162 66 -41 -40 -316 -157 -406 l-63 -49 12 62 c9 41
5 63 -9 63 -13 0 -23 18 -23 40 0 49 34 53 45 5 8 -39 45 113 64 265 l12 100
-32 -90 c-18 -49 -70 -139 -116 -200 -45 -60 -81 -114 -80 -120 16 -68 23
-202 8 -170 -10 22 -19 67 -20 99 l-1 59 -69 -67 c-148 -144 -292 -506 -235
-595 22 -35 221 82 244 145 11 27 25 49 32 49 7 0 6 -16 -1 -35 -7 -19 33 10
90 65 87 84 101 92 90 50 -8 -27 -42 -72 -77 -100 -131 -105 -190 -165 -134
-139 28 13 68 40 90 60 22 20 49 36 60 36 11 -1 40 45 65 102 25 57 36 98 25
91 -31 -19 -24 22 9 49 16 13 40 56 53 96 13 39 54 111 91 160 37 49 63 96 57
105 -5 9 4 21 20 27 23 9 28 1 20 -33 -29 -126 -68 -362 -61 -370 14 -14 66
125 91 244 12 62 28 112 34 112 21 0 -12 -230 -43 -304 l-30 -72 94 -13 c86
-12 101 -23 160 -112 74 -113 65 -123 -33 -39 -38 32 -76 54 -85 48 -9 -6 -17
-1 -17 10 0 12 -24 27 -54 35 -49 12 -51 15 -15 29 38 15 38 15 -1 15 -97 0
-114 -27 -36 -55 107 -39 230 -127 314 -225 40 -46 78 -78 85 -70 8 7 -12 40
-43 73 -75 78 -58 93 23 20 35 -31 59 -62 52 -68 -6 -7 10 -13 37 -14 43 -1
41 -4 -19 -31 l-67 -29 -105 107 c-134 136 -316 235 -433 235 l-85 0 54 -57
55 -57 -138 -178 c-119 -154 -280 -327 -184 -198 29 40 29 40 -15 2 -44 -37
-61 -64 -29 -45 9 6 29 2 45 -8 21 -14 13 -18 -33 -19 -40 0 -78 -18 -110 -52
-47 -51 -229 -187 -348 -259 -33 -20 28 47 136 150 178 169 192 188 160 212
-20 14 -40 21 -45 16 -6 -5 2 -16 15 -25 18 -11 -15 -54 -111 -145 -152 -143
-253 -192 -603 -298 -154 -46 -201 -68 -180 -82 20 -15 12 -17 -29 -8 -37 8
-52 5 -43 -8 7 -12 -4 -21 -25 -21 -44 0 -360 -150 -410 -195 -30 -27 -35 -71
-35 -333 l1 -302 70 144 c99 204 264 375 562 582 20 14 26 20 12 14 -40 -20
-29 46 15 90 24 24 66 40 105 39 l65 0 -60 -52 -60 -51 90 53 c50 29 122 68
160 85 295 134 416 196 453 230 23 21 59 42 80 45 20 4 34 17 31 31 -4 16 7
20 30 11 19 -7 28 -7 20 1 -8 8 1 31 19 51 40 44 83 50 46 6 -22 -27 -18 -28
29 -10 77 30 45 -22 -101 -160 -208 -197 -838 -594 -903 -569 -14 5 -21 1 -14
-9 6 -11 -14 -32 -44 -48 -31 -16 -78 -53 -106 -82 l-49 -54 57 22 c85 33 80
23 -69 -119 -145 -140 -153 -140 -45 -5 38 47 63 94 56 105 -7 12 24 67 69
123 44 56 81 96 81 88 0 -7 26 5 58 28 75 53 98 52 50 -2 -35 -41 -34 -41 27
3 74 54 80 64 30 46 -43 -15 -24 4 89 91 45 35 90 62 100 59 25 -7 194 86 212
117 9 15 36 47 60 70 47 46 32 39 -100 -44 -47 -29 -78 -61 -70 -69 7 -9 3
-10 -11 -2 -14 8 -45 0 -69 -17 -59 -41 -88 -40 -53 2 94 116 -301 -192 -422
-328 -300 -336 -342 -923 -77 -1084 l66 -41 -60 0 c-267 0 -440 440 -287 726
11 21 16 42 11 47 -6 5 -34 -39 -63 -99 -104 -213 -85 -560 35 -644 24 -17 34
-30 22 -30 -29 0 -76 41 -115 99 -32 48 -33 40 -33 -183 0 -128 7 -236 16
-239 8 -4 60 -74 115 -156 54 -81 105 -158 113 -169 42 -63 57 27 18 105 -71
138 -61 166 141 385 120 129 198 198 225 198 78 -1 135 -25 124 -52 -14 -36
88 -113 134 -101 28 8 34 2 25 -23 -7 -19 13 -3 44 34 71 84 129 71 66 -14
-105 -142 -151 -183 -180 -165 -25 16 -24 24 6 58 46 51 -9 94 -78 60 -37 -19
-37 -18 -2 10 35 29 34 31 -20 59 -98 49 -174 61 -160 25 9 -24 -3 -31 -53
-33 l-64 -2 82 -26 c127 -40 201 -84 246 -148 l42 -58 -77 -98 c-73 -92 -75
-98 -33 -101 73 -6 145 81 132 160 -6 42 35 6 65 -57 77 -162 69 -227 -47
-354 l-104 -114 100 0 c62 0 105 10 111 25 8 20 10 20 11 0 3 -41 50 -28 123
34 87 74 93 74 109 1 9 -42 25 -60 53 -60 36 0 37 3 8 32 -86 86 -83 107 42
220 64 58 133 107 153 107 47 1 79 85 41 107 -15 9 -36 11 -48 4 -11 -7 -18
-6 -15 4 3 9 -21 43 -53 76 l-57 60 38 -70 c20 -38 51 -88 68 -110 22 -29 15
-27 -25 8 -30 27 -55 42 -55 33 0 -9 -13 -5 -30 9 -34 28 -65 -20 -39 -61 8
-13 -9 -8 -37 10 -50 33 -51 32 -39 -11 7 -29 -1 -53 -26 -71 -43 -31 -117
-37 -99 -7 31 50 -12 13 -52 -45 -25 -36 -38 -58 -28 -50 18 16 70 -19 70 -47
0 -31 -75 -19 -88 14 -19 50 -15 143 6 111 67 -106 29 135 -40 255 -38 64 -38
69 -5 106 42 46 95 -35 139 -214 13 -55 25 -84 26 -64 1 20 10 31 20 25 55
-33 15 177 -57 300 l-35 61 70 -5 c56 -5 82 6 128 54 108 113 105 53 -9 -171
-42 -81 -73 -228 -36 -171 10 16 14 36 8 46 -5 9 2 14 17 10 14 -3 26 10 26
29 0 18 9 41 18 50 11 9 12 5 4 -9 -8 -14 -5 -25 7 -25 19 0 29 28 23 65 -1 8
9 13 23 10 14 -3 25 10 25 29 0 19 13 46 29 60 25 22 25 21 3 -9 -15 -20 -18
-35 -7 -35 12 0 26 -20 33 -45 7 -25 57 -93 112 -151 90 -95 132 -166 80 -134
-11 7 -14 -2 -7 -21 8 -21 17 -25 26 -10 9 14 22 5 35 -24 21 -45 -115 -201
-147 -169 -5 5 22 34 62 64 39 30 71 65 70 77 0 13 -11 10 -25 -7 -13 -16 -60
-61 -104 -99 -44 -38 -62 -62 -40 -54 34 13 33 9 -9 -36 -54 -57 -101 -70 -59
-16 26 33 25 33 -12 3 -22 -18 -53 -39 -70 -46 -16 -7 -9 -9 16 -4 38 7 42 4
23 -20 -20 -23 -13 -28 37 -28 81 0 304 206 304 281 1 34 6 41 17 22 13 -19
50 14 139 120 67 81 118 150 114 154 -29 28 -301 -183 -280 -217 7 -11 8 -20
3 -20 -5 0 -27 31 -49 68 l-40 68 78 76 c43 42 78 69 78 60 0 -9 14 -6 30 8
17 14 27 30 21 36 -5 5 8 32 30 60 28 36 33 57 18 75 -71 85 -132 362 -95 431
20 37 36 78 36 90 0 13 12 33 27 46 22 18 27 6 24 -69 -3 -58 2 -81 14 -65 11
16 12 0 4 -42 -9 -46 -7 -63 9 -53 13 8 17 2 10 -16 -13 -34 46 -159 69 -145
40 25 14 -85 -32 -133 -29 -30 -44 -55 -33 -55 10 0 32 19 49 42 16 23 47 51
69 62 22 11 -14 -34 -79 -102 -120 -123 -133 -154 -34 -85 199 140 323 153
323 33 0 -96 36 -75 112 65 124 227 136 307 56 370 -83 66 -98 112 -50 163 24
25 37 50 31 56 -7 7 13 60 43 119 29 59 70 152 89 207 l35 100 53 -114 c42
-90 49 -123 32 -154 -11 -22 -21 -53 -21 -69 0 -17 -28 -75 -62 -130 -34 -55
-58 -112 -53 -127 12 -35 90 92 117 194 44 159 48 166 77 112 39 -73 -154
-561 -351 -885 -39 -65 -67 -129 -61 -142 7 -19 10 -19 11 1 1 15 45 100 98
190 215 369 377 792 346 905 -17 64 -14 77 22 72 8 -2 9 11 3 27 -6 16 -19 25
-29 19 -10 -6 -13 2 -7 17 12 29 -182 478 -355 822 -115 230 -123 215 138 281
227 57 289 63 285 26 -7 -54 26 -120 45 -92 13 20 16 16 12 -13 -4 -22 -15
-41 -26 -42 -46 -4 -92 -34 -72 -47 12 -7 -12 -14 -53 -16 -41 -1 -95 11 -120
27 -25 16 -45 20 -45 10 0 -31 112 -102 163 -103 l47 -2 -50 -21 -50 -21 56
-19 c47 -17 65 -13 103 23 l45 43 13 -76 c48 -292 -14 -849 -138 -1233 -96
-297 -549 -1105 -681 -1214 -51 -43 -29 -59 80 -59 l108 0 97 173 c93 166 146
221 163 170 4 -13 17 -17 29 -10 13 8 15 4 6 -11 -8 -13 -3 -38 11 -55 32 -38
42 -92 20 -107 -9 -5 -9 -28 -1 -50 14 -34 16 -35 18 -5 0 19 11 35 24 35 14
0 18 -24 12 -65 -10 -60 -7 -65 48 -69 121 -9 112 61 -43 376 -127 255 -154
341 -97 306 51 -31 298 -576 286 -631 l-12 -56 128 3 128 2 -65 202 c-35 111
-80 255 -99 319 l-34 117 147 148 146 147 -34 275 c-18 152 -34 290 -35 306
-9 273 -23 340 -71 340 -26 0 -48 9 -48 21 0 13 38 19 94 15 107 -7 120 14
124 188 l2 94 132 -9 c73 -5 139 -14 148 -19 9 -5 21 4 28 21 7 20 3 26 -11
17 -14 -9 -18 -5 -9 9 21 33 52 28 52 -8 0 -17 9 -26 20 -19 12 7 15 22 7 34
-8 14 5 18 39 12 29 -6 48 -3 42 7 -6 9 -33 17 -60 17 -27 0 -72 15 -99 32
-36 24 -81 31 -167 24 l-117 -8 -24 103 c-28 129 -68 192 -88 141 -8 -23 -5
-29 11 -20 15 10 19 3 10 -20 -8 -19 -6 -29 3 -24 10 6 27 -24 40 -66 35 -117
32 -123 -50 -94 -73 24 -103 87 -70 142 25 42 22 92 -8 103 -60 23 -81 94 -22
80 37 -10 56 -4 70 22 11 19 36 35 57 35 51 0 58 123 11 193 -117 174 -206
292 -248 327 -44 37 -43 35 4 -20 186 -216 169 -440 -43 -591 l-64 -46 52 89
c70 120 30 457 -54 458 -42 1 -242 105 -218 114 26 9 -110 140 -137 131 -40
-12 -197 347 -197 450 0 27 6 26 40 -5 22 -20 40 -51 40 -68 0 -53 102 -341
119 -337 24 7 261 -169 251 -186 -9 -14 72 -44 85 -31 4 4 -37 55 -90 114 -53
60 -121 138 -151 175 -46 56 -82 67 -39 12 8 -11 -2 -2 -22 20 -50 55 -136
226 -129 259 3 14 -23 51 -59 81 -142 119 -226 364 -229 666 -2 112 -14 211
-16 130z m-351 -937 c19 -39 40 -66 46 -60 6 7 23 2 37 -10 20 -16 29 -9 39
30 7 29 23 52 35 52 11 0 37 15 57 33 95 85 -24 -170 -137 -294 -91 -101 -102
-90 -38 38 29 55 44 106 34 112 -9 6 -22 -14 -29 -44 -16 -76 -161 -297 -213
-325 -41 -22 -41 -20 5 54 79 126 80 127 53 121 -14 -3 -29 12 -34 33 -7 31 1
36 44 27 62 -11 62 -13 12 85 -50 97 -50 102 1 167 52 66 48 67 88 -19z m447
-489 c44 -26 82 -76 113 -145 74 -169 79 -193 37 -206 -99 -31 -114 -60 -84
-173 l15 -55 -77 45 c-60 34 -80 60 -89 115 -29 167 -33 176 -85 189 -34 9
-62 3 -81 -15 -24 -25 -20 -30 34 -41 50 -10 61 -22 61 -67 0 -31 13 -80 29
-110 28 -54 26 -56 -135 -205 -207 -190 -292 -208 -225 -46 25 58 37 68 79 60
95 -18 215 105 208 214 -5 81 -12 91 -56 95 -29 2 -35 -1 -15 -7 37 -11 49
-47 15 -47 -11 0 -20 -20 -20 -45 -1 -36 -5 -39 -19 -16 -27 43 -45 15 -45
-71 0 -41 -7 -63 -15 -49 -11 18 -24 15 -51 -12 -79 -79 -7 102 168 423 115
210 141 229 238 169z m128 23 c111 -42 239 -187 225 -256 -20 -94 -78 -110
-60 -16 16 87 2 89 -41 6 l-33 -64 -54 119 c-30 65 -80 144 -111 174 -61 61
-29 77 74 37z m437 -214 c22 -26 22 -34 -2 -49 -48 -30 -99 -22 -99 16 -1 29
-4 30 -19 6 -10 -16 -15 -35 -10 -43 5 -7 -9 -18 -31 -24 -46 -12 -48 -7 -17
52 42 80 130 101 178 42z m87 -85 c6 -10 -27 -23 -73 -30 -47 -6 -116 -17
-155 -24 -104 -17 -25 28 85 50 118 23 131 23 143 4z m-348 -81 c0 -10 -34
-24 -75 -33 -109 -21 -163 -23 -151 -3 6 10 27 13 48 8 21 -6 38 -3 38 6 0 18
45 34 105 38 19 1 35 -6 35 -16z m-33 -377 c112 -224 182 -403 164 -421 -6 -6
-21 20 -34 58 -13 37 -79 176 -146 308 -66 132 -124 247 -128 255 -3 8 3 15
15 15 12 0 70 -97 129 -215z m-391 57 c-59 -55 -110 -88 -114 -75 -4 13 -16
28 -25 34 -10 7 5 33 33 59 l50 47 0 -47 c0 -45 1 -45 40 -10 21 19 33 45 26
56 -7 11 -4 15 7 8 10 -6 32 -3 48 7 54 34 42 19 -65 -79z m225 -9 c33 -130
37 -138 69 -126 46 18 38 -72 -12 -134 -22 -30 -48 -49 -57 -44 -9 6 -33 -9
-53 -32 -21 -23 -105 -76 -188 -118 -266 -135 -282 -186 -25 -82 128 52 130
42 33 -155 -75 -152 -101 -167 -91 -51 7 83 -6 88 -44 14 -39 -77 -60 -213
-56 -362 3 -93 -5 -144 -32 -190 -35 -61 -41 -253 -8 -253 7 0 14 -26 15 -58
1 -31 21 -84 44 -117 39 -54 40 -85 4 -85 -16 0 -70 119 -99 220 -20 68 -21
68 -10 -19 6 -49 30 -120 53 -157 l41 -67 -45 -44 c-25 -24 -39 -32 -32 -18
10 18 -6 25 -58 25 -66 0 -72 -4 -61 -45 7 -25 -5 -14 -26 25 -48 88 -74 231
-44 249 11 7 21 24 21 37 0 13 -33 -12 -72 -56 -39 -44 -7 4 71 107 146 194
171 243 99 199 -111 -69 -243 -141 -393 -217 -90 -45 -169 -90 -175 -99 -14
-23 -88 18 -154 85 -30 30 -66 55 -80 54 -14 0 -1 -14 29 -30 30 -17 55 -35
55 -40 0 -6 -17 -1 -38 10 -48 25 -93 -22 -72 -74 9 -22 18 -26 24 -11 5 13
23 18 41 11 21 -8 27 -4 17 12 -8 12 -6 23 3 23 41 0 41 -27 -1 -61 -68 -55
-169 6 -124 74 38 58 38 67 -5 67 -21 1 2 24 55 57 186 116 366 203 419 203
71 0 75 5 65 90 -11 96 -157 103 -151 8 3 -46 -17 -64 -169 -148 -95 -53 -192
-117 -217 -142 -25 -24 -62 -49 -81 -54 -29 -7 -27 -10 8 -12 24 -1 50 -12 58
-25 10 -16 0 -19 -34 -10 -26 7 -69 13 -94 13 -26 0 -41 8 -36 18 6 9 -3 59
-21 111 -82 241 26 634 232 848 46 48 80 91 76 95 -4 4 -33 -19 -64 -51 -30
-32 -68 -53 -83 -48 -46 18 75 110 151 115 17 1 99 54 181 118 361 277 485
359 505 331 14 -21 16 -19 8 7 -6 18 2 43 17 56 47 39 10 -65 -38 -107 -23
-20 -31 -31 -17 -24 65 34 7 -43 -186 -250 -115 -123 -248 -282 -293 -351 -46
-70 -87 -124 -91 -119 -11 11 107 238 185 356 130 196 136 207 70 135 -111
-120 -288 -367 -328 -455 -21 -46 -47 -78 -58 -71 -12 7 -14 2 -5 -13 9 -14 6
-32 -6 -39 -26 -16 -39 -84 -59 -320 -10 -117 -23 -172 -42 -178 -88 -29 16
530 140 751 74 133 62 136 -23 4 -84 -132 -160 -322 -170 -426 -29 -306 -33
-413 -16 -413 10 0 123 100 252 222 212 201 254 231 459 330 329 158 537 316
364 277 -76 -17 -327 -135 -378 -178 -22 -18 3 -9 56 20 53 30 101 48 108 42
7 -7 -20 -26 -59 -42 -38 -16 -75 -43 -81 -59 -7 -17 -32 -26 -63 -23 -29 3
-62 -9 -76 -27 -23 -29 -21 -29 15 -2 37 28 38 28 12 -5 -15 -20 -32 -31 -38
-26 -5 6 -22 -5 -37 -24 -17 -23 -15 -6 7 50 30 79 65 107 504 399 520 345
546 364 531 388 -6 9 -57 -19 -115 -63 -140 -106 -362 -221 -484 -251 -87 -21
-92 -25 -35 -26 36 -1 65 -12 65 -24 0 -12 -14 -17 -31 -10 -17 6 -26 4 -20
-6 12 -20 -104 -73 -122 -56 -6 7 -2 41 11 76 46 132 17 102 -35 -36 -49 -133
-103 -223 -103 -174 0 103 141 358 198 358 62 0 209 102 332 230 70 73 72 73
149 8 57 -49 121 -54 121 -10 0 10 -32 39 -71 63 l-72 44 54 56 c67 70 103 57
130 -48z m-614 -178 c-9 -14 -2 -17 17 -10 24 9 29 2 20 -31 -6 -24 -15 -32
-19 -18 -14 41 -40 27 -54 -28 -7 -29 -17 -49 -21 -45 -16 16 35 176 53 165
10 -6 12 -21 4 -33z m-747 -51 c-27 -19 -81 -61 -120 -95 -100 -86 -140 -115
-140 -103 0 19 268 234 289 233 12 -1 -1 -16 -29 -35z m1560 -44 c0 -31 -115
-152 -130 -136 -8 7 12 45 43 85 57 71 87 89 87 51z m-1041 -175 c-35 -41
-102 -116 -148 -165 -47 -50 -85 -104 -86 -120 -1 -17 -8 -52 -16 -80 -7 -27
10 -8 39 44 41 74 152 212 152 190 0 -3 -28 -68 -61 -145 -34 -76 -57 -112
-51 -79 9 54 7 52 -28 -20 -22 -44 -39 -103 -39 -132 -1 -28 -19 -68 -41 -88
-40 -36 -40 -36 -10 62 41 136 36 136 -30 -2 -31 -65 -52 -128 -45 -140 6 -11
-1 -9 -16 5 -21 19 -34 18 -63 -8 -48 -44 -62 -26 -35 45 15 41 26 49 38 30
10 -17 21 -19 29 -6 7 11 2 24 -11 28 -22 8 50 143 120 222 17 20 33 49 35 66
7 48 104 170 215 272 125 115 138 120 52 21z m876 34 c6 -21 3 -22 -9 -5 -15
21 -199 -273 -252 -402 -8 -21 -31 -51 -50 -67 -18 -15 -23 -22 -9 -15 34 17
32 4 -17 -99 -55 -118 -94 -151 -82 -71 5 33 15 60 24 60 8 0 15 22 15 49 0
27 36 103 81 169 44 67 96 169 114 227 46 144 162 240 185 154z m903 -34 c-1
-41 -10 -97 -19 -125 -13 -36 -15 -19 -9 60 4 61 3 94 -3 74 -8 -29 -16 -31
-39 -12 -24 20 -23 27 7 50 55 42 65 34 63 -47z m-656 -305 c-14 -49 -41 -108
-61 -130 -20 -22 -40 -53 -46 -70 -13 -38 -20 82 -19 297 2 240 15 257 89 113
57 -113 59 -125 37 -210z m-311 -75 c2 -315 11 -446 30 -434 9 5 13 -7 10 -26
-2 -19 -24 -38 -48 -41 -24 -4 -43 -17 -43 -29 0 -16 -8 -15 -25 2 -31 31 -48
483 -20 533 14 25 22 -5 31 -113 10 -130 48 -290 65 -273 3 3 -7 55 -23 115
-41 162 -29 521 19 521 2 0 4 -115 4 -255z m102 142 c-7 -46 -1 -93 18 -129
31 -60 65 -258 40 -235 -7 7 -36 93 -62 190 -49 177 -61 252 -29 177 15 -35
17 -34 19 15 0 30 7 55 14 55 7 0 7 -33 0 -73z m-33 -196 c0 -25 14 -85 30
-132 34 -95 24 -137 -11 -47 -31 80 -57 249 -36 236 9 -6 17 -31 17 -57z m756
-114 c3 -152 -18 -177 -27 -33 -6 110 -7 112 -28 76 -27 -46 -14 -230 19 -273
28 -35 27 -35 -15 1 -48 41 -64 211 -26 271 12 19 10 40 -5 59 -21 25 -17 25
26 2 46 -24 48 -24 23 7 -24 28 -24 33 1 33 22 0 30 -33 32 -143z m-1036 -88
c0 -74 -8 -126 -18 -120 -10 6 -24 0 -30 -14 -7 -14 -8 0 -2 30 6 30 16 96 23
145 17 127 27 112 27 -41z m-1584 -116 c5 -42 -2 -53 -33 -53 -48 0 -64 37
-39 86 26 50 65 32 72 -33z m1691 -218 c4 -69 5 -68 43 5 34 66 80 75 187 38
76 -27 76 -13 3 -159 -69 -137 -59 -131 -145 -79 -36 22 -80 40 -98 40 -18 0
-32 11 -30 25 1 14 -10 91 -24 171 -34 182 -12 260 32 114 16 -55 31 -125 32
-155z m-1580 154 c-13 -34 -39 -38 -58 -8 -24 39 8 86 40 60 16 -13 24 -37 18
-52z m2496 -81 c14 -36 29 -63 36 -59 6 4 12 -12 14 -36 2 -24 6 -56 10 -72 4
-16 -6 -30 -21 -30 -35 -1 -55 -51 -20 -51 14 0 4 -22 -23 -51 -26 -27 -57
-46 -70 -41 -29 11 -94 -63 -78 -89 19 -31 -38 -12 -65 21 -30 36 -34 113 -7
129 11 7 15 23 10 37 -5 13 12 59 38 102 l47 77 33 -47 c22 -32 33 -37 33 -16
0 16 -11 41 -25 55 -20 20 -17 22 13 11 33 -13 36 -8 24 34 -8 26 -15 62 -16
78 -1 17 -11 44 -23 60 -12 17 -2 13 22 -8 25 -21 55 -67 68 -104z m-2547 -31
c97 -96 106 -127 31 -108 -65 16 -187 107 -187 140 0 77 58 65 156 -32z m1906
-230 c-44 -86 -80 -141 -81 -122 -1 48 148 345 155 308 3 -16 -30 -100 -74
-186z m375 -112 c63 -102 92 -188 53 -155 -26 22 -29 21 -19 -6 7 -17 3 -48
-9 -68 -19 -32 -21 -31 -23 14 l-2 50 -21 -45 c-29 -59 -52 -57 -68 4 -8 34 3
73 33 122 33 53 38 78 22 94 -23 23 -31 55 -15 55 5 0 27 -29 49 -65z m-1257
-65 c0 -15 32 -68 70 -119 76 -99 89 -132 37 -88 -76 62 -191 287 -127 247 11
-7 20 -25 20 -40z m-1260 -30 c0 -33 -8 -60 -18 -60 -25 0 -43 54 -29 90 19
51 47 33 47 -30z"/>
<path d="M1024 2025 c-47 -66 -169 -307 -160 -315 3 -3 52 79 109 182 105 193
119 229 51 133z"/>
<path d="M1685 1653 c-51 -15 -63 -27 -54 -56 27 -86 -49 -253 -186 -410 -73
-84 -124 -149 -114 -145 248 104 350 172 398 265 61 116 68 184 16 163 -100
-41 -106 -39 -82 33 12 37 40 81 62 99 59 47 38 74 -40 51z"/>
<path d="M1645 1065 c-81 -105 -100 -149 -29 -68 40 44 63 57 69 40 5 -15 13
2 18 38 12 81 13 81 -58 -10z"/>
<path d="M2170 1105 c-37 -89 -45 -163 -19 -173 18 -7 23 1 15 22 -9 22 -5 28
11 18 16 -10 23 12 23 77 0 98 -7 111 -30 56z"/>
<path d="M2973 1111 c-15 -40 23 -124 56 -124 21 0 20 15 -4 71 -36 90 -37 91
-52 53z"/>
<path d="M4691 4581 c-21 -33 7 -61 62 -61 37 0 48 9 43 35 -7 39 -85 59 -105
26z"/>
<path d="M3879 4487 c21 -53 43 -122 50 -153 10 -45 37 -68 137 -115 115 -55
246 -85 176 -41 -16 11 -23 35 -17 60 9 32 -2 50 -44 71 -54 28 -55 28 -49
-25 4 -30 2 -38 -4 -19 -6 20 -20 30 -32 23 -13 -8 -15 3 -6 31 10 34 2 53
-33 77 -26 18 -85 68 -132 111 l-85 78 39 -98z"/>
<path d="M1948 4195 c1 -173 4 -315 6 -315 19 0 46 168 28 179 -11 7 -24 109
-28 232 -4 139 -6 104 -6 -96z"/>
<path d="M2640 4439 c-27 -16 -27 -18 0 -19 17 0 51 -6 78 -13 34 -9 45 -6 39
13 -11 33 -78 44 -117 19z"/>
<path d="M5796 4301 c-32 -37 -32 -40 7 -52 30 -9 35 -19 19 -35 -12 -12 -22
-31 -22 -42 0 -11 13 -2 28 19 20 27 23 46 8 64 -11 13 -15 38 -9 55 16 40 9
38 -31 -9z"/>
<path d="M4306 4182 c-21 -34 -17 -39 47 -51 92 -17 109 2 47 50 -62 47 -65
48 -94 1z"/>
<path d="M3150 4122 c82 -17 66 -52 -21 -45 -46 4 -100 -11 -159 -44 -96 -54
-111 -50 -55 14 35 39 34 39 -20 4 -129 -83 78 -291 231 -232 162 61 170 327
10 319 -37 -2 -35 -5 14 -16z m26 -179 c14 -9 20 -30 13 -48 -13 -35 -147 -59
-181 -32 -12 9 -28 11 -35 3 -7 -7 -13 -3 -13 10 0 59 153 107 216 67z"/>
<path d="M5826 4113 c8 -21 3 -33 -15 -33 -16 0 -34 -9 -41 -20 -8 -13 11 -19
50 -16 79 6 84 16 33 64 -33 32 -38 33 -27 5z"/>
<path d="M5015 3987 c51 -21 33 -343 -20 -353 -30 -6 -21 -9 26 -11 73 -3 80
7 215 280 6 13 -203 99 -232 95 -8 0 -3 -6 11 -11z"/>
<path d="M5217 3750 l-73 -129 83 11 c46 6 142 17 213 24 l130 14 -130 105
c-157 127 -135 130 -223 -25z"/>
<path d="M1152 3841 l-179 -11 -61 -114 -62 -113 55 -58 c61 -64 68 -85 27
-85 -15 0 -42 23 -61 51 -98 150 -78 -96 23 -281 l77 -140 119 -12 c203 -20
244 9 253 175 6 104 25 173 78 287 l71 150 -47 85 c-30 53 -61 84 -81 81 -19
-2 -114 -9 -212 -15z m-39 -368 c45 -70 40 -99 -18 -109 -22 -4 -36 8 -37 30
-2 20 -5 61 -9 91 -9 73 12 69 64 -12z m207 -192 c0 -77 -33 -96 -46 -26 -11
59 -3 85 27 85 11 0 19 -26 19 -59z"/>
<path d="M5030 3559 c140 -22 259 -21 190 1 -27 9 -104 16 -170 15 l-120 0
100 -16z"/>
<path d="M5403 3532 c-114 -22 -197 -44 -185 -48 12 -4 22 -16 22 -26 0 -26
-55 -23 -64 4 -4 12 -48 24 -97 28 -79 5 -81 4 -19 -8 l70 -14 -88 -16 c-61
-11 -79 -22 -60 -34 23 -13 23 -24 3 -56 -33 -54 -7 -67 132 -66 243 2 387 26
398 66 13 51 45 48 45 -3 0 -29 11 -40 35 -35 39 7 59 137 31 208 l-16 41
-207 -41z"/>
<path d="M1709 3204 c-18 -31 -78 -87 -133 -125 l-100 -68 -51 59 -50 60 38
-68 c20 -37 69 -90 107 -119 39 -28 60 -39 47 -25 -19 21 -4 53 66 149 50 67
99 138 109 158 31 58 3 40 -33 -21z"/>
<path d="M5638 3060 c60 -33 118 -60 130 -59 26 1 -189 117 -218 118 -11 0 29
-27 88 -59z"/>
<path d="M5480 3007 c180 -85 280 -126 280 -115 0 14 -279 142 -340 156 -27 6
0 -12 60 -41z"/>
<path d="M1366 3017 c24 -71 -444 -115 -720 -69 -218 36 -507 -114 -604 -315
-40 -81 -59 -245 -27 -228 8 4 70 33 138 65 l122 57 -72 70 c-53 50 -65 71
-44 79 16 5 57 -22 95 -63 l66 -72 105 27 c58 15 169 38 248 52 88 16 140 34
136 48 -10 27 95 224 116 217 8 -3 49 -6 90 -7 41 -2 60 -7 42 -11 -22 -6 -30
-24 -23 -53 7 -33 4 -37 -10 -17 -15 22 -25 16 -47 -29 -15 -31 -49 -68 -77
-82 -79 -40 -15 -30 154 24 306 97 411 193 331 300 -21 29 -27 30 -19 7z
m-850 -213 c-9 -48 -103 -45 -113 4 -4 20 5 44 19 53 37 23 102 -17 94 -57z"/>
<path d="M1 2860 c0 -108 6 -141 20 -116 11 18 49 58 84 87 36 29 55 48 42 41
-13 -7 -51 22 -84 63 l-62 75 0 -150z"/>
<path d="M2343 2717 c9 -61 87 -67 87 -7 0 27 -16 42 -47 47 -38 5 -45 -2 -40
-40z"/>
<path d="M2455 2665 c-4 -19 4 -59 18 -87 14 -29 20 -59 13 -66 -8 -7 -26 17
-42 53 -16 36 -32 55 -37 44 -7 -20 84 -249 100 -249 6 0 4 151 -4 285 -3 61
-36 75 -48 20z"/>
<path d="M5364 2430 c129 -173 161 -226 167 -279 3 -26 26 -75 51 -109 25 -34
40 -67 33 -73 -6 -7 -27 10 -45 38 -18 28 -82 93 -142 144 l-108 92 78 -146
c112 -209 150 -353 149 -572 l0 -185 37 55 c65 98 125 345 76 315 -11 -7 -20
7 -20 30 0 23 9 37 20 30 33 -21 23 117 -20 254 -37 120 -148 312 -235 406
-98 107 -121 107 -41 0z"/>
<path d="M168 2382 c-105 -50 -161 -88 -161 -109 0 -43 8 -42 81 14 34 26 112
75 172 110 148 85 106 78 -92 -15z"/>
<path d="M5220 2389 c0 -15 31 -49 68 -74 38 -25 105 -75 150 -112 45 -36 82
-59 82 -49 0 9 -47 53 -104 96 -57 44 -124 100 -150 124 -33 32 -46 36 -46 15z"/>
<path d="M2585 2200 c38 -103 183 -419 189 -412 9 8 -168 414 -188 431 -7 6
-7 -2 -1 -19z"/>
<path d="M2660 2175 c1 -53 38 -88 59 -56 12 19 11 39 -3 55 -27 33 -56 33
-56 1z"/>
<path d="M3570 1980 c5 -9 -4 -21 -21 -28 -18 -6 -26 -3 -19 8 22 36 -45 21
-173 -40 -70 -33 -155 -60 -189 -60 l-61 0 14 -125 c18 -156 54 -503 70 -675
l12 -130 -143 -155 -143 -155 62 -215 c104 -354 123 -405 151 -405 31 0 26 50
-20 206 -21 69 -22 95 -6 89 13 -4 27 -38 31 -75 10 -88 55 -156 72 -111 7 19
1 31 -16 31 -19 0 -26 15 -20 45 5 25 2 63 -8 85 -78 178 -104 358 -34 230 27
-49 51 -112 52 -140 3 -37 6 -41 13 -14 5 20 -9 83 -31 140 -53 134 -62 206
-26 198 17 -3 24 6 17 24 -6 16 2 34 18 40 17 7 25 3 18 -8 -7 -11 -8 -20 -3
-20 6 0 30 40 55 89 24 49 53 84 63 78 21 -13 10 273 -12 308 -8 12 -4 28 7
35 11 7 14 23 6 36 -24 38 -19 81 14 124 28 37 28 37 -6 11 -37 -28 -45 55 -9
90 7 8 2 30 -11 51 -25 41 32 116 82 106 14 -3 15 0 4 5 -15 8 -13 21 4 43 30
36 -8 20 -64 -27 -16 -14 -55 -32 -85 -40 -109 -27 -57 45 95 132 144 83 199
136 72 70 -34 -18 -62 -25 -62 -17 0 9 -8 4 -18 -11 -9 -15 -34 -23 -54 -19
-68 15 152 101 272 107 61 3 91 1 69 -4 -38 -8 -42 -25 -46 -176 -3 -93 -13
-198 -24 -234 -10 -37 -19 -110 -19 -162 0 -52 -7 -95 -16 -95 -9 0 -17 -20
-18 -45 -6 -103 -46 -275 -64 -275 -28 0 -19 -94 18 -193 21 -56 32 -108 26
-115 -7 -7 -4 -12 7 -12 11 0 30 146 44 336 13 184 42 437 64 562 21 125 39
261 39 303 0 75 101 107 156 49 8 -8 -8 -8 -36 0 -47 14 -46 11 17 -56 l68
-71 -80 -76 c-88 -84 -109 -181 -100 -452 2 -63 -6 -124 -18 -136 -13 -13 -16
-52 -6 -105 9 -46 10 -92 4 -102 -6 -10 -1 -12 12 -4 29 18 29 1 2 -50 -16
-30 -14 -41 11 -51 18 -7 28 -24 22 -39 -6 -15 -1 -32 9 -39 11 -6 15 -20 9
-29 -6 -9 -3 -22 7 -28 15 -9 17 -44 6 -119 -2 -10 -18 -12 -36 -5 -26 10 -28
7 -10 -15 29 -34 55 -216 31 -212 -67 13 -98 -2 -56 -27 44 -25 45 -38 11
-149 -17 -55 -15 -65 12 -65 17 0 26 6 19 12 -7 7 -1 24 13 38 13 13 58 139
100 279 l75 254 -92 164 c-54 95 -89 180 -84 203 5 22 42 184 83 360 40 176
79 376 85 444 l12 123 -78 33 c-43 19 -100 43 -128 55 -68 29 -102 35 -90 15z"/>
<path d="M5082 1879 c-26 -118 -58 -185 -168 -347 -43 -65 -69 -111 -57 -104
29 18 32 -323 4 -367 -26 -42 -50 21 -35 95 30 152 -13 173 -50 24 -37 -153
-124 -319 -174 -336 -18 -6 -22 -1 -12 16 11 17 8 21 -7 12 -13 -8 -46 25 -83
85 -39 63 -84 108 -125 125 -36 14 -72 35 -80 47 -32 46 -13 -33 37 -160 29
-72 48 -135 43 -141 -11 -11 -66 117 -107 247 -18 58 -19 85 -5 85 14 0 13 11
-3 30 -14 16 -20 48 -14 70 6 23 2 35 -9 28 -59 -36 111 -599 174 -575 14 5
31 -7 37 -28 33 -102 133 -229 163 -204 23 19 36 18 60 -2 17 -14 23 -31 14
-37 -10 -7 12 -38 49 -69 66 -57 66 -57 59 -10 -5 32 -19 45 -42 41 -19 -4
-30 1 -24 11 6 10 -43 71 -109 137 -67 65 -140 145 -163 178 -25 37 5 16 77
-53 65 -62 156 -132 203 -155 82 -42 85 -46 85 -140 0 -94 4 -101 145 -234
l145 -138 140 -4 c138 -5 139 -4 86 29 -44 27 -56 51 -61 124 l-8 91 -3 -95
c-5 -127 -89 -109 -254 56 -27 28 -59 46 -69 40 -10 -7 -25 -1 -33 12 -9 15
-5 18 10 8 19 -11 18 -5 -1 26 -15 25 -31 33 -38 21 -7 -12 -19 13 -26 55 -21
127 -20 129 42 103 65 -28 114 -69 59 -49 -22 8 -31 5 -23 -8 7 -12 23 -18 36
-13 13 4 50 -4 83 -17 l60 -25 0 229 c0 211 -2 226 -30 184 -16 -25 -51 -68
-77 -96 l-47 -51 43 64 c80 121 124 248 141 412 10 90 23 196 28 234 6 39 -2
21 -19 -40 -16 -60 -30 -152 -31 -202 -1 -126 -98 -331 -169 -358 -70 -27 -78
-25 -49 10 22 26 20 29 -10 17 -28 -11 -32 -7 -19 15 10 15 19 34 19 41 0 29
27 38 41 15 10 -16 7 -19 -11 -8 -17 11 -21 8 -12 -7 25 -40 172 138 172 206
0 12 -27 -26 -61 -84 -83 -146 -90 -131 -9 23 95 183 139 397 120 589 -9 84
-16 214 -17 288 -2 162 -4 163 -31 34z m-9 -375 c10 -105 27 -139 27 -54 0 31
6 51 12 44 48 -48 -78 -421 -194 -574 -38 -49 -67 -111 -66 -136 5 -85 -195
-179 -263 -123 -32 27 66 91 124 82 13 -2 30 5 37 16 7 13 -2 16 -24 8 -24 -9
-15 10 27 55 164 177 247 403 247 676 0 202 54 207 73 6z m-641 -591 c47 19
91 -31 67 -75 -37 -70 -124 -5 -117 88 1 18 3 18 11 0 5 -13 23 -19 39 -13z
m341 -28 c-40 -76 -181 -184 -207 -157 -19 19 136 189 180 198 24 5 46 10 50
11 3 2 -8 -22 -23 -52z m-223 -125 c-25 -27 -44 -34 -57 -21 -13 13 -8 34 17
61 25 27 44 34 57 21 13 -13 8 -34 -17 -61z"/>
<path d="M5774 1769 c6 -247 -95 -472 -233 -519 -58 -20 -106 -152 -60 -165
22 -5 39 -26 39 -45 0 -44 47 -64 110 -48 30 7 43 22 37 40 -6 15 -2 28 9 28
11 0 24 -10 28 -22 13 -38 96 48 124 129 22 65 22 101 -2 220 -15 79 -27 157
-27 173 3 85 11 120 28 120 10 0 13 -18 7 -40 -6 -22 -2 -40 8 -40 10 0 20
-61 22 -135 3 -132 4 -133 11 -26 7 107 -34 338 -81 447 -21 49 -23 34 -20
-117z"/>
<path d="M133 1458 c-16 -80 -17 -148 -1 -132 13 13 32 194 20 194 -4 0 -13
-28 -19 -62z"/>
<path d="M4542 1275 c-1 -20 -10 -51 -19 -70 -37 -74 -59 -165 -42 -176 22
-13 85 199 73 246 -9 33 -9 33 -12 0z"/>
<path d="M1800 1050 c0 -23 86 -191 102 -201 27 -17 22 -1 -33 109 -46 91 -69
122 -69 92z"/>
<path d="M2165 526 c-48 -9 -68 -149 -25 -176 12 -7 14 -23 7 -36 -8 -13 8 -6
35 16 26 22 51 41 54 42 3 2 -13 8 -35 14 -26 6 -36 2 -28 -11 7 -12 4 -16 -7
-9 -38 24 -5 110 47 123 41 10 51 56 11 48 -8 -1 -34 -6 -59 -11z"/>
<path d="M240 485 c1 -30 3 -30 19 -5 15 24 24 25 44 5 14 -14 46 -25 71 -25
59 0 58 -23 -4 -96 -27 -33 -50 -68 -50 -78 0 -10 -27 -44 -60 -76 -37 -36
-53 -65 -42 -76 23 -23 207 121 191 148 -17 28 17 21 64 -11 52 -37 107 -150
107 -219 0 -48 6 -52 85 -50 69 2 75 5 35 16 -53 15 -59 69 -15 151 18 35 24
30 57 -50 20 -49 36 -77 37 -63 4 100 -176 354 -298 419 -105 56 -241 62 -241
10z"/>
<path d="M4090 420 c-8 -55 -31 -157 -52 -225 -48 -159 -48 -195 1 -195 21 0
42 16 47 35 8 29 10 29 12 3 2 -26 29 -33 133 -36 l131 -3 -100 191 c-55 105
-106 223 -113 261 -19 98 -43 85 -59 -31z"/>
<path d="M0 296 c0 -108 7 -151 25 -151 99 4 118 -37 54 -118 -28 -35 -27 -35
21 -4 28 17 50 46 50 63 0 17 9 39 18 48 11 9 12 5 4 -9 -8 -14 -4 -25 8 -25
38 0 -93 260 -170 337 -6 5 -10 -58 -10 -141z"/>
<path d="M1860 140 c-247 -126 -264 -138 -195 -139 52 -1 75 8 75 28 0 15 18
34 39 41 73 23 408 220 356 209 -3 -1 -126 -63 -275 -139z"/>
<path d="M1863 57 c-48 -22 -83 -44 -78 -49 5 -5 58 14 117 41 59 28 95 50 78
49 -16 -1 -69 -19 -117 -41z"/>
</g>
</svg>
