<?xml version="1.0" standalone="no"?>
<!DOCTYPE svg PUBLIC "-//W3C//DTD SVG 20010904//EN"
 "http://www.w3.org/TR/2001/REC-SVG-20010904/DTD/svg10.dtd">
<svg version="1.0" xmlns="http://www.w3.org/2000/svg"
 width="300.000000pt" height="370.000000pt" viewBox="0 0 300.000000 370.000000"
 preserveAspectRatio="xMidYMid meet">
<metadata>
Created by potrace 1.10, written by Peter Selinger 2001-2011
</metadata>
<g transform="translate(0.000000,370.000000) scale(0.100000,-0.100000)"
fill="#000000" stroke="none">
<path d="M1455 3691 c-3 -6 -37 -31 -77 -57 -39 -26 -73 -56 -76 -66 -2 -10
-8 -18 -12 -18 -4 0 -7 -15 -6 -32 1 -31 -1 -33 -29 -31 -78 6 -97 3 -142 -22
-27 -16 -58 -33 -71 -39 -12 -6 -25 -19 -28 -29 -3 -9 -9 -15 -14 -12 -4 3
-28 -13 -52 -35 -23 -22 -47 -40 -51 -40 -5 0 -5 -10 -2 -22 4 -16 3 -19 -3
-10 -7 10 -18 11 -43 5 -40 -11 -111 -6 -120 9 -4 6 -16 7 -29 3 -15 -5 -25
-2 -31 6 -6 10 -9 8 -9 -8 0 -12 -3 -29 -6 -37 -5 -12 -2 -15 10 -10 9 3 16
11 16 18 0 8 14 10 43 7 l42 -5 -35 -7 c-24 -6 -17 -7 25 -3 45 3 56 1 45 -7
-12 -8 -9 -9 13 -4 19 4 26 2 22 -5 -18 -30 58 19 140 90 73 62 155 117 195
132 41 14 87 4 144 -33 27 -16 50 -28 52 -27 2 2 -8 17 -22 33 -14 17 -23 24
-19 18 3 -7 2 -13 -3 -13 -5 0 -12 10 -16 23 -11 41 -6 74 14 100 26 32 155
135 147 116 -3 -8 -24 -57 -47 -109 -31 -70 -41 -104 -38 -132 2 -21 1 -38 -2
-39 -3 0 -48 -1 -100 -2 -91 -2 -98 -4 -165 -42 -38 -22 -74 -42 -80 -44 -5
-2 -23 -14 -40 -26 -16 -12 -52 -32 -78 -45 -54 -25 -57 -34 -8 -20 l33 9 -18
-21 c-19 -21 -19 -21 2 -10 11 6 27 18 34 27 25 30 124 102 180 130 68 34 165
45 195 21 19 -15 19 -15 -10 -16 -81 -1 -244 -146 -285 -254 -15 -41 -5 -31
28 27 51 89 98 135 183 177 43 22 83 40 88 40 6 0 6 -12 0 -32 -17 -58 13
-186 61 -262 19 -29 35 -44 42 -40 6 4 8 3 5 -4 -4 -5 15 -30 41 -54 62 -55
93 -137 91 -242 -2 -62 -3 -66 -9 -31 -11 60 -11 3 0 -80 5 -38 7 -71 6 -73
-5 -5 -101 87 -101 97 0 13 -14 26 -28 26 -5 0 -12 6 -15 14 -3 9 0 11 9 6 8
-5 11 -4 6 1 -5 5 -14 9 -19 9 -6 0 -13 6 -16 14 -3 8 0 11 6 7 6 -4 0 19 -15
50 -26 57 -53 147 -52 174 0 8 8 -10 18 -40 39 -120 159 -325 179 -305 2 2
-15 27 -38 56 -76 96 -160 294 -160 379 0 49 -16 50 -17 0 0 -27 3 -47 8 -45
4 3 5 -9 3 -27 -3 -18 -1 -58 5 -88 6 -30 13 -66 15 -80 6 -32 52 -137 58
-130 6 7 69 -66 63 -74 -3 -3 -2 -4 1 -2 3 2 23 -15 46 -38 22 -22 37 -35 33
-28 -3 6 -2 12 4 12 5 0 12 -6 14 -12 3 -7 6 8 6 33 1 35 7 50 25 66 31 28 43
17 15 -13 -17 -18 -19 -27 -11 -37 7 -8 8 -17 4 -22 -4 -4 3 -3 15 4 12 6 25
15 28 21 3 5 11 7 18 5 47 -14 67 -15 67 -1 0 8 -6 17 -12 19 -8 3 -6 6 5 6 9
1 17 -3 17 -9 0 -5 9 -10 20 -10 11 0 20 7 20 15 0 10 10 15 30 15 34 0 35 -2
18 -33 -15 -29 -38 -46 -62 -47 -16 0 -17 3 -8 12 20 20 13 32 -8 13 -14 -13
-28 -16 -50 -11 -18 3 -29 2 -25 -3 3 -5 -5 -11 -17 -13 -13 -2 15 -5 62 -6
73 -2 88 1 102 17 9 11 14 21 12 23 -2 3 7 15 21 28 14 13 25 19 25 13 0 -11
-30 -109 -45 -148 -6 -14 -1 -11 15 8 12 15 20 30 17 33 -3 3 0 23 8 43 34 97
42 322 15 408 -10 29 -8 -15 6 -159 9 -87 -5 -67 -26 40 -17 82 -74 221 -87
208 -3 -3 4 -21 15 -41 12 -19 17 -35 12 -35 -22 0 -122 114 -193 221 -43 66
-103 141 -136 171 l-59 55 44 22 c182 88 451 -132 529 -434 15 -57 38 -367 29
-390 -3 -6 3 -19 11 -30 16 -20 16 -20 11 0 -13 54 -17 145 -7 145 6 0 13 -12
17 -27 3 -16 18 -57 34 -93 15 -36 31 -75 35 -88 9 -30 54 -82 71 -82 12 0 12
4 2 23 -7 12 -18 29 -24 37 -6 8 -14 24 -16 35 -3 11 -9 29 -13 40 -6 16 -5
18 5 8 7 -6 19 -9 26 -6 18 7 0 24 -43 42 -35 14 -60 38 -50 48 4 3 15 0 24
-8 10 -7 6 0 -8 16 -36 40 -69 96 -69 117 0 16 3 15 43 -2 23 -10 65 -21 92
-25 l50 -7 -38 28 c-54 40 -106 121 -148 233 -5 13 -12 21 -15 18 -10 -10 72
-170 110 -213 35 -41 35 -41 11 -41 -13 0 -23 3 -22 7 1 4 -17 26 -40 48 -23
23 -44 52 -47 64 -33 180 -80 293 -160 386 -100 117 -192 172 -301 182 l-70 6
50 16 c28 9 41 17 30 17 -39 2 -95 -20 -140 -55 -25 -19 -50 -32 -55 -29 -13
8 -12 66 0 85 8 11 9 7 5 -15 -6 -26 -4 -25 13 10 46 94 107 121 250 109 118
-10 194 -7 247 12 54 19 61 18 40 -6 -10 -11 -22 -17 -28 -13 -5 3 -7 1 -3 -5
7 -11 -52 -52 -75 -52 -8 1 -2 8 14 16 15 8 27 17 27 20 0 3 -6 2 -12 -3 -7
-4 -47 -15 -88 -24 l-75 -17 52 -1 c76 -1 164 -33 267 -95 82 -49 179 -87 192
-74 2 3 -40 27 -93 54 -54 26 -102 54 -108 60 -5 7 -36 25 -69 40 l-59 28 24
18 c43 32 60 52 55 64 -3 7 3 15 12 18 9 2 1 3 -18 1 -19 -3 -46 -8 -60 -12
-14 -3 -99 -8 -189 -9 -90 -2 -179 -8 -200 -15 -49 -16 -93 -48 -85 -62 5 -9
4 -9 -6 0 -10 9 -6 26 23 87 26 54 32 76 22 76 -8 0 -16 -4 -20 -9z m13 -334
c49 -34 94 -89 173 -212 36 -55 89 -121 118 -147 53 -48 52 -61 -3 -33 -15 8
-33 12 -39 8 -5 -3 -7 -1 -4 4 9 14 -18 24 -40 16 -10 -3 -15 -2 -11 2 5 5
-18 25 -51 46 -32 22 -78 60 -102 86 -24 27 -48 47 -52 45 -5 -1 -6 2 -2 7 3
6 -4 27 -15 48 -11 21 -20 46 -20 57 0 11 -3 16 -6 13 -22 -22 52 -242 107
-317 16 -22 26 -40 22 -40 -10 0 39 -39 49 -40 4 0 -7 15 -23 33 -34 36 -104
155 -96 163 3 3 17 -11 32 -30 15 -20 42 -45 61 -57 26 -15 37 -33 49 -72 34
-113 55 -314 32 -300 -4 3 -18 -2 -30 -10 -22 -14 -22 -14 -22 49 0 42 3 58 8
47 7 -11 11 -12 17 -3 5 8 9 7 13 -4 4 -9 3 -15 -1 -15 -19 3 -22 -3 -12 -21
16 -30 30 -24 25 10 -4 35 -13 52 -25 45 -4 -3 -11 2 -14 11 -3 8 -2 12 4 9 5
-3 -4 25 -21 62 -39 85 -51 117 -47 120 2 1 -13 19 -33 40 -20 21 -50 57 -66
80 -17 23 -33 40 -37 38 -3 -3 -4 -2 -1 1 2 4 -4 19 -15 34 -64 89 -54 263 15
256 14 -2 42 -15 63 -29z m61 -265 c20 -18 56 -47 81 -64 32 -21 38 -28 20
-24 -20 5 -18 3 8 -12 18 -10 30 -21 27 -24 -10 -9 33 -20 46 -12 8 5 9 3 4
-6 -6 -10 -3 -12 13 -8 23 6 28 -2 60 -112 24 -81 36 -150 26 -150 -11 0 -54
42 -54 53 0 6 10 2 22 -9 11 -10 -2 10 -30 45 -29 36 -66 93 -84 127 -22 42
-35 59 -41 51 -5 -7 -5 -2 -2 12 5 16 4 21 -4 17 -6 -4 -11 0 -11 8 0 9 -4 16
-8 16 -5 0 -17 7 -28 16 -18 14 -18 15 4 4 39 -19 36 -4 -3 19 -44 26 -52 26
-34 4 13 -16 12 -17 -3 -4 -10 7 -16 17 -13 21 2 3 -14 24 -35 45 -22 22 -40
43 -40 49 0 9 7 4 79 -62z m271 -162 c-12 -7 -8 -10 15 -10 24 0 27 2 15 11
-13 9 -13 10 0 7 18 -5 28 -38 29 -98 1 -31 4 -41 10 -31 7 11 11 4 16 -25 12
-75 12 -83 4 -78 -17 10 -91 126 -85 132 4 3 13 -3 22 -14 15 -18 -31 69 -48
92 -10 13 0 24 21 24 14 0 14 -2 1 -10z m-129 -62 c10 -13 18 -27 19 -32 0 -5
16 -30 36 -55 l36 -46 -44 47 c-44 47 -84 108 -73 108 4 0 15 -10 26 -22z m4
-57 c11 -14 14 -21 8 -17 -7 4 -13 3 -13 -2 0 -12 35 -43 42 -37 3 3 13 -5 24
-17 l19 -23 -25 20 c-21 16 -20 14 4 -13 17 -17 36 -32 43 -32 29 0 2 -18 -37
-24 -22 -3 -40 -11 -40 -16 0 -13 -2 -13 55 7 47 16 49 16 66 -5 23 -29 31
-28 19 4 -10 25 -9 26 19 22 17 -2 28 -1 25 4 -3 4 -16 8 -30 8 -13 0 -24 3
-24 8 0 4 -5 24 -9 46 -5 21 -6 35 -2 30 57 -70 81 -107 81 -127 0 -24 -3 -25
-87 -30 -112 -6 -159 -20 -167 -49 -4 -19 -8 -20 -18 -10 -11 11 -8 18 15 38
15 13 38 24 50 24 21 0 21 1 -3 18 -20 13 -25 26 -25 57 0 22 -4 64 -7 94 -4
29 -6 52 -5 50 1 -2 11 -15 22 -28z m445 -39 c-15 -6 -70 28 -70 43 0 11 11 7
39 -13 21 -15 35 -28 31 -30z"/>
<path d="M1380 3570 c-6 -11 -13 -44 -16 -73 l-4 -52 14 62 c8 35 18 67 21 73
3 5 4 10 1 10 -3 0 -10 -9 -16 -20z"/>
<path d="M1960 3399 c48 -29 81 -61 162 -156 81 -97 102 -112 118 -83 8 15 8
18 -3 14 -8 -3 -29 14 -51 41 -21 25 -34 45 -29 45 4 0 2 4 -6 9 -23 14 -5 38
33 45 71 13 46 25 -40 19 -61 -4 -85 -3 -81 4 4 6 17 9 30 6 12 -2 -4 7 -36
20 -31 14 -68 32 -82 41 -13 9 -30 16 -37 16 -7 0 3 -10 22 -21z"/>
<path d="M627 3299 c-9 -6 -21 -8 -25 -5 -5 3 -9 -1 -9 -9 0 -8 4 -12 9 -9 4
3 8 0 8 -6 0 -7 -7 -9 -16 -6 -9 3 -17 6 -20 6 -2 0 -2 6 0 13 1 6 1 9 -1 5
-3 -5 -11 -8 -18 -8 -8 0 -20 -8 -27 -19 -7 -10 -20 -17 -28 -15 -8 2 -25 5
-36 8 -25 5 -64 -33 -64 -63 0 -11 -5 -21 -12 -23 -6 -2 -12 -15 -13 -28 -1
-13 -7 -26 -15 -28 -7 -3 -10 0 -6 6 10 17 -17 20 -41 4 -13 -8 -31 -11 -40
-7 -33 13 -73 14 -73 3 0 -6 3 -8 7 -4 4 3 13 -17 20 -46 8 -29 21 -60 29 -68
14 -13 14 -12 5 11 -9 24 -7 26 15 21 13 -2 24 -6 24 -8 0 -18 -34 -83 -43
-81 -6 1 -15 -8 -22 -19 -6 -12 -17 -29 -23 -37 -12 -14 -9 -14 22 -5 28 9 33
14 25 25 -11 13 -3 18 27 14 6 -1 14 13 18 31 3 18 10 51 14 73 6 30 5 44 -5
53 -10 10 -9 16 5 30 20 21 34 7 27 -28 -2 -12 -3 -21 -2 -19 2 2 27 30 57 62
50 53 52 59 41 83 -16 36 -6 42 23 15 l25 -23 58 23 c56 23 107 63 101 79 -2
5 -11 4 -21 -1z"/>
<path d="M2983 3240 c0 -36 2 -50 4 -32 2 17 2 47 0 65 -2 17 -4 3 -4 -33z"/>
<path d="M2120 3195 c74 -108 113 -150 160 -175 l35 -19 -71 -1 c-49 0 -76 5
-90 16 -18 15 -17 15 15 10 39 -7 37 -1 -11 22 -18 10 -33 22 -33 27 0 6 -12
26 -27 45 -50 63 -31 15 50 -130 50 -88 105 -160 124 -160 15 0 8 18 -28 70
-38 56 -37 67 11 71 17 2 38 10 47 17 22 18 13 37 -44 92 -31 29 -37 40 -24
40 9 0 14 5 11 10 -4 6 -10 8 -15 5 -10 -6 -81 26 -76 34 2 3 -18 31 -46 61
l-49 55 61 -90z"/>
<path d="M1296 3219 c-9 -30 -20 -101 -25 -159 -5 -58 -12 -116 -16 -130 l-6
-25 15 25 15 25 1 -25 c0 -34 -54 -162 -65 -152 -4 4 -6 2 -2 -3 3 -6 1 -31
-4 -57 -9 -38 -13 -45 -30 -41 -10 3 -19 14 -19 24 0 21 16 26 23 7 2 -7 3 -4
1 7 -2 11 -4 47 -4 81 0 56 -2 61 -22 60 -29 -1 -37 -25 -44 -136 -5 -68 -2
-97 14 -147 11 -35 18 -63 16 -63 -2 0 -13 17 -24 38 -14 24 -18 28 -14 12 11
-40 43 -106 43 -91 1 11 6 10 23 -5 17 -14 19 -15 9 -2 -16 21 -43 108 -33
108 9 0 37 -42 34 -52 -6 -22 166 -34 186 -13 4 4 -6 5 -22 1 -26 -6 -28 -5
-17 8 9 11 10 16 2 16 -6 0 -11 -4 -11 -10 0 -16 -32 -12 -52 7 -20 18 -25 5
-5 -16 10 -11 7 -12 -18 -7 -36 9 -61 30 -68 57 -4 16 0 19 24 19 19 0 29 -5
29 -15 0 -9 9 -15 24 -15 14 0 28 -5 31 -10 4 -7 11 -7 18 -2 17 13 67 24 67
15 0 -5 9 -14 19 -20 18 -11 18 -10 5 16 -18 36 -79 53 -173 50 -36 -1 -67 1
-68 4 -2 4 -3 21 -3 37 0 44 35 42 45 -2 l8 -33 4 28 c5 32 7 32 64 12 24 -9
50 -13 59 -10 10 4 12 3 5 -3 -5 -6 -19 -12 -30 -15 -16 -4 -15 -5 6 -6 14 0
34 5 44 13 17 13 14 15 -40 26 -96 19 -98 19 -90 43 4 12 9 33 12 47 4 14 12
30 18 35 7 6 15 19 19 29 5 16 4 17 -8 7 -13 -11 -13 -6 1 28 9 22 19 38 24
35 4 -2 11 -26 15 -52 7 -47 44 -131 73 -165 15 -17 14 -20 -5 -36 l-21 -17
31 -17 c31 -17 31 -17 8 2 -14 13 -18 21 -10 23 13 5 62 -35 64 -52 1 -6 2
-14 3 -18 1 -7 31 -13 31 -7 0 1 -14 26 -31 56 -17 30 -28 45 -25 34 6 -20 6
-20 -10 0 -32 41 -74 134 -67 151 5 12 3 15 -6 9 -10 -6 -11 -2 -6 15 5 17 4
21 -6 15 -9 -6 -11 -3 -6 8 3 10 3 17 -1 17 -13 0 -32 127 -32 217 0 49 7 115
14 148 18 75 12 85 -8 14z m-132 -403 c3 -14 -1 -51 -9 -82 -8 -32 -16 -70
-17 -84 -1 -14 -4 4 -7 40 -6 64 5 150 20 150 4 0 10 -11 13 -24z"/>
<path d="M2 2791 c-1 -250 1 -451 4 -448 4 3 7 90 7 192 0 139 4 188 13 196
11 9 10 16 -3 35 -12 19 -13 30 -5 48 5 12 6 29 2 37 -5 8 -7 77 -6 154 2 77
0 163 -4 190 -4 28 -8 -154 -8 -404z"/>
<path d="M2846 3118 c1 -60 5 -112 8 -115 3 -4 6 44 6 105 0 61 -3 113 -8 116
-4 2 -7 -45 -6 -106z"/>
<path d="M644 3189 c-10 -16 11 -31 37 -26 22 4 22 4 -3 6 -16 0 -28 6 -28 12
0 6 8 8 18 5 9 -2 27 -7 39 -11 26 -7 46 2 37 17 -4 6 -10 5 -16 -3 -7 -11
-11 -11 -15 -1 -6 15 -59 16 -69 1z"/>
<path d="M524 3184 c3 -7 -1 -17 -9 -24 -17 -14 -20 -30 -5 -30 6 0 9 3 9 8
-3 18 2 26 10 14 6 -10 11 -9 22 5 7 10 9 15 5 11 -5 -4 -15 0 -23 10 -8 9
-12 12 -9 6z"/>
<path d="M845 3161 c11 -13 19 -26 17 -30 -2 -3 5 -7 15 -8 15 -2 15 -1 -2 6
-19 9 -19 10 3 10 13 1 20 5 17 11 -4 6 -11 8 -16 4 -6 -3 -20 2 -32 13 l-22
18 20 -24z"/>
<path d="M572 3154 c-30 -21 -28 -44 3 -44 18 0 23 4 19 15 -4 9 0 15 10 15
26 0 31 -4 28 -24 -4 -30 17 -46 63 -46 34 0 44 4 48 20 4 18 0 20 -36 20 -44
0 -47 -9 -4 -12 32 -3 25 -18 -9 -18 -14 0 -27 7 -30 15 -4 8 -11 12 -18 8 -6
-3 -5 0 2 8 7 8 32 14 56 14 32 0 42 3 38 13 -3 10 -20 13 -53 10 -33 -2 -50
1 -54 10 -6 17 -36 15 -63 -4z"/>
<path d="M752 3153 c2 -10 10 -18 18 -19 8 0 23 -4 33 -9 11 -4 23 -3 29 3 18
18 -10 42 -49 42 -27 0 -34 -4 -31 -17z"/>
<path d="M475 3094 c-34 -37 -33 -56 3 -48 30 7 55 32 45 47 -3 5 -9 3 -14 -4
-5 -8 -9 -9 -9 -3 0 18 13 24 27 13 10 -9 13 -8 13 5 0 25 -38 19 -65 -10z"/>
<path d="M825 3110 c-11 -4 -30 -6 -41 -4 -26 5 -41 -31 -17 -40 8 -3 12 -2 9
3 -7 10 46 22 54 13 3 -4 12 -8 20 -10 12 -3 13 -1 3 9 -7 7 -13 17 -13 23 0
6 5 5 11 -1 6 -6 19 -9 28 -6 14 4 14 3 1 -6 -8 -5 -11 -13 -7 -17 4 -4 13 -2
19 4 17 17 26 15 31 -5 4 -14 5 -12 6 5 1 21 -2 23 -49 27 -8 0 -20 3 -25 7
-6 3 -19 2 -30 -2z"/>
<path d="M585 3102 c-28 -4 -43 -16 -43 -36 0 -5 -5 -12 -12 -16 -18 -11 6
-60 30 -60 23 0 23 0 10 36 -7 19 -7 30 1 40 15 18 45 18 53 -1 5 -15 -18 -45
-35 -45 -6 0 -7 -4 -4 -10 11 -17 24 -11 40 20 22 42 3 76 -40 72z"/>
<path d="M1196 3075 c-22 -51 -57 -167 -53 -172 13 -12 37 14 42 45 3 21 12
64 19 97 16 71 13 82 -8 30z"/>
<path d="M2980 2155 c-2 -528 -3 -971 -3 -985 0 -14 2 -180 3 -370 2 -210 6
-326 10 -295 10 61 10 1856 1 2295 -6 240 -8 86 -11 -645z"/>
<path d="M940 3068 c0 -27 35 -76 46 -65 4 4 -1 15 -10 26 -9 10 -18 28 -19
40 -2 28 -17 27 -17 -1z"/>
<path d="M406 3048 c3 -4 1 -8 -5 -8 -6 0 -15 -10 -21 -22 -10 -21 -10 -22 3
-5 9 11 18 14 21 8 4 -6 -2 -19 -14 -31 -18 -18 -18 -20 -2 -20 17 0 52 50 52
75 0 8 -9 13 -19 12 -11 0 -17 -5 -15 -9z"/>
<path d="M651 3045 c-28 -35 -31 -55 -16 -85 13 -26 21 -30 55 -30 34 0 42 4
55 30 17 33 20 60 5 60 -5 0 -10 6 -10 14 0 9 -8 12 -26 8 -16 -3 -24 -1 -21
4 8 13 -32 12 -42 -1z m54 -40 c0 -13 -8 -21 -22 -23 -17 -3 -23 2 -23 16 0
10 3 22 7 26 13 13 38 1 38 -19z"/>
<path d="M761 3038 c10 -23 18 -28 48 -28 28 0 38 5 47 25 12 24 12 24 -17 10
-37 -20 -59 -19 -76 3 -12 15 -12 13 -2 -10z"/>
<path d="M879 3043 c-1 -5 -1 -11 0 -15 0 -5 -3 -8 -9 -8 -15 0 -12 -28 6 -55
19 -29 74 -36 74 -10 0 16 -20 16 -31 1 -4 -5 -17 1 -30 13 l-23 21 22 30 c18
24 20 30 7 30 -8 0 -16 -3 -16 -7z"/>
<path d="M1036 3025 c-3 -8 -11 -14 -18 -13 -7 2 -11 -4 -9 -12 9 -39 3 -87
-15 -104 -14 -15 -14 -16 3 -16 13 0 19 8 21 27 4 46 12 38 12 -11 0 -31 4
-45 11 -41 6 4 8 22 4 45 -4 23 -2 41 4 45 6 3 11 14 10 23 0 12 -3 10 -10 -6
-5 -13 -14 -20 -19 -17 -8 5 -8 11 0 20 6 7 8 20 4 29 -7 19 7 21 25 4 11 -11
13 -10 7 5 -3 10 -6 23 -6 28 0 15 -17 10 -24 -6z"/>
<path d="M454 3006 c0 -12 6 -23 13 -23 7 0 9 5 6 10 -3 6 -1 7 5 3 7 -4 12
-2 12 5 0 7 3 10 6 7 3 -4 -2 -18 -11 -32 -13 -19 -21 -23 -30 -16 -6 5 -14 7
-18 4 -3 -3 -3 5 0 18 4 18 3 20 -6 8 -13 -18 -15 -53 -2 -46 5 4 7 -4 3 -16
-4 -17 -2 -20 12 -15 10 4 24 7 31 7 8 0 11 7 8 20 -4 14 2 22 21 30 23 8 25
12 15 33 -15 34 -67 36 -65 3z"/>
<path d="M756 2953 c-17 -35 -17 -36 1 -22 16 13 17 13 4 -3 -21 -28 9 -68 52
-68 28 0 36 5 50 36 16 33 16 37 0 65 -14 23 -24 29 -53 29 -32 0 -38 -4 -54
-37z m82 -10 c2 -14 -4 -26 -17 -33 -12 -6 -21 -9 -21 -8 0 2 -4 17 -9 34 -8
29 -7 31 18 30 19 -1 27 -7 29 -23z"/>
<path d="M966 2968 c-9 -34 -7 -48 5 -48 5 0 7 5 4 10 -3 6 -3 20 0 31 6 17 9
18 16 8 4 -7 11 -10 16 -6 4 5 1 12 -7 17 -22 14 -27 12 -34 -12z"/>
<path d="M525 2943 c-23 -56 -7 -88 44 -88 35 -1 41 3 55 32 15 31 15 37 1 63
-13 25 -22 30 -50 30 -31 0 -37 -4 -50 -37z m80 10 c9 -13 9 -22 -2 -45 -8
-15 -18 -28 -22 -28 -14 0 -51 32 -50 43 0 9 2 9 6 0 4 -10 9 -10 26 -1 12 7
25 11 30 10 4 -1 7 3 7 9 0 7 -12 10 -30 7 -30 -5 -41 6 -17 15 23 10 40 7 52
-10z"/>
<path d="M2090 2962 c0 -5 36 -57 80 -115 54 -71 94 -114 123 -131 24 -15 47
-26 50 -26 10 0 9 30 0 30 -13 1 -98 80 -85 80 22 0 0 28 -32 42 -18 7 -56 39
-84 71 -29 31 -52 53 -52 49z"/>
<path d="M369 2953 c0 -5 -2 -32 -2 -60 -2 -44 1 -53 15 -53 10 0 18 5 18 11
0 5 -4 7 -10 4 -6 -4 -6 3 0 21 7 19 7 30 -1 40 -9 11 -8 14 5 14 9 0 16 7 16
15 0 15 -39 22 -41 8z"/>
<path d="M882 2905 c-17 -37 -14 -45 4 -12 16 29 19 30 49 17 11 -5 14 -9 7
-9 -10 -1 -10 -5 2 -17 18 -17 22 -39 6 -29 -5 3 -10 0 -10 -7 0 -9 -3 -9 -10
2 -6 9 -10 10 -10 3 0 -18 -33 -21 -48 -3 -7 8 -5 0 5 -18 15 -27 23 -32 47
-30 25 2 31 9 39 37 12 49 -7 91 -43 91 -19 0 -30 -7 -38 -25z"/>
<path d="M1999 2843 c-3 -114 -3 -117 -9 -123 -3 -3 -13 -30 -23 -61 -10 -31
-31 -82 -47 -112 -16 -30 -26 -57 -23 -61 9 -8 56 86 77 154 10 30 21 64 26
75 23 54 28 134 10 192 -6 21 -9 4 -11 -64z"/>
<path d="M690 2913 c-27 -3 -39 -11 -53 -35 -18 -31 -18 -33 0 -65 16 -31 22
-34 57 -31 32 3 42 9 57 36 17 33 17 35 -3 68 -11 19 -21 33 -21 32 -1 -1 -18
-3 -37 -5z m40 -43 c24 -44 -45 -84 -75 -43 -9 12 -10 23 -2 40 13 30 62 32
77 3z"/>
<path d="M2849 2863 c0 -27 -2 -64 -3 -84 -1 -20 1 -47 5 -60 3 -13 7 24 8 84
1 59 -1 107 -4 107 -3 0 -5 -21 -6 -47z"/>
<path d="M318 2875 c-3 -13 -1 -22 3 -19 5 3 9 -4 9 -15 0 -12 5 -21 10 -21
13 0 13 27 0 35 -6 4 -8 15 -5 26 4 10 2 19 -3 19 -5 0 -12 -11 -14 -25z"/>
<path d="M422 2867 c-18 -49 0 -97 36 -97 l26 0 -23 21 c-24 23 -23 61 4 88
12 12 16 10 25 -14 6 -16 9 -40 5 -52 -7 -31 9 -29 23 2 17 37 -13 85 -53 85
-26 0 -33 -5 -43 -33z"/>
<path d="M225 2865 c-27 -14 -41 -23 -30 -19 11 3 34 10 52 15 18 6 35 14 38
19 10 16 -6 12 -60 -15z"/>
<path d="M980 2846 c-4 -13 -10 -30 -11 -37 -4 -18 10 -59 20 -59 16 0 19 13
9 30 -8 13 -9 27 -1 51 l11 34 2 -45 c1 -39 3 -42 11 -22 11 30 1 72 -17 72
-8 0 -19 -11 -24 -24z"/>
<path d="M763 2812 l-21 -38 20 -33 c18 -28 25 -32 51 -27 16 3 34 6 39 6 6 0
7 7 4 16 -4 10 -2 13 6 8 8 -5 9 -2 5 10 -4 10 -3 15 3 11 16 -10 11 33 -6 60
-12 18 -25 25 -48 25 -25 0 -35 -7 -53 -38z m73 20 c31 -21 21 -85 -15 -95
-12 -3 -21 0 -21 6 0 6 -7 18 -15 27 -30 33 14 87 51 62z"/>
<path d="M567 2833 c-20 -3 -33 -14 -44 -39 -16 -33 -16 -35 4 -62 12 -17 31
-28 50 -30 25 -3 34 3 50 31 l20 33 -21 37 c-12 20 -23 36 -26 35 -3 0 -18 -3
-33 -5z m44 -41 c22 -38 7 -72 -32 -72 -37 0 -49 38 -25 75 21 32 37 32 57 -3z"/>
<path d="M360 2806 c0 -13 -3 -33 -7 -43 -6 -16 -5 -16 11 -4 9 8 14 21 11 29
-4 10 0 13 14 9 14 -3 17 0 14 14 -8 29 -43 24 -43 -5z"/>
<path d="M185 2810 c-53 -6 -55 -7 -17 -8 23 -1 45 -2 48 -1 14 2 22 -26 12
-38 -7 -9 -7 -13 1 -13 6 0 11 -5 11 -11 0 -6 -6 -9 -13 -6 -8 3 -13 -3 -13
-14 0 -23 0 -23 36 -4 17 9 30 11 30 5 0 -5 -17 -18 -37 -29 -21 -10 -49 -32
-63 -48 l-25 -28 27 24 c27 24 28 24 48 6 15 -13 17 -21 9 -31 -6 -7 -9 -19
-7 -26 3 -7 12 2 20 19 15 29 15 32 -1 36 -9 3 -3 5 13 6 20 1 27 -3 23 -13
-3 -7 0 -19 6 -26 10 -10 8 -12 -7 -6 -16 6 -18 3 -13 -23 4 -17 2 -33 -3 -36
-6 -3 -10 -1 -10 4 0 6 -7 11 -15 11 -8 0 -15 -5 -15 -11 0 -5 5 -7 12 -3 8 5
9 2 5 -9 -8 -22 -1 -21 27 1 12 9 20 25 18 35 -2 9 1 17 7 17 6 0 11 -6 11
-13 0 -11 34 -47 44 -47 10 0 28 63 19 68 -5 4 -18 22 -28 39 -13 22 -21 29
-27 20 -6 -9 -10 -9 -20 1 -8 8 -9 15 -3 20 15 10 15 21 1 82 -14 62 -13 61
-111 50z"/>
<path d="M908 2779 c-17 -9 -44 -66 -36 -75 3 -3 15 11 26 31 12 19 25 35 30
35 9 0 22 -32 22 -56 0 -12 -46 -29 -65 -25 -5 1 -5 -3 2 -10 28 -28 83 17 83
69 0 15 -2 15 -11 2 -8 -12 -9 -10 -7 9 3 26 -17 35 -44 20z"/>
<path d="M388 2745 c-3 -23 1 -36 10 -40 7 -2 10 -1 7 4 -3 5 -1 12 5 16 15 9
12 55 -4 55 -8 0 -15 -14 -18 -35z"/>
<path d="M689 2763 c-30 -3 -37 -9 -48 -38 -10 -29 -10 -38 5 -60 14 -22 23
-26 47 -21 16 3 33 6 38 6 5 0 15 13 23 28 13 26 13 31 -6 60 -11 18 -21 31
-21 30 -1 -1 -18 -3 -38 -5z m29 -46 c4 -20 -25 -34 -40 -19 -15 15 -1 44 19
40 10 -2 19 -11 21 -21z"/>
<path d="M430 2734 c0 -26 1 -26 25 -10 32 21 32 21 50 -15 9 -17 19 -28 22
-25 4 3 -2 22 -13 41 -15 29 -24 35 -51 35 -29 0 -33 -3 -33 -26z"/>
<path d="M2076 2750 c28 -55 113 -152 126 -144 5 3 12 -4 15 -16 4 -15 8 -18
14 -9 4 7 1 22 -7 33 -16 24 -19 40 -4 31 14 -9 128 15 140 30 7 9 -11 9 -78
-1 -56 -9 -99 -10 -118 -5 -28 9 -28 9 -4 11 24 1 23 2 -8 15 -18 8 -44 27
-58 42 -14 15 -22 21 -18 13z"/>
<path d="M984 2723 c-17 -17 -17 -18 2 -22 10 -2 22 -8 25 -13 3 -5 9 -3 12 6
4 9 1 15 -6 13 -7 -1 -11 6 -11 16 1 9 0 17 -1 17 -2 0 -11 -8 -21 -17z"/>
<path d="M2015 2693 c-16 -86 -94 -241 -114 -229 -5 3 -15 -9 -22 -27 -7 -17
-15 -36 -17 -42 -3 -5 2 -4 11 4 23 18 21 6 -7 -67 -34 -87 -82 -148 -179
-229 -105 -89 -127 -103 -153 -103 -23 0 -171 102 -249 173 -52 46 -88 103
-124 195 l-21 54 30 -22 30 -22 -21 37 c-14 24 -24 32 -29 25 -6 -9 -9 -9 -14
-1 -4 6 -12 9 -17 5 -5 -3 -8 -2 -7 3 2 5 -12 29 -31 53 -18 25 -31 38 -28 29
3 -9 1 -21 -4 -26 -13 -13 30 -75 63 -91 14 -7 31 -26 37 -42 13 -38 5 -38
-38 3 -22 21 -32 26 -28 14 4 -10 7 -23 7 -28 0 -6 4 -8 9 -4 22 13 18 -14 -9
-63 -25 -46 -26 -52 -10 -47 21 7 34 -21 24 -51 -5 -16 -4 -16 5 -4 6 8 11 47
12 85 0 39 3 65 5 58 3 -7 11 -10 18 -7 7 3 18 -7 24 -21 14 -29 2 -68 -30
-102 l-21 -23 39 3 c31 1 39 -2 39 -15 0 -9 4 -20 8 -24 12 -13 8 31 -8 76
-19 54 -13 61 14 17 36 -59 20 -140 -24 -123 -9 3 -13 2 -10 -4 9 -14 31 -12
45 4 6 8 18 12 27 9 15 -6 14 3 -5 57 -5 13 -3 13 11 1 19 -15 23 -66 6 -77
-6 -3 -9 -15 -6 -25 3 -11 1 -17 -4 -13 -5 3 -9 -2 -9 -11 0 -9 4 -14 9 -10 5
3 19 -8 30 -23 19 -28 69 -57 140 -83 36 -13 65 -63 59 -103 -4 -34 49 -116
76 -116 38 0 75 69 91 171 5 31 12 39 59 63 39 20 59 38 71 62 9 19 20 32 25
29 13 -8 -1 33 -16 46 -20 16 -17 60 6 89 24 30 25 24 5 -23 -17 -41 -21 -71
-6 -48 5 7 13 11 19 7 6 -3 23 9 39 28 l28 35 90 -30 c50 -16 101 -34 115 -41
41 -20 46 -20 26 -4 -10 8 -55 27 -100 42 -45 15 -86 31 -92 35 -6 5 -15 5
-19 1 -5 -4 -5 -2 -2 4 4 6 -2 27 -12 47 -18 36 -18 37 3 81 24 51 33 56 39
24 4 -23 4 -23 14 2 8 18 7 27 -1 32 -10 7 -1 12 17 9 4 -1 10 12 13 29 13 60
34 22 34 -61 0 -25 7 -54 15 -65 15 -20 16 -18 18 31 2 24 6 30 24 29 20 0 18
4 -17 43 -41 44 -43 50 -31 93 7 22 10 18 31 -37 25 -68 55 -107 48 -63 -3 25
-2 25 62 22 51 -2 61 0 47 9 -10 6 -31 12 -47 14 -38 5 -107 41 -118 61 -5 9
-7 25 -5 35 4 16 8 15 29 -9 l25 -27 -25 38 c-24 37 -27 56 -27 165 0 52 -5
54 -14 5z m7 -117 c-2 -23 -11 -54 -20 -71 -20 -42 -91 -135 -102 -135 -15 0
11 60 31 71 10 5 26 23 34 39 21 41 19 51 -4 14 -11 -18 -24 -35 -30 -39 -6
-3 1 14 16 39 15 24 31 42 35 40 4 -3 7 5 5 18 -1 15 3 22 12 20 9 -2 12 4 7
21 -4 16 -1 24 8 24 10 0 12 -11 8 -41z m-927 -126 l6 -25 -20 25 c-24 30 -30
64 -7 40 8 -8 17 -26 21 -40z m763 -217 c-6 -43 -36 -119 -43 -111 -12 12 28
148 43 148 3 0 2 -17 0 -37z m-463 -183 c-2 -4 5 -16 18 -26 l22 -19 -19 23
c-26 30 -18 28 50 -13 32 -19 65 -35 74 -35 8 0 32 11 52 25 48 33 57 32 27
-2 -24 -28 -23 -28 8 1 18 16 30 32 28 36 -3 4 20 29 50 55 60 51 61 51 49
-38 -6 -43 -9 -47 -65 -77 -67 -35 -74 -45 -83 -115 -7 -53 -34 -135 -45 -135
-16 0 -44 68 -55 133 -10 60 -16 74 -37 84 -13 7 -58 28 -100 48 -76 36 -76
36 -83 82 -10 77 -9 77 54 27 33 -25 58 -50 55 -54z"/>
<path d="M380 2685 c0 -9 6 -12 15 -9 11 5 15 -1 15 -19 0 -14 4 -29 10 -32 6
-4 9 6 7 25 -5 40 -47 72 -47 35z"/>
<path d="M769 2678 c-12 -22 -12 -22 13 -6 24 16 27 16 43 -2 9 -10 14 -24 9
-31 -4 -8 -3 -10 4 -5 7 4 12 3 12 -2 0 -20 -62 -20 -82 0 -10 10 -18 14 -18
9 0 -5 -22 -11 -50 -13 -47 -3 -50 -1 -67 30 -15 27 -23 32 -54 32 -22 0 -39
-6 -42 -14 -4 -9 2 -12 19 -10 13 1 30 -4 38 -11 7 -8 16 -11 20 -8 3 3 1 -8
-4 -26 -6 -24 -5 -31 5 -31 7 0 15 6 18 13 5 13 70 15 100 2 17 -7 17 -9 1
-26 -21 -23 -52 -24 -76 -2 -10 9 -18 12 -18 7 0 -21 26 -34 67 -34 33 0 45 5
53 21 9 15 8 24 -1 35 -6 8 -9 17 -6 21 4 3 9 -2 13 -11 4 -11 18 -16 45 -16
33 0 41 5 54 30 23 44 6 70 -45 70 -30 0 -42 -5 -51 -22z"/>
<path d="M438 2678 c-4 -8 -2 -21 3 -29 5 -8 9 -9 9 -3 0 6 12 9 29 6 16 -2
32 1 36 7 5 8 -1 10 -20 5 -19 -5 -30 -2 -39 11 -11 15 -14 15 -18 3z"/>
<path d="M880 2630 c-24 -34 -21 -48 12 -46 16 1 23 7 24 23 1 12 -2 20 -7 18
-4 -3 -11 -1 -14 5 -4 6 -3 10 2 9 23 -4 53 2 53 11 0 23 -49 9 -70 -20z"/>
<path d="M1028 2626 c-10 -14 -14 -33 -11 -49 6 -32 8 -32 34 -9 17 17 18 22
7 49 l-13 30 -17 -21z"/>
<path d="M460 2621 c0 -10 7 -25 17 -32 15 -13 15 -12 4 9 -17 32 2 27 31 -8
20 -24 27 -27 31 -16 3 8 -3 26 -14 40 -25 31 -69 36 -69 7z"/>
<path d="M2076 2580 c7 -40 44 -110 70 -131 11 -9 7 2 -10 29 -14 23 -35 64
-46 90 -18 43 -20 44 -14 12z"/>
<path d="M794 2580 c-28 -11 -37 -27 -30 -47 5 -12 9 -14 18 -5 7 7 21 12 33
12 12 0 26 5 33 12 9 9 12 9 12 0 0 -7 -4 -12 -10 -12 -5 0 -10 -5 -10 -12 0
-6 8 -4 19 6 18 16 18 19 3 37 -18 20 -35 23 -68 9z"/>
<path d="M614 2556 c20 -17 24 -25 15 -29 -11 -4 -11 -6 -1 -6 19 -1 26 27 12
44 -7 8 -22 15 -34 15 -19 -1 -19 -2 8 -24z"/>
<path d="M969 2552 c-15 -15 -25 -35 -24 -44 2 -10 -1 -20 -6 -24 -5 -3 -9 4
-9 15 0 14 -5 19 -14 15 -14 -5 -34 -109 -24 -119 2 -3 21 9 41 26 24 20 37
39 37 55 0 13 -4 24 -10 24 -6 0 -6 9 -1 23 5 12 16 21 25 21 10 -1 16 6 16
17 0 23 1 24 -31 -9z"/>
<path d="M2848 2538 c-2 -7 -1 -33 3 -58 l6 -45 1 58 c2 55 -2 71 -10 45z"/>
<path d="M378 2520 c-21 -18 -22 -19 -4 -20 11 0 28 8 39 18 19 16 20 16 14 0
-3 -10 -2 -17 3 -15 5 1 20 -9 32 -23 13 -14 19 -20 14 -13 -17 26 2 24 23 -3
11 -15 21 -23 21 -18 0 5 4 5 8 -1 10 -14 53 -37 59 -32 2 3 -8 14 -23 26 -15
11 -22 21 -17 21 6 0 21 -9 35 -20 18 -13 28 -16 36 -8 7 7 10 5 9 -7 -1 -10
6 -19 16 -20 9 -2 15 1 12 5 -3 5 4 8 15 7 21 -1 29 -17 9 -17 -6 0 -8 -7 -5
-16 3 -8 0 -22 -8 -29 -7 -8 -19 -43 -26 -79 -7 -37 -15 -66 -19 -66 -3 0 -7
-14 -8 -30 -1 -17 -9 -45 -17 -63 -14 -32 -54 -149 -60 -176 -1 -8 -8 -17 -14
-19 -7 -2 -10 -7 -7 -11 7 -13 -16 -84 -37 -114 -11 -16 -18 -31 -15 -34 4 -3
-5 -20 -18 -37 -22 -29 -65 -119 -65 -134 1 -4 16 24 35 62 40 80 40 80 54 71
7 -4 2 -18 -14 -39 -29 -38 -103 -252 -111 -322 l-5 -49 21 59 c11 32 19 63
17 70 -2 6 1 20 7 31 5 11 17 40 26 65 27 81 36 62 58 -127 8 -73 2 -110 -22
-128 -11 -8 -11 -12 0 -22 10 -10 14 -7 19 17 3 16 13 34 21 41 17 14 18 5 2
-20 -36 -58 76 -196 196 -242 l69 -26 50 18 c50 19 97 54 97 73 0 6 -7 0 -16
-12 -18 -25 -70 -55 -83 -47 -5 3 2 44 16 93 13 48 25 98 25 111 l1 24 18 -24
19 -24 -10 28 c-8 24 -6 34 12 60 l22 31 7 -24 c6 -22 7 -20 8 10 1 20 9 43
19 52 29 28 37 42 40 73 2 17 11 46 19 65 8 19 16 43 18 53 9 40 17 57 26 52
5 -3 6 1 3 9 -3 8 3 34 13 58 28 61 76 236 70 250 -3 7 -6 4 -6 -6 -1 -19 -2
-18 -24 2 -19 18 -28 20 -55 13 -25 -8 -32 -7 -32 4 0 8 5 17 10 20 6 4 10 12
9 18 -3 14 15 61 37 100 15 27 15 29 -2 25 -14 -2 -29 -33 -59 -121 -24 -70
-51 -131 -67 -150 l-28 -32 10 29 c6 15 19 40 30 54 11 13 20 29 20 35 0 6
-12 -8 -27 -31 -29 -44 -78 -67 -126 -60 -21 3 -22 7 -20 91 1 49 7 105 13
125 5 20 13 75 16 122 7 118 11 129 39 136 14 3 25 10 25 15 0 5 6 9 14 9 8 0
17 6 19 13 4 8 8 9 14 1 9 -12 45 -15 38 -3 -6 8 53 34 61 26 3 -2 5 -14 5
-26 -2 -46 -1 -57 3 -76 2 -11 5 -24 5 -30 1 -6 4 -6 10 0 5 6 11 40 12 76 2
58 -1 70 -24 101 -15 19 -27 40 -27 46 0 7 -4 12 -10 12 -6 0 -5 -9 2 -24 9
-22 6 -30 -22 -65 -37 -47 -43 -51 -30 -16 11 30 7 31 -28 7 -15 -10 -48 -31
-74 -45 l-47 -27 3 37 c3 46 -2 63 -17 58 -36 -11 -97 -14 -97 -5 0 5 15 10
33 10 40 0 77 10 77 20 0 4 -40 5 -88 2 -100 -5 -181 13 -245 54 -51 34 -72
36 -99 14z m403 -177 c18 -21 18 -187 1 -258 -16 -71 -18 -227 -3 -251 1 -1
30 7 66 17 36 10 65 15 65 11 0 -11 -52 -31 -87 -34 -18 -1 -33 -6 -33 -10 0
-5 12 -32 27 -61 37 -72 56 -154 37 -161 -8 -3 -14 -14 -14 -25 0 -31 -16 -33
-34 -6 -14 21 -14 24 -1 19 24 -10 18 16 -28 109 -35 71 -46 85 -55 74 -7 -8
-10 -16 -8 -18 2 -2 -5 -5 -17 -6 -98 -8 -156 -17 -151 -25 4 -6 46 -7 104 -3
l98 7 26 -52 c16 -32 24 -60 20 -69 -4 -9 -7 -20 -6 -26 1 -5 -14 -28 -33 -50
-39 -46 -59 -40 -53 16 3 31 6 34 33 32 18 -1 22 0 10 4 -34 9 -45 24 -39 50
7 25 7 25 -20 8 -21 -14 -38 -16 -79 -12 -35 4 -47 3 -37 -3 8 -5 23 -10 33
-10 23 0 22 -17 -3 -25 -11 -3 -20 -10 -20 -15 0 -5 7 -7 15 -4 8 3 29 -4 47
-16 l33 -22 -30 26 c-17 15 -24 26 -16 26 8 0 24 -8 35 -17 15 -13 14 -10 -3
10 l-24 27 26 0 c33 0 40 -11 27 -44 -12 -33 3 -76 29 -83 43 -11 66 -135 36
-194 -9 -16 -13 -35 -9 -41 4 -6 3 -8 -3 -5 -6 4 -16 0 -23 -8 -18 -22 -83
-37 -113 -26 -52 20 -76 54 -91 132 -31 163 -50 339 -38 351 7 7 12 28 12 47
0 20 9 47 20 61 10 14 33 70 51 125 18 55 42 129 55 165 37 109 52 163 59 213
8 55 26 68 55 42 25 -22 27 -108 5 -151 -8 -16 -12 -39 -9 -51 4 -13 2 -23 -5
-23 -6 0 -8 -7 -5 -15 4 -8 1 -15 -6 -15 -7 0 -10 -6 -7 -14 3 -8 1 -16 -6
-19 -10 -3 -14 -30 -17 -110 -1 -9 -4 -15 -8 -13 -4 2 -21 -21 -37 -51 -22
-43 -38 -60 -69 -74 -66 -30 -19 -21 89 16 55 19 102 40 104 47 3 10 1 10 -10
2 -8 -6 -29 -16 -46 -22 -27 -9 -33 -8 -33 3 0 19 25 120 62 250 33 115 41
206 20 227 -16 16 -15 38 2 38 7 0 20 -7 27 -17z m304 -407 c18 -13 18 -15 -3
-64 -12 -28 -22 -58 -22 -66 0 -9 -13 -44 -29 -78 -16 -35 -46 -117 -67 -183
-38 -120 -38 -120 -112 -193 -41 -40 -75 -72 -76 -70 -1 2 0 28 2 58 4 43 7
51 13 35 7 -15 8 -11 4 14 -3 18 -5 54 -5 79 0 25 -3 43 -6 39 -4 -3 -6 -25
-6 -49 l0 -43 -19 38 -20 37 27 33 26 34 24 -24 c26 -26 72 -31 80 -8 4 8 -1
33 -10 55 -9 22 -16 52 -16 66 0 14 -7 39 -16 56 -15 29 -15 30 1 24 9 -3 21
-6 26 -6 6 0 8 -3 5 -8 -2 -4 3 -16 11 -27 14 -19 15 -18 8 13 -5 27 -1 39 25
72 17 22 36 38 41 34 5 -3 6 -10 3 -16 -4 -6 1 -8 11 -6 10 1 20 9 23 17 3 8
0 11 -6 8 -17 -12 -34 20 -27 52 6 27 64 91 83 91 5 0 17 -6 27 -14z m-421
-63 c-8 -46 -13 -55 -24 -48 -7 4 19 85 28 85 2 0 0 -17 -4 -37z m250 -39 c13
-5 14 -10 4 -27 -7 -12 -11 -25 -10 -29 3 -13 -37 -19 -55 -9 -11 6 -13 11 -5
11 7 0 11 4 7 10 -3 5 3 18 15 30 22 22 22 22 44 14z m-31 -278 c12 -35 2 -45
-19 -20 -15 19 -16 19 -9 -1 4 -13 3 -17 -4 -10 -12 13 -2 67 12 62 6 -2 15
-16 20 -31z m-63 -304 c-16 -43 -34 -106 -41 -141 -13 -59 -14 -62 -39 -56
-96 24 -230 129 -230 182 0 23 1 23 36 -9 58 -54 96 -60 158 -29 31 16 37 17
32 4 -17 -43 -14 -61 3 -19 11 27 18 53 15 57 -3 5 5 17 18 28 33 28 73 60 75
61 1 0 -11 -35 -27 -78z"/>
<path d="M710 2532 c-48 -4 -62 -10 -55 -23 5 -8 10 -8 18 0 16 16 27 13 27
-6 0 -13 2 -15 8 -5 5 7 16 10 24 7 18 -7 35 13 22 24 -5 3 -25 5 -44 3z"/>
<path d="M1502 2408 c-27 -44 -27 -66 -2 -98 13 -16 18 -18 14 -7 -4 12 -2 17
7 15 17 -4 24 47 12 93 l-9 33 -22 -36z"/>
<path d="M936 2321 c-12 -13 -13 -21 -3 -40 7 -14 19 -27 27 -29 12 -4 11 -1
-2 15 -26 29 -23 55 5 51 17 -2 22 -9 22 -31 -1 -26 0 -27 12 -11 17 23 16 29
-3 45 -23 19 -41 19 -58 0z"/>
<path d="M1956 2320 c-13 -40 -26 -98 -26 -120 1 -24 1 -24 12 -5 7 11 14 29
15 40 4 24 25 37 37 25 21 -21 28 -9 9 13 -11 12 -25 31 -31 42 -9 16 -12 17
-16 5z"/>
<path d="M56 2308 c3 -5 8 -7 11 -5 2 3 19 -10 36 -28 36 -38 81 -57 71 -31
-3 9 -9 16 -13 16 -4 0 -17 9 -29 21 -12 11 -26 18 -31 14 -5 -3 -11 0 -13 7
-2 6 -12 12 -21 14 -9 1 -14 -2 -11 -8z"/>
<path d="M2780 2308 c0 -6 -3 -8 -6 -5 -10 10 -84 -34 -84 -49 0 -15 23 -5 75
32 17 12 37 24 45 27 10 4 7 6 -7 6 -13 1 -23 -4 -23 -11z"/>
<path d="M1 2167 c-1 -73 2 -106 9 -102 7 4 10 38 9 83 -4 125 -17 138 -18 19z"/>
<path d="M1698 2239 c-9 -5 -91 -11 -182 -12 -160 -2 -164 -2 -148 -21 24 -26
91 -56 127 -55 25 1 23 3 -13 10 -49 9 -64 17 -57 29 3 5 -3 11 -12 13 -10 3
23 5 73 6 50 0 113 4 140 7 36 4 45 3 34 -5 -8 -6 -31 -11 -50 -12 l-35 -2 35
-6 35 -7 -35 -11 c-19 -7 -44 -14 -55 -17 -11 -3 -1 -4 23 -2 47 5 114 43 132
76 12 23 12 23 -12 9z"/>
<path d="M1086 2161 c-15 -6 -11 -10 23 -26 23 -10 44 -15 48 -12 3 4 0 7 -8
7 -8 0 -21 5 -29 10 -13 9 -13 11 0 20 13 9 13 10 0 9 -8 0 -23 -4 -34 -8z"/>
<path d="M1016 2152 c-8 -13 -37 -134 -33 -138 2 -2 13 30 24 71 19 70 21 86
9 67z"/>
<path d="M1495 2110 c3 -5 19 -10 35 -10 16 0 32 5 35 10 4 6 -10 10 -35 10
-25 0 -39 -4 -35 -10z"/>
<path d="M2043 2058 c-27 -48 -65 -139 -60 -145 3 -2 8 6 12 19 4 13 22 53 41
91 35 71 39 90 7 35z"/>
<path d="M2067 2043 l-18 -38 20 25 c11 14 22 23 24 20 3 -3 10 -63 17 -135
13 -145 32 -256 26 -155 -9 151 -31 320 -41 320 -6 0 -19 -17 -28 -37z"/>
<path d="M1187 2063 c-13 -12 -7 -23 13 -23 14 0 20 -7 20 -22 0 -12 3 -19 6
-15 3 3 3 19 -1 36 -6 29 -23 40 -38 24z"/>
<path d="M1 1656 c-1 -137 2 -246 6 -243 9 9 11 425 2 462 -4 16 -7 -82 -8
-219z"/>
<path d="M1857 1775 c3 -33 7 -62 9 -64 7 -8 2 74 -6 99 -5 16 -6 2 -3 -35z"/>
<path d="M2849 1828 c-5 -13 -6 -98 -1 -93 7 7 12 95 6 95 -2 0 -4 -1 -5 -2z"/>
<path d="M1110 1800 c0 -6 7 -13 15 -16 8 -4 12 -11 8 -17 -4 -6 -1 -7 7 -2 9
5 11 1 6 -16 -3 -13 -3 -18 0 -11 3 6 10 9 16 6 11 -7 -3 20 -25 49 -16 19
-27 22 -27 7z"/>
<path d="M2156 1790 c12 -12 255 -112 260 -107 3 2 -16 12 -41 21 -25 10 -45
21 -45 25 0 4 -8 7 -17 8 -10 1 -51 15 -92 32 -41 16 -70 26 -65 21z"/>
<path d="M2150 1754 c0 -8 3 -13 8 -12 10 3 152 -64 152 -72 0 -3 10 -6 22 -7
12 -1 26 -9 31 -18 6 -12 12 -13 22 -5 10 8 15 8 21 -1 5 -8 3 -9 -6 -4 -9 5
-11 4 -6 -4 4 -6 11 -9 15 -7 4 3 20 -6 35 -19 28 -24 28 -26 22 -97 -4 -40
-16 -109 -27 -152 -10 -44 -17 -81 -16 -83 9 -8 38 119 49 211 10 81 14 94 20
70 11 -39 17 -93 19 -184 1 -41 7 -80 13 -86 15 -14 9 139 -9 230 -14 64 -31
103 -43 91 -3 -3 -10 5 -16 17 -14 27 -306 153 -306 132z"/>
<path d="M2138 1673 c-4 -14 0 -28 11 -37 24 -22 31 -20 30 7 0 21 -1 21 -8 2
-8 -17 -10 -16 -18 15 -8 31 -10 32 -15 13z"/>
<path d="M1833 1634 c-32 -32 -43 -51 -42 -71 2 -27 2 -27 6 -3 5 25 49 80 65
80 15 0 8 -24 -14 -49 l-23 -24 27 19 c21 15 26 27 26 57 0 20 -1 36 -2 35 0
0 -20 -20 -43 -44z"/>
<path d="M2448 1662 c9 -10 23 -17 30 -14 7 2 20 -14 32 -39 20 -45 28 -41 10
5 -5 14 -24 35 -42 46 -41 25 -53 26 -30 2z"/>
<path d="M1393 1577 c12 -10 17 -29 17 -65 0 -50 -1 -51 -30 -50 -18 1 -31 7
-33 17 -3 10 -5 8 -6 -6 l-1 -23 265 0 265 0 -1 23 c0 21 -1 21 -9 2 -6 -13
-9 -15 -9 -5 -1 13 -3 13 -10 1 -8 -12 -12 -12 -25 -2 -9 8 -16 10 -16 5 0 -5
-31 -10 -69 -11 -58 -2 -70 1 -74 15 -4 16 -5 16 -6 0 -1 -11 -9 -18 -20 -18
-15 0 -21 8 -24 38 l-4 37 -1 -37 c-2 -40 -26 -54 -35 -20 -4 16 -5 16 -6 0
-1 -11 -9 -18 -20 -18 -15 0 -21 8 -24 33 l-4 32 -1 -32 c-2 -32 -3 -33 -47
-33 l-45 0 0 55 c0 46 -3 56 -22 65 -21 10 -21 10 -5 -3z"/>
<path d="M1251 1529 c-1 -4 6 -23 14 -43 9 -20 13 -41 10 -46 -4 -6 -1 -10 4
-10 6 0 11 6 11 13 -1 13 -38 96 -39 86z"/>
<path d="M2542 1418 c-1 -48 1 -89 6 -91 4 -3 6 23 4 56 -5 111 -9 124 -10 35z"/>
<path d="M1133 1335 c0 -33 2 -45 4 -27 2 18 2 45 0 60 -2 15 -4 0 -4 -33z"/>
<path d="M3 1275 c0 -33 2 -45 4 -27 2 18 2 45 0 60 -2 15 -4 0 -4 -33z"/>
<path d="M1941 1318 c-1 -10 8 -27 20 -39 20 -20 22 -20 40 -3 10 9 19 22 19
28 0 6 -5 3 -11 -6 -15 -27 -46 -22 -57 10 -7 17 -11 21 -11 10z"/>
<path d="M1171 1303 c-1 -24 23 -53 44 -53 21 0 45 29 44 53 -1 21 -1 21 -8
-2 -14 -52 -64 -50 -74 2 l-4 22 -2 -22z"/>
<path d="M2092 1282 c-1 -23 -14 -65 -28 -93 -14 -28 -21 -48 -15 -45 22 14
52 101 48 141 l-4 40 -1 -43z"/>
<path d="M2563 1250 c0 -36 2 -50 4 -32 2 17 2 47 0 65 -2 17 -4 3 -4 -33z"/>
<path d="M908 1230 c-2 -22 0 -47 4 -57 4 -10 7 6 7 40 1 66 -5 76 -11 17z"/>
<path d="M2528 1248 c-3 -7 -1 -49 3 -93 l7 -80 -2 83 c-2 45 1 82 6 82 4 0 8
5 8 10 0 14 -17 12 -22 -2z"/>
<path d="M434 1211 c-4 -18 -13 -35 -20 -38 -8 -3 -14 -10 -14 -17 0 -6 -31
-43 -70 -81 l-70 -69 0 35 c0 19 7 45 16 57 8 12 12 22 9 22 -4 0 11 21 32 48
22 27 28 39 14 27 -54 -45 -81 -95 -81 -150 0 -28 -6 -58 -12 -65 -7 -8 22 19
64 59 74 71 114 92 70 36 -12 -15 -19 -32 -16 -39 2 -6 -7 -38 -21 -70 -14
-32 -24 -60 -22 -63 7 -6 79 168 80 194 1 13 7 23 13 23 12 0 49 109 40 117
-3 4 -9 -8 -12 -26z"/>
<path d="M300 1212 c0 -4 -16 -27 -35 -49 -31 -37 -35 -47 -34 -95 l2 -53 6
57 c6 53 31 96 75 129 4 4 3 10 -3 13 -6 4 -11 3 -11 -2z"/>
<path d="M1090 1202 c0 -5 34 -59 75 -121 l75 -112 2 -82 2 -82 5 74 6 73 53
-65 c61 -76 173 -184 242 -233 33 -24 50 -44 53 -62 4 -26 4 -26 5 3 1 25 -6
35 -46 62 -128 87 -246 218 -388 428 -46 69 -84 121 -84 117z"/>
<path d="M2013 1098 c-16 -30 -17 -50 -13 -193 l6 -160 2 163 c2 123 6 170 17
192 21 40 12 38 -12 -2z"/>
<path d="M883 1043 c-13 -33 -17 -57 -12 -78 l8 -30 -1 30 c-1 29 2 42 23 94
5 13 8 25 6 28 -2 2 -13 -18 -24 -44z"/>
<path d="M401 1042 c-25 -49 -26 -59 -6 -42 8 7 15 19 15 26 0 23 15 16 34
-17 52 -88 132 -146 214 -156 48 -5 116 9 127 27 3 5 -10 3 -29 -5 -76 -32
-156 -12 -234 59 -32 29 -65 72 -78 100 l-22 48 -21 -40z"/>
<path d="M2346 1065 c-3 -9 -5 -40 -4 -68 l1 -52 7 65 c7 70 6 80 -4 55z"/>
<path d="M2074 875 c0 -110 2 -156 3 -103 2 53 2 143 0 200 -1 57 -3 13 -3
-97z"/>
<path d="M1942 987 c-22 -34 -63 -89 -90 -123 -41 -50 -47 -63 -38 -77 11 -14
13 -14 24 3 10 16 9 18 -5 13 -21 -8 -16 0 57 97 81 108 103 141 98 145 -2 3
-23 -23 -46 -58z"/>
<path d="M827 930 c-10 -16 -18 -32 -17 -35 0 -3 -7 -19 -15 -35 -9 -17 -13
-30 -10 -30 7 0 67 121 63 126 -2 2 -12 -10 -21 -26z"/>
<path d="M2524 948 c3 -10 2 -18 -3 -18 -5 0 -7 -11 -6 -24 4 -29 -9 -53 -19
-37 -4 6 -12 11 -19 11 -6 0 -2 -7 10 -15 14 -10 19 -22 16 -35 -3 -11 -10
-17 -16 -13 -6 4 -7 1 -2 -7 8 -13 17 -94 17 -152 0 -18 4 -25 12 -21 6 3 6 0
-1 -8 -15 -15 -17 -33 -4 -24 12 7 14 -313 2 -371 -8 -40 0 -71 22 -85 5 -4 4
-14 -3 -25 -8 -14 -9 -30 -2 -54 l9 -35 8 56 c5 40 3 64 -6 80 -10 18 -12 81
-11 254 2 127 -2 268 -7 315 -8 68 -6 96 5 137 12 40 13 57 4 70 -11 17 -11
17 -6 1z"/>
<path d="M233 910 c3 -11 2 -20 -2 -20 -4 0 -18 -36 -31 -81 -16 -56 -26 -76
-32 -67 -6 9 -7 6 -3 -9 9 -31 -5 -79 -17 -61 -7 9 -8 8 -4 -6 4 -11 3 -22 -2
-25 -12 -8 -62 -95 -62 -107 1 -5 10 8 21 29 11 22 23 37 25 34 3 -3 -1 -19
-10 -35 -30 -57 -38 -122 -25 -185 6 -32 16 -60 20 -63 5 -3 5 10 1 28 -14 67
-7 171 15 221 12 26 17 45 11 41 -6 -4 -9 -1 -6 7 3 8 11 14 19 14 8 1 13 6
12 13 -2 7 1 12 5 12 5 0 19 19 32 43 13 23 43 75 68 115 24 41 42 75 40 78
-3 2 -13 -12 -24 -31 -10 -19 -22 -35 -26 -35 -5 0 -8 -7 -8 -15 0 -8 -4 -15
-10 -15 -5 0 -12 -11 -16 -25 -3 -14 -10 -25 -15 -25 -10 0 -8 37 2 55 6 9 21
61 23 77 1 3 4 9 8 13 4 4 4 14 1 23 -5 11 -3 13 7 7 9 -5 11 -4 6 3 -12 20
-29 13 -23 -8z"/>
<path d="M1366 898 c3 -5 8 -7 12 -4 3 3 38 -26 78 -64 40 -38 91 -81 114 -96
45 -30 38 -32 117 39 34 32 34 57 -1 56 -11 0 -16 -3 -9 -5 18 -8 -1 -50 -34
-79 -33 -29 -37 -30 -57 -10 -8 8 -19 15 -25 15 -5 0 -19 13 -30 29 l-21 30
22 4 c14 2 7 5 -17 6 -32 1 -47 9 -82 43 -38 37 -83 62 -67 36z"/>
<path d="M1174 700 c0 -113 2 -159 3 -102 2 56 2 148 0 205 -1 56 -3 10 -3
-103z"/>
<path d="M251 743 c-34 -60 -74 -130 -90 -158 -17 -27 -33 -63 -36 -80 -5 -21
3 -13 24 28 17 32 47 80 66 108 18 27 37 60 41 72 4 12 9 24 13 27 7 6 51 110
46 110 -1 0 -30 -48 -64 -107z"/>
<path d="M1735 735 c-11 -11 -43 -40 -70 -64 -59 -52 -32 -35 42 26 44 37 53
41 61 28 7 -13 10 -14 19 -3 9 10 6 16 -10 23 -17 8 -26 6 -42 -10z"/>
<path d="M2544 595 c0 -77 2 -107 3 -67 2 40 2 103 0 140 -2 37 -3 4 -3 -73z"/>
<path d="M2004 595 c0 -71 1 -99 3 -62 2 37 2 96 0 130 -2 34 -3 4 -3 -68z"/>
<path d="M1244 470 c0 -80 2 -112 3 -72 2 39 2 105 0 145 -1 39 -3 7 -3 -73z"/>
<path d="M2064 485 c0 -49 1 -71 3 -48 2 23 2 64 0 90 -2 26 -3 8 -3 -42z"/>
<path d="M1604 475 c0 -49 1 -71 3 -48 2 23 2 64 0 90 -2 26 -3 8 -3 -42z"/>
<path d="M685 505 c-10 -25 -15 -48 -11 -52 3 -3 6 2 7 13 1 15 3 14 10 -6 8
-22 8 -20 4 8 -3 19 0 43 6 54 6 11 8 22 6 24 -3 3 -13 -15 -22 -41z"/>
<path d="M66 498 c-3 -13 -5 -45 -4 -73 1 -46 1 -44 8 20 8 74 7 91 -4 53z"/>
<path d="M720 468 c0 -53 98 -468 110 -468 13 0 7 34 -31 180 -12 47 -22 91
-22 98 0 6 -5 12 -10 12 -6 0 -8 2 -5 5 3 3 0 33 -7 67 -7 34 -12 70 -10 80 3
12 0 16 -7 12 -7 -5 -9 -1 -5 9 3 10 2 17 -3 17 -6 0 -10 -6 -10 -12z"/>
<path d="M2542 342 c-1 -86 2 -120 14 -143 8 -17 14 -49 13 -72 -1 -23 3 -53
8 -67 6 -14 13 -34 16 -45 4 -11 4 -4 1 15 -4 19 -7 61 -9 93 -2 32 -10 68
-19 82 -11 17 -16 55 -19 137 l-3 113 -2 -113z"/>
<path d="M695 406 c2 -14 5 -29 8 -33 3 -5 8 -33 12 -63 3 -29 8 -56 10 -60 2
-3 6 -17 9 -31 3 -13 10 -42 15 -64 6 -22 16 -67 23 -100 7 -33 14 -53 16 -44
1 9 -13 88 -32 175 -19 87 -38 178 -42 202 -7 44 -23 60 -19 18z"/>
<path d="M2053 320 c0 -36 2 -50 4 -32 2 17 2 47 0 65 -2 17 -4 3 -4 -33z"/>
<path d="M640 338 c0 -31 -111 -146 -182 -190 -60 -37 -63 -47 -5 -16 23 12
74 55 114 95 67 68 93 107 79 120 -3 4 -6 -1 -6 -9z"/>
<path d="M1183 215 c0 -38 2 -53 4 -32 2 20 2 52 0 70 -2 17 -4 1 -4 -38z"/>
<path d="M1593 175 c0 -33 2 -45 4 -27 2 18 2 45 0 60 -2 15 -4 0 -4 -33z"/>
<path d="M2043 165 c0 -38 2 -53 4 -32 2 20 2 52 0 70 -2 17 -4 1 -4 -38z"/>
<path d="M2984 115 c0 -66 1 -92 3 -57 2 34 2 88 0 120 -2 31 -3 3 -3 -63z"/>
<path d="M1253 90 c0 -47 2 -66 4 -42 2 23 2 61 0 85 -2 23 -4 4 -4 -43z"/>
<path d="M215 60 c39 -26 87 -25 116 1 l24 21 -27 -16 c-34 -20 -78 -21 -104
-1 -10 8 -23 14 -29 15 -5 0 4 -9 20 -20z"/>
</g>
</svg>
